{
.appVersion = "983";
DisplayStrings = (
"ABCDEFGHIJKLMNOPQRSTUVWXYZ\012HHAHHOOAOO\012HHBHHOOBOO\012HHCHHOOCOO\012HHDHHOODOO\012HHEHHOOEOO\012HHFHHOOFOO\012HHJHHOOJOO\012HHLHHOOLOO\012HHKHHOOKOO\012HHMHHOOMOO\012HHNHHOONOO\012HHPHHOOPOO\012HHQHHOOQOO\012HHRHHOOROO\012HHSHHOOSOO\012HHVHHOOVOO\012HHWHHOOWOO\012HHXHHOOXOO\012HHYHHOOYOO\012HHZHHOOZOO",
"B/Lcaron/Ldot NRX\012Q"
);
copyright = "Copyright 2012 The Cutive Project Authors (vern@newtypography.co.uk)";
customParameters = (
{
name = vendorID;
value = newt;
},
{
name = license;
value = "This Font Software is licensed under the SIL Open Font License, Version 1.1. This license is available with a FAQ at: http://scripts.sil.org/OFL";
},
{
name = licenseURL;
value = "http://scripts.sil.org/OFL";
},
{
name = fsType;
value = (
);
}
);
date = "2012-09-19 19:30:31 +0000";
designer = "Vernon Adams";
designerURL = "http://www.newtypography.co.uk";
disablesNiceNames = 1;
familyName = "Cutive Mono 1";
featurePrefixes = (
{
automatic = 1;
code = "languagesystem DFLT dflt;\012languagesystem latn dflt;\012languagesystem latn CAT;\012languagesystem latn ROM;\012languagesystem latn MOL;\012";
name = Languagesystems;
}
);
features = (
{
automatic = 1;
code = "feature locl;\012feature frac;\012feature ordn;\012feature salt;\012feature ss01;\012feature sups;\012feature ss02;\012";
name = aalt;
},
{
automatic = 1;
code = "script latn;\012language CAT;\012sub  l' periodcentered' l by ldot;\012sub  L' periodcentered' L by Ldot;\012language ROM;\012sub Scedilla by Scommaaccent;\012sub scedilla by scommaaccent;\012language MOL;\012sub Scedilla by Scommaaccent;\012sub scedilla by scommaaccent;\012";
name = locl;
},
{
automatic = 1;
code = "sub one by onesuperior;\012sub two by twosuperior;\012sub three by threesuperior;\012sub four by foursuperior;\012";
name = sups;
},
{
automatic = 1;
code = "sub one slash four by onequarter;\012sub one slash two by onehalf;\012sub three slash four by threequarters;\012";
name = frac;
},
{

glyphs = (
{
glyphname = A;
lastChange = "2017-06-07 01:08:25 +0000";
layers = (
{
anchors = (
{
name = bottom;
position = "{620, 0}";
},
{
name = ogonek;
position = "{1116, 10}";
},
{
name = top;
position = "{640, 1171}";
}
);
layerId = "840BD324-B0A6-42B0-BD23-CB5E8C19394F";
paths = (
{
closed = 1;
nodes = (
"646 1074 LINE",
"983 86 LINE",
"796 86 LINE SMOOTH",
"763 86 OFFCURVE",
"747 65 OFFCURVE",
"747 44 CURVE SMOOTH",
"747 22 OFFCURVE",
"764 0 OFFCURVE",
"798 0 CURVE SMOOTH",
"1164 0 LINE SMOOTH",
"1197 0 OFFCURVE",
"1214 22 OFFCURVE",
"1214 44 CURVE SMOOTH",
"1214 65 OFFCURVE",
"1198 86 OFFCURVE",
"1166 86 CURVE SMOOTH",
"1085 86 LINE",
"725 1106 LINE SMOOTH",
"713 1140 OFFCURVE",
"690 1171 OFFCURVE",
"644 1171 CURVE SMOOTH",
"341 1171 LINE SMOOTH",
"308 1171 OFFCURVE",
"292 1149 OFFCURVE",
"292 1128 CURVE SMOOTH",
"292 1106 OFFCURVE",
"309 1085 OFFCURVE",
"342 1085 CURVE SMOOTH",
"559 1085 LINE",
"176 86 LINE",
"89 86 LINE SMOOTH",
"56 86 OFFCURVE",
"40 64 OFFCURVE",
"40 43 CURVE SMOOTH",
"40 21 OFFCURVE",
"57 0 OFFCURVE",
"90 0 CURVE SMOOTH",
"438 0 LINE SMOOTH",
"472 0 OFFCURVE",
"489 21 OFFCURVE",
"489 43 CURVE SMOOTH",
"489 64 OFFCURVE",
"472 86 OFFCURVE",
"439 86 CURVE SMOOTH",
"279 86 LINE"
);
},
{
closed = 1;
nodes = (
"865 475 LINE",
"415 475 LINE",
"382 392 LINE",
"895 392 LINE"
);
}
);
width = 1240;
}
);
unicode = 0041;
},
{
glyphname = AE;
lastChange = "2017-06-03 22:40:40 +0000";
layers = (
{
anchors = (
{
name = bottom;
position = "{620, 0}";
},
{
name = top;
position = "{620, 1171}";
}
);
layerId = "840BD324-B0A6-42B0-BD23-CB5E8C19394F";
paths = (
{
closed = 1;
nodes = (
"88 0 LINE SMOOTH",
"55 0 OFFCURVE",
"38 21 OFFCURVE",
"38 43 CURVE SMOOTH",
"38 64 OFFCURVE",
"54 86 OFFCURVE",
"87 86 CURVE SMOOTH",
"138 86 LINE",
"463 1085 LINE",
"301 1085 LINE SMOOTH",
"268 1085 OFFCURVE",
"251 1106 OFFCURVE",
"251 1128 CURVE SMOOTH",
"251 1149 OFFCURVE",
"267 1171 OFFCURVE",
"300 1171 CURVE SMOOTH",
"1050 1171 LINE SMOOTH",
"1083 1171 OFFCURVE",
"1106 1151 OFFCURVE",
"1106 1117 CURVE SMOOTH",
"1106 893 LINE SMOOTH",
"1106 863 OFFCURVE",
"1086 849 OFFCURVE",
"1066 849 CURVE SMOOTH",
"1046 849 OFFCURVE",
"1028 862 OFFCURVE",
"1027 887 CURVE SMOOTH",
"1013 1085 LINE",
"729 1085 LINE",
"729 637 LINE",
"871 637 LINE",
"884 740 LINE SMOOTH",
"887 770 OFFCURVE",
"906 785 OFFCURVE",
"924 785 CURVE SMOOTH",
"943 785 OFFCURVE",
"962 769 OFFCURVE",
"962 732 CURVE SMOOTH",
"962 460 LINE SMOOTH",
"962 425 OFFCURVE",
"943 409 OFFCURVE",
"924 409 CURVE SMOOTH",
"905 409 OFFCURVE",
"886 424 OFFCURVE",
"884 452 CURVE",
"871 560 LINE",
"729 560 LINE",
"729 85 LINE",
"1016 85 LINE",
"1032 296 LINE SMOOTH",
"1033 320 OFFCURVE",
"1052 335 OFFCURVE",
"1073 335 CURVE SMOOTH",
"1094 335 OFFCURVE",
"1115 319 OFFCURVE",
"1115 283 CURVE SMOOTH",
"1115 53 LINE SMOOTH",
"1115 19 OFFCURVE",
"1092 0 OFFCURVE",
"1059 0 CURVE SMOOTH",
"613 0 LINE SMOOTH",
"579 0 OFFCURVE",
"562 22 OFFCURVE",
"562 43 CURVE SMOOTH",
"562 64 OFFCURVE",
"579 85 OFFCURVE",
"612 85 CURVE SMOOTH",
"642 85 LINE",
"642 392 LINE",
"327 392 LINE",
"231 86 LINE",
"398 86 LINE SMOOTH",
"431 86 OFFCURVE",
"448 64 OFFCURVE",
"448 43 CURVE SMOOTH",
"448 21 OFFCURVE",
"431 0 OFFCURVE",
"397 0 CURVE SMOOTH"
);
},
{
closed = 1;
nodes = (
"642 475 LINE",
"642 1085 LINE",
"545 1085 LINE",
"354 475 LINE"
);
}
);
width = 1240;
}
);
unicode = 00C6;
},
{
glyphname = B;
lastChange = "2017-06-03 22:41:43 +0000";
layers = (
{
anchors = (
{
name = bottom;
position = "{620, 0}";
},
{
name = top;
position = "{620, 1171}";
}
);
layerId = "840BD324-B0A6-42B0-BD23-CB5E8C19394F";
paths = (
{
closed = 1;
nodes = (
"925 889 CURVE SMOOTH",
"925 1031 OFFCURVE",
"777 1085 OFFCURVE",
"569 1085 CURVE SMOOTH",
"443 1085 LINE",
"443 672 LINE",
"593 672 LINE SMOOTH",
"797 672 OFFCURVE",
"925 749 OFFCURVE"
);
},
{
closed = 1;
nodes = (
"1012 333 CURVE SMOOTH",
"1012 527 OFFCURVE",
"845 588 OFFCURVE",
"593 588 CURVE SMOOTH",
"443 588 LINE",
"443 86 LINE",
"569 86 LINE SMOOTH",
"835 86 OFFCURVE",
"1012 130 OFFCURVE"
);
},
{
closed = 1;
nodes = (
"1108 333 CURVE SMOOTH",
"1108 74 OFFCURVE",
"905 0 OFFCURVE",
"546 0 CURVE SMOOTH",
"188 0 LINE SMOOTH",
"154 0 OFFCURVE",
"137 21 OFFCURVE",
"137 43 CURVE SMOOTH",
"137 64 OFFCURVE",
"154 86 OFFCURVE",
"187 86 CURVE SMOOTH",
"347 86 LINE",
"347 1085 LINE",
"181 1085 LINE SMOOTH",
"148 1085 OFFCURVE",
"132 1107 OFFCURVE",
"132 1129 CURVE SMOOTH",
"132 1150 OFFCURVE",
"148 1171 OFFCURVE",
"180 1171 CURVE SMOOTH",
"546 1171 LINE SMOOTH",
"831 1171 OFFCURVE",
"1011 1096 OFFCURVE",
"1011 889 CURVE SMOOTH",
"1011 761 OFFCURVE",
"936 669 OFFCURVE",
"847 638 CURVE",
"978 610 OFFCURVE",
"1108 518 OFFCURVE"
);
}
);
width = 1240;
}
);
unicode = 0042;
},
{
glyphname = C;
lastChange = "2017-06-06 00:46:05 +0000";
layers = (
{
anchors = (
{
name = bottom;
position = "{620, 0}";
},
{
name = top;
position = "{680, 1171}";
}
);
layerId = "840BD324-B0A6-42B0-BD23-CB5E8C19394F";
paths = (
{
closed = 1;
nodes = (
"946 -17 OFFCURVE",
"669 -17 CURVE SMOOTH",
"361 -17 OFFCURVE",
"132 225 OFFCURVE",
"132 607 CURVE SMOOTH",
"132 954 OFFCURVE",
"360 1187 OFFCURVE",
"668 1187 CURVE SMOOTH",
"827 1187 OFFCURVE",
"968 1113 OFFCURVE",
"1022 1015 CURVE",
"1022 1121 LINE SMOOTH",
"1022 1154 OFFCURVE",
"1047 1171 OFFCURVE",
"1071 1171 CURVE SMOOTH",
"1096 1171 OFFCURVE",
"1120 1154 OFFCURVE",
"1120 1120 CURVE SMOOTH",
"1120 827 LINE SMOOTH",
"1120 795 OFFCURVE",
"1097 780 OFFCURVE",
"1074 780 CURVE SMOOTH",
"1050 780 OFFCURVE",
"1031 797 OFFCURVE",
"1026 827 CURVE SMOOTH",
"995 991 OFFCURVE",
"850 1101 OFFCURVE",
"671 1101 CURVE SMOOTH",
"396 1101 OFFCURVE",
"228 890 OFFCURVE",
"228 600 CURVE SMOOTH",
"228 263 OFFCURVE",
"435 69 OFFCURVE",
"670 69 CURVE SMOOTH",
"893 69 OFFCURVE",
"1010 239 OFFCURVE",
"1036 345 CURVE SMOOTH",
"1044 380 OFFCURVE",
"1062 393 OFFCURVE",
"1083 393 CURVE SMOOTH",
"1106 393 OFFCURVE",
"1135 377 OFFCURVE",
"1135 343 CURVE SMOOTH",
"1135 184 OFFCURVE"
);
}
);
width = 1240;
}
);
unicode = 0043;
},
{
glyphname = D;
lastChange = "2017-06-03 22:12:45 +0000";
layers = (
{
anchors = (
{
name = bottom;
position = "{620, 0}";
},
{
name = center;
position = "{620, 586}";
},
{
name = top;
position = "{620, 1171}";
}
);
layerId = "840BD324-B0A6-42B0-BD23-CB5E8C19394F";
paths = (
{
closed = 1;
nodes = (
"1108 591 CURVE SMOOTH",
"1108 188 OFFCURVE",
"888 0 OFFCURVE",
"517 0 CURVE SMOOTH",
"156 0 LINE SMOOTH",
"122 0 OFFCURVE",
"105 21 OFFCURVE",
"105 43 CURVE SMOOTH",
"105 64 OFFCURVE",
"122 86 OFFCURVE",
"155 86 CURVE SMOOTH",
"318 86 LINE",
"318 1085 LINE",
"159 1085 LINE SMOOTH",
"127 1085 OFFCURVE",
"111 1106 OFFCURVE",
"111 1127 CURVE SMOOTH",
"111 1149 OFFCURVE",
"128 1171 OFFCURVE",
"161 1171 CURVE SMOOTH",
"519 1171 LINE SMOOTH",
"872 1171 OFFCURVE",
"1108 973 OFFCURVE"
);
},
{
closed = 1;
nodes = (
"1012 591 CURVE SMOOTH",
"1012 887 OFFCURVE",
"841 1085 OFFCURVE",
"538 1085 CURVE SMOOTH",
"414 1085 LINE",
"414 86 LINE",
"524 86 LINE SMOOTH",
"865 86 OFFCURVE",
"1012 276 OFFCURVE"
);
}
);
width = 1240;
}
);
unicode = 0044;
},
{
glyphname = DZ;
lastChange = "2017-06-05 22:41:28 +0000";
layers = (
{
components = (
{
name = _halfd;
transform = "{1, 0, 0, 1, 7, 0}";
}
);
layerId = "840BD324-B0A6-42B0-BD23-CB5E8C19394F";
paths = (
{
closed = 1;
nodes = (
"1108 0 CURVE SMOOTH",
"746 0 LINE SMOOTH",
"722 0 OFFCURVE",
"711 14 OFFCURVE",
"711 39 CURVE SMOOTH",
"711 54 OFFCURVE",
"714 73 OFFCURVE",
"722 95 CURVE SMOOTH",
"1065 1085 LINE",
"835 1085 LINE",
"825 857 LINE SMOOTH",
"824 830 OFFCURVE",
"802 817 OFFCURVE",
"780 817 CURVE SMOOTH",
"755 817 OFFCURVE",
"738 834 OFFCURVE",
"739 866 CURVE SMOOTH",
"749 1116 LINE",
"750 1144 OFFCURVE",
"756 1171 OFFCURVE",
"807 1171 CURVE SMOOTH",
"1117 1171 LINE SMOOTH",
"1152 1171 OFFCURVE",
"1162 1142 OFFCURVE",
"1162 1116 CURVE SMOOTH",
"1162 1102 OFFCURVE",
"1157 1085 OFFCURVE",
"1156 1081 CURVE SMOOTH",
"818 86 LINE",
"1067 86 LINE",
"1077 314 LINE",
"1079 346 OFFCURVE",
"1100 363 OFFCURVE",
"1123 363 CURVE SMOOTH",
"1144 363 OFFCURVE",
"1170 350 OFFCURVE",
"1169 315 CURVE SMOOTH",
"1159 53 LINE",
"1160 19 OFFCURVE",
"1137 0 OFFCURVE"
);
}
);
width = 1240;
}
);
unicode = 01F1;
},
{
glyphname = DZcaron;
lastChange = "2017-06-05 22:44:59 +0000";
layers = (
{
components = (
{
name = _halfd;
}
);
layerId = "840BD324-B0A6-42B0-BD23-CB5E8C19394F";
paths = (
{
closed = 1;
nodes = (
"985 1320 LINE SMOOTH",
"980 1312 OFFCURVE",
"974 1299 OFFCURVE",
"953 1299 CURVE SMOOTH",
"932 1299 OFFCURVE",
"927 1312 OFFCURVE",
"922 1320 CURVE SMOOTH",
"758 1603 LINE SMOOTH",
"754 1610 OFFCURVE",
"750 1616 OFFCURVE",
"752 1626 CURVE SMOOTH",
"755 1643 OFFCURVE",
"770 1654 OFFCURVE",
"783 1654 CURVE SMOOTH",
"796 1654 OFFCURVE",
"806 1649 OFFCURVE",
"811 1641 CURVE SMOOTH",
"953 1432 LINE",
"1066 1641 LINE SMOOTH",
"1071 1649 OFFCURVE",
"1081 1657 OFFCURVE",
"1094 1657 CURVE SMOOTH",
"1107 1657 OFFCURVE",
"1125 1647 OFFCURVE",
"1125 1632 CURVE SMOOTH",
"1125 1621 OFFCURVE",
"1123 1612 OFFCURVE",
"1119 1603 CURVE SMOOTH"
);
},
{
closed = 1;
nodes = (
"1108 0 CURVE SMOOTH",
"746 0 LINE SMOOTH",
"722 0 OFFCURVE",
"711 14 OFFCURVE",
"711 39 CURVE SMOOTH",
"711 54 OFFCURVE",
"714 73 OFFCURVE",
"722 95 CURVE SMOOTH",
"1065 1085 LINE",
"835 1085 LINE",
"825 857 LINE SMOOTH",
"824 830 OFFCURVE",
"802 817 OFFCURVE",
"780 817 CURVE SMOOTH",
"755 817 OFFCURVE",
"738 834 OFFCURVE",
"739 866 CURVE SMOOTH",
"749 1116 LINE",
"750 1144 OFFCURVE",
"756 1171 OFFCURVE",
"807 1171 CURVE SMOOTH",
"1117 1171 LINE SMOOTH",
"1152 1171 OFFCURVE",
"1162 1142 OFFCURVE",
"1162 1116 CURVE SMOOTH",
"1162 1102 OFFCURVE",
"1157 1085 OFFCURVE",
"1156 1081 CURVE SMOOTH",
"818 86 LINE",
"1067 86 LINE",
"1077 314 LINE",
"1079 346 OFFCURVE",
"1100 363 OFFCURVE",
"1123 363 CURVE SMOOTH",
"1144 363 OFFCURVE",
"1170 350 OFFCURVE",
"1169 315 CURVE SMOOTH",
"1159 53 LINE",
"1160 19 OFFCURVE",
"1137 0 OFFCURVE"
);
}
);
width = 1240;
}
);
unicode = 01C4;
},
{
glyphname = Eth;
lastChange = "2016-08-10 13:30:31 +0000";
layers = (
{
layerId = "840BD324-B0A6-42B0-BD23-CB5E8C19394F";
paths = (
{
closed = 1;
nodes = (
"172 572 LINE SMOOTH",
"135 572 OFFCURVE",
"126 592 OFFCURVE",
"126 611 CURVE SMOOTH",
"126 630 OFFCURVE",
"133 648 OFFCURVE",
"168 648 CURVE SMOOTH",
"314 648 LINE",
"314 1085 LINE",
"155 1085 LINE SMOOTH",
"123 1085 OFFCURVE",
"107 1106 OFFCURVE",
"107 1127 CURVE SMOOTH",
"107 1149 OFFCURVE",
"124 1171 OFFCURVE",
"157 1171 CURVE SMOOTH",
"515 1171 LINE SMOOTH",
"858 1171 OFFCURVE",
"1084 993 OFFCURVE",
"1084 591 CURVE SMOOTH",
"1084 168 OFFCURVE",
"874 0 OFFCURVE",
"513 0 CURVE SMOOTH",
"152 0 LINE SMOOTH",
"118 0 OFFCURVE",
"101 21 OFFCURVE",
"101 43 CURVE SMOOTH",
"101 64 OFFCURVE",
"118 86 OFFCURVE",
"151 86 CURVE SMOOTH",
"314 86 LINE",
"314 572 LINE"
);
},
{
closed = 1;
nodes = (
"978 591 CURVE SMOOTH",
"978 907 OFFCURVE",
"827 1085 OFFCURVE",
"534 1085 CURVE SMOOTH",
"420 1085 LINE",
"420 648 LINE",
"607 648 LINE SMOOTH",
"640 648 OFFCURVE",
"646 630 OFFCURVE",
"646 611 CURVE SMOOTH",
"646 592 OFFCURVE",
"638 572 OFFCURVE",
"605 572 CURVE SMOOTH",
"420 572 LINE",
"420 86 LINE",
"520 86 LINE SMOOTH",
"851 86 OFFCURVE",
"978 256 OFFCURVE"
);
}
);
width = 1240;
}
);
unicode = 00D0;
},
{
glyphname = Dcroat;
lastChange = "2016-08-10 13:30:31 +0000";
layers = (
{
layerId = "840BD324-B0A6-42B0-BD23-CB5E8C19394F";
paths = (
{
closed = 1;
nodes = (
"172 572 LINE SMOOTH",
"135 572 OFFCURVE",
"126 592 OFFCURVE",
"126 611 CURVE SMOOTH",
"126 630 OFFCURVE",
"133 648 OFFCURVE",
"168 648 CURVE SMOOTH",
"314 648 LINE",
"314 1085 LINE",
"155 1085 LINE SMOOTH",
"123 1085 OFFCURVE",
"107 1106 OFFCURVE",
"107 1127 CURVE SMOOTH",
"107 1149 OFFCURVE",
"124 1171 OFFCURVE",
"157 1171 CURVE SMOOTH",
"515 1171 LINE SMOOTH",
"858 1171 OFFCURVE",
"1084 993 OFFCURVE",
"1084 591 CURVE SMOOTH",
"1084 168 OFFCURVE",
"874 0 OFFCURVE",
"513 0 CURVE SMOOTH",
"152 0 LINE SMOOTH",
"118 0 OFFCURVE",
"101 21 OFFCURVE",
"101 43 CURVE SMOOTH",
"101 64 OFFCURVE",
"118 86 OFFCURVE",
"151 86 CURVE SMOOTH",
"314 86 LINE",
"314 572 LINE"
);
},
{
closed = 1;
nodes = (
"978 591 CURVE SMOOTH",
"978 907 OFFCURVE",
"827 1085 OFFCURVE",
"534 1085 CURVE SMOOTH",
"420 1085 LINE",
"420 648 LINE",
"607 648 LINE SMOOTH",
"640 648 OFFCURVE",
"646 630 OFFCURVE",
"646 611 CURVE SMOOTH",
"646 592 OFFCURVE",
"638 572 OFFCURVE",
"605 572 CURVE SMOOTH",
"420 572 LINE",
"420 86 LINE",
"520 86 LINE SMOOTH",
"851 86 OFFCURVE",
"978 256 OFFCURVE"
);
}
);
width = 1240;
}
);
unicode = 0110;
},
{
glyphname = E;
lastChange = "2017-06-08 02:45:19 +0000";
layers = (
{
anchors = (
{
name = bottom;
position = "{620, 0}";
},
{
name = ogonek;
position = "{1116, 10}";
},
{
name = top;
position = "{660, 1171}";
},
{
name = topleft;
position = "{20, 1171}";
}
);
layerId = "840BD324-B0A6-42B0-BD23-CB5E8C19394F";
paths = (
{
closed = 1;
nodes = (
"827 437 LINE SMOOTH",
"827 402 OFFCURVE",
"808 386 OFFCURVE",
"789 386 CURVE SMOOTH",
"770 386 OFFCURVE",
"751 401 OFFCURVE",
"749 429 CURVE SMOOTH",
"736 577 LINE",
"410 577 LINE",
"410 85 LINE",
"986 85 LINE",
"1000 85 OFFCURVE",
"1007 99 OFFCURVE",
"1008 108 CURVE SMOOTH",
"1041 336 LINE SMOOTH",
"1044 360 OFFCURVE",
"1064 375 OFFCURVE",
"1085 375 CURVE SMOOTH",
"1106 375 OFFCURVE",
"1130 359 OFFCURVE",
"1127 323 CURVE SMOOTH",
"1107 53 LINE SMOOTH",
"1104 19 OFFCURVE",
"1084 0 OFFCURVE",
"1051 0 CURVE SMOOTH",
"145 0 LINE SMOOTH",
"111 0 OFFCURVE",
"94 22 OFFCURVE",
"94 43 CURVE SMOOTH",
"94 64 OFFCURVE",
"111 85 OFFCURVE",
"144 85 CURVE SMOOTH",
"314 85 LINE",
"314 1085 LINE",
"179 1085 LINE SMOOTH",
"147 1085 OFFCURVE",
"131 1106 OFFCURVE",
"131 1127 CURVE SMOOTH",
"131 1149 OFFCURVE",
"148 1171 OFFCURVE",
"181 1171 CURVE SMOOTH",
"1039 1171 LINE SMOOTH",
"1072 1171 OFFCURVE",
"1092 1151 OFFCURVE",
"1095 1117 CURVE SMOOTH",
"1115 847 LINE SMOOTH",
"1117 817 OFFCURVE",
"1095 803 OFFCURVE",
"1075 803 CURVE SMOOTH",
"1055 803 OFFCURVE",
"1036 816 OFFCURVE",
"1033 841 CURVE SMOOTH",
"1003 1062 LINE SMOOTH",
"1001 1073 OFFCURVE",
"992 1085 OFFCURVE",
"981 1085 CURVE",
"410 1085 LINE",
"410 654 LINE",
"736 654 LINE",
"749 787 LINE SMOOTH",
"752 817 OFFCURVE",
"771 832 OFFCURVE",
"789 832 CURVE SMOOTH",
"808 832 OFFCURVE",
"827 816 OFFCURVE",
"827 779 CURVE SMOOTH"
);
}
);
width = 1240;
}
);
unicode = 0045;
},
{
glyphname = F;
lastChange = "2017-06-08 02:45:34 +0000";
layers = (
{
anchors = (
{
name = bottom;
position = "{620, 0}";
},
{
name = top;
position = "{620, 1171}";
}
);
layerId = "840BD324-B0A6-42B0-BD23-CB5E8C19394F";
paths = (
{
closed = 1;
nodes = (
"848 437 LINE SMOOTH",
"848 402 OFFCURVE",
"829 386 OFFCURVE",
"810 386 CURVE SMOOTH",
"791 386 OFFCURVE",
"772 401 OFFCURVE",
"770 429 CURVE SMOOTH",
"757 577 LINE",
"420 577 LINE",
"420 85 LINE",
"770 85 LINE SMOOTH",
"801 85 OFFCURVE",
"816 64 OFFCURVE",
"816 43 CURVE SMOOTH",
"816 21 OFFCURVE",
"800 0 OFFCURVE",
"771 0 CURVE SMOOTH",
"155 0 LINE SMOOTH",
"121 0 OFFCURVE",
"104 22 OFFCURVE",
"104 43 CURVE SMOOTH",
"104 64 OFFCURVE",
"121 85 OFFCURVE",
"154 85 CURVE SMOOTH",
"324 85 LINE",
"324 1085 LINE",
"189 1085 LINE SMOOTH",
"157 1085 OFFCURVE",
"141 1106 OFFCURVE",
"141 1127 CURVE SMOOTH",
"141 1149 OFFCURVE",
"158 1171 OFFCURVE",
"191 1171 CURVE SMOOTH",
"1062 1171 LINE",
"1042 1085 LINE",
"420 1085 LINE",
"420 654 LINE",
"757 654 LINE",
"770 787 LINE SMOOTH",
"773 817 OFFCURVE",
"792 832 OFFCURVE",
"810 832 CURVE SMOOTH",
"829 832 OFFCURVE",
"848 816 OFFCURVE",
"848 779 CURVE SMOOTH"
);
},
{
closed = 1;
nodes = (
"1095 1171 OFFCURVE",
"1115 1151 OFFCURVE",
"1118 1117 CURVE SMOOTH",
"1138 847 LINE SMOOTH",
"1140 817 OFFCURVE",
"1118 803 OFFCURVE",
"1098 803 CURVE SMOOTH",
"1078 803 OFFCURVE",
"1059 816 OFFCURVE",
"1056 841 CURVE SMOOTH",
"1026 1062 LINE SMOOTH",
"1024 1073 OFFCURVE",
"1015 1085 OFFCURVE",
"1004 1085 CURVE",
"1062 1171 LINE"
);
}
);
width = 1240;
}
);
unicode = 0046;
},
{
glyphname = G;
lastChange = "2017-06-06 00:45:41 +0000";
layers = (
{
anchors = (
{
name = bottom;
position = "{620, 0}";
},
{
name = top;
position = "{644, 1171}";
}
);
layerId = "840BD324-B0A6-42B0-BD23-CB5E8C19394F";
paths = (
{
closed = 1;
nodes = (
"937 62 OFFCURVE",
"784 -17 OFFCURVE",
"606 -17 CURVE SMOOTH",
"298 -17 OFFCURVE",
"90 225 OFFCURVE",
"90 607 CURVE SMOOTH",
"90 954 OFFCURVE",
"297 1187 OFFCURVE",
"605 1187 CURVE SMOOTH",
"764 1187 OFFCURVE",
"905 1113 OFFCURVE",
"959 1015 CURVE",
"959 1121 LINE SMOOTH",
"959 1154 OFFCURVE",
"983 1171 OFFCURVE",
"1007 1171 CURVE SMOOTH",
"1032 1171 OFFCURVE",
"1055 1154 OFFCURVE",
"1055 1120 CURVE SMOOTH",
"1055 837 LINE SMOOTH",
"1055 805 OFFCURVE",
"1033 790 OFFCURVE",
"1010 790 CURVE SMOOTH",
"986 790 OFFCURVE",
"968 807 OFFCURVE",
"962 837 CURVE SMOOTH",
"932 978 OFFCURVE",
"787 1101 OFFCURVE",
"608 1101 CURVE SMOOTH",
"333 1101 OFFCURVE",
"186 890 OFFCURVE",
"186 600 CURVE SMOOTH",
"186 263 OFFCURVE",
"372 69 OFFCURVE",
"607 69 CURVE SMOOTH",
"815 69 OFFCURVE",
"939 182 OFFCURVE",
"987 299 CURVE",
"987 154 LINE"
);
},
{
closed = 1;
nodes = (
"962 332 LINE",
"962 470 LINE",
"778 470 LINE SMOOTH",
"745 470 OFFCURVE",
"728 492 OFFCURVE",
"728 514 CURVE SMOOTH",
"728 535 OFFCURVE",
"744 556 OFFCURVE",
"777 556 CURVE SMOOTH",
"1121 556 LINE SMOOTH",
"1154 556 OFFCURVE",
"1170 535 OFFCURVE",
"1170 514 CURVE SMOOTH",
"1170 492 OFFCURVE",
"1153 470 OFFCURVE",
"1119 470 CURVE SMOOTH",
"1058 470 LINE",
"1058 49 LINE SMOOTH",
"1058 11 OFFCURVE",
"1035 -8 OFFCURVE",
"1011 -8 CURVE SMOOTH",
"987 -8 OFFCURVE",
"962 12 OFFCURVE",
"962 51 CURVE SMOOTH",
"962 175 LINE"
);
}
);
width = 1240;
}
);
unicode = 0047;
},
{
glyphname = H;
lastChange = "2017-06-03 22:51:09 +0000";
layers = (
{
anchors = (
{
name = bottom;
position = "{620, 0}";
},
{
name = center;
position = "{620, 586}";
},
{
name = top;
position = "{630, 1171}";
},
{
name = topleft;
position = "{20, 1171}";
}
);
layerId = "840BD324-B0A6-42B0-BD23-CB5E8C19394F";
paths = (
{
closed = 1;
nodes = (
"143 0 LINE SMOOTH",
"110 0 OFFCURVE",
"93 22 OFFCURVE",
"93 44 CURVE SMOOTH",
"93 65 OFFCURVE",
"109 86 OFFCURVE",
"141 86 CURVE SMOOTH",
"265 86 LINE",
"265 1085 LINE",
"157 1085 LINE SMOOTH",
"124 1085 OFFCURVE",
"107 1106 OFFCURVE",
"107 1128 CURVE SMOOTH",
"107 1149 OFFCURVE",
"124 1171 OFFCURVE",
"157 1171 CURVE SMOOTH",
"459 1171 LINE SMOOTH",
"492 1171 OFFCURVE",
"509 1149 OFFCURVE",
"509 1127 CURVE SMOOTH",
"509 1106 OFFCURVE",
"494 1085 OFFCURVE",
"461 1085 CURVE SMOOTH",
"358 1085 LINE",
"358 638 LINE",
"904 638 LINE",
"904 1085 LINE",
"801 1085 LINE SMOOTH",
"768 1085 OFFCURVE",
"753 1106 OFFCURVE",
"753 1127 CURVE SMOOTH",
"753 1149 OFFCURVE",
"770 1171 OFFCURVE",
"803 1171 CURVE SMOOTH",
"1097 1171 LINE SMOOTH",
"1130 1171 OFFCURVE",
"1147 1150 OFFCURVE",
"1147 1130 CURVE SMOOTH",
"1147 1107 OFFCURVE",
"1130 1085 OFFCURVE",
"1097 1085 CURVE SMOOTH",
"997 1085 LINE",
"997 86 LINE",
"1097 86 LINE SMOOTH",
"1130 86 OFFCURVE",
"1147 65 OFFCURVE",
"1147 43 CURVE SMOOTH",
"1147 22 OFFCURVE",
"1130 0 OFFCURVE",
"1097 0 CURVE SMOOTH",
"803 0 LINE SMOOTH",
"770 0 OFFCURVE",
"753 22 OFFCURVE",
"753 44 CURVE SMOOTH",
"753 65 OFFCURVE",
"769 86 OFFCURVE",
"801 86 CURVE SMOOTH",
"904 86 LINE",
"904 558 LINE",
"358 558 LINE",
"358 86 LINE",
"461 86 LINE SMOOTH",
"493 86 OFFCURVE",
"509 66 OFFCURVE",
"509 46 CURVE SMOOTH",
"509 23 OFFCURVE",
"492 0 OFFCURVE",
"459 0 CURVE SMOOTH"
);
}
);
width = 1240;
}
);
unicode = 0048;
},
{
glyphname = Hbar;
lastChange = "2016-08-10 13:30:31 +0000";
layers = (
{
components = (
{
name = H;
}
);
layerId = "840BD324-B0A6-42B0-BD23-CB5E8C19394F";
paths = (
{
closed = 1;
nodes = (
"153 855 LINE SMOOTH",
"116 855 OFFCURVE",
"107 875 OFFCURVE",
"107 894 CURVE SMOOTH",
"107 913 OFFCURVE",
"114 931 OFFCURVE",
"149 931 CURVE SMOOTH",
"1108 931 LINE SMOOTH",
"1141 931 OFFCURVE",
"1147 913 OFFCURVE",
"1147 894 CURVE SMOOTH",
"1147 875 OFFCURVE",
"1139 855 OFFCURVE",
"1106 855 CURVE SMOOTH"
);
}
);
width = 1240;
}
);
unicode = 0126;
},
{
glyphname = I;
lastChange = "2017-06-03 22:49:26 +0000";
layers = (
{
anchors = (
{
name = bottom;
position = "{620, 0}";
},
{
name = ogonek;
position = "{1116, 10}";
},
{
name = top;
position = "{670, 1171}";
},
{
name = topleft;
position = "{20, 1171}";
}
);
layerId = "840BD324-B0A6-42B0-BD23-CB5E8C19394F";
paths = (
{
closed = 1;
nodes = (
"995 0 LINE SMOOTH",
"1028 0 OFFCURVE",
"1045 21 OFFCURVE",
"1045 43 CURVE SMOOTH",
"1045 64 OFFCURVE",
"1029 86 OFFCURVE",
"996 86 CURVE SMOOTH",
"710 86 LINE",
"710 1085 LINE",
"996 1085 LINE SMOOTH",
"1029 1085 OFFCURVE",
"1045 1106 OFFCURVE",
"1045 1127 CURVE SMOOTH",
"1045 1149 OFFCURVE",
"1028 1171 OFFCURVE",
"995 1171 CURVE SMOOTH",
"310 1171 LINE SMOOTH",
"277 1171 OFFCURVE",
"259 1149 OFFCURVE",
"259 1127 CURVE SMOOTH",
"259 1106 OFFCURVE",
"276 1085 OFFCURVE",
"309 1085 CURVE SMOOTH",
"614 1085 LINE",
"614 86 LINE",
"309 86 LINE SMOOTH",
"276 86 OFFCURVE",
"259 64 OFFCURVE",
"259 43 CURVE SMOOTH",
"259 21 OFFCURVE",
"277 0 OFFCURVE",
"310 0 CURVE SMOOTH"
);
}
);
width = 1240;
}
);
unicode = 0049;
},
{
glyphname = IJ;
lastChange = "2017-06-06 00:42:35 +0000";
layers = (
{
layerId = "840BD324-B0A6-42B0-BD23-CB5E8C19394F";
paths = (
{
closed = 1;
nodes = (
"1040 82 OFFCURVE",
"944 -13 OFFCURVE",
"800 -13 CURVE SMOOTH",
"659 -13 OFFCURVE",
"563 87 OFFCURVE",
"563 251 CURVE SMOOTH",
"563 273 LINE SMOOTH",
"563 312 OFFCURVE",
"588 328 OFFCURVE",
"612 328 CURVE SMOOTH",
"636 328 OFFCURVE",
"662 313 OFFCURVE",
"662 273 CURVE SMOOTH",
"662 250 LINE SMOOTH",
"662 141 OFFCURVE",
"712 76 OFFCURVE",
"800 76 CURVE SMOOTH",
"891 76 OFFCURVE",
"944 152 OFFCURVE",
"944 364 CURVE SMOOTH",
"944 1085 LINE",
"348 1085 LINE",
"348 86 LINE",
"479 86 LINE SMOOTH",
"512 86 OFFCURVE",
"528 64 OFFCURVE",
"528 43 CURVE SMOOTH",
"528 21 OFFCURVE",
"511 0 OFFCURVE",
"478 0 CURVE SMOOTH",
"118 0 LINE SMOOTH",
"85 0 OFFCURVE",
"67 21 OFFCURVE",
"67 43 CURVE SMOOTH",
"67 64 OFFCURVE",
"84 86 OFFCURVE",
"117 86 CURVE SMOOTH",
"252 86 LINE",
"252 1085 LINE",
"97 1085 LINE SMOOTH",
"64 1085 OFFCURVE",
"47 1106 OFFCURVE",
"47 1127 CURVE SMOOTH",
"47 1149 OFFCURVE",
"65 1171 OFFCURVE",
"98 1171 CURVE SMOOTH",
"1142 1171 LINE SMOOTH",
"1175 1171 OFFCURVE",
"1192 1150 OFFCURVE",
"1192 1128 CURVE SMOOTH",
"1192 1107 OFFCURVE",
"1176 1085 OFFCURVE",
"1143 1085 CURVE SMOOTH",
"1040 1085 LINE",
"1040 367 LINE SMOOTH"
);
}
);
width = 1240;
}
);
unicode = 0132;
},
{
glyphname = J;
lastChange = "2017-06-03 22:14:11 +0000";
layers = (
{
anchors = (
{
name = bottom;
position = "{620, 0}";
},
{
name = top;
position = "{730, 1171}";
}
);
layerId = "840BD324-B0A6-42B0-BD23-CB5E8C19394F";
paths = (
{
closed = 1;
nodes = (
"865 437 LINE SMOOTH",
"865 142 OFFCURVE",
"752 -13 OFFCURVE",
"500 -13 CURVE SMOOTH",
"278 -13 OFFCURVE",
"148 107 OFFCURVE",
"148 320 CURVE SMOOTH",
"148 349 OFFCURVE",
"169 368 OFFCURVE",
"198 368 CURVE SMOOTH",
"224 368 OFFCURVE",
"246 352 OFFCURVE",
"246 320 CURVE SMOOTH",
"246 160 OFFCURVE",
"341 70 OFFCURVE",
"500 70 CURVE SMOOTH",
"682 70 OFFCURVE",
"769 194 OFFCURVE",
"769 434 CURVE SMOOTH",
"769 1085 LINE",
"399 1085 LINE SMOOTH",
"367 1085 OFFCURVE",
"351 1106 OFFCURVE",
"351 1127 CURVE SMOOTH",
"351 1149 OFFCURVE",
"367 1171 OFFCURVE",
"400 1171 CURVE SMOOTH",
"1035 1171 LINE SMOOTH",
"1068 1171 OFFCURVE",
"1085 1150 OFFCURVE",
"1085 1128 CURVE SMOOTH",
"1085 1107 OFFCURVE",
"1069 1085 OFFCURVE",
"1036 1085 CURVE SMOOTH",
"865 1085 LINE"
);
}
);
width = 1240;
}
);
unicode = 004A;
},
{
glyphname = K;
lastChange = "2017-06-03 22:13:33 +0000";
layers = (
{
anchors = (
{
name = bottom;
position = "{620, 0}";
},
{
name = top;
position = "{620, 1171}";
}
);
layerId = "840BD324-B0A6-42B0-BD23-CB5E8C19394F";
paths = (
{
closed = 1;
nodes = (
"352 405 LINE",
"352 86 LINE",
"510 86 LINE SMOOTH",
"543 86 OFFCURVE",
"559 64 OFFCURVE",
"559 43 CURVE SMOOTH",
"559 21 OFFCURVE",
"542 0 OFFCURVE",
"509 0 CURVE SMOOTH",
"84 0 LINE SMOOTH",
"50 0 OFFCURVE",
"33 21 OFFCURVE",
"33 43 CURVE SMOOTH",
"33 64 OFFCURVE",
"50 86 OFFCURVE",
"83 86 CURVE SMOOTH",
"252 86 LINE",
"252 1084 LINE",
"83 1084 LINE SMOOTH",
"50 1084 OFFCURVE",
"33 1105 OFFCURVE",
"33 1127 CURVE SMOOTH",
"33 1149 OFFCURVE",
"50 1171 OFFCURVE",
"84 1171 CURVE SMOOTH",
"509 1171 LINE SMOOTH",
"542 1171 OFFCURVE",
"559 1148 OFFCURVE",
"559 1126 CURVE SMOOTH",
"559 1105 OFFCURVE",
"544 1084 OFFCURVE",
"511 1084 CURVE SMOOTH",
"348 1084 LINE",
"348 519 LINE",
"901 1085 LINE",
"905 1085 OFFCURVE",
"898 1085 OFFCURVE",
"783 1085 CURVE SMOOTH",
"750 1085 OFFCURVE",
"734 1108 OFFCURVE",
"734 1127 CURVE SMOOTH",
"734 1147 OFFCURVE",
"752 1171 OFFCURVE",
"784 1171 CURVE SMOOTH",
"1146 1171 LINE SMOOTH",
"1179 1171 OFFCURVE",
"1195 1149 OFFCURVE",
"1195 1127 CURVE SMOOTH",
"1195 1105 OFFCURVE",
"1179 1085 OFFCURVE",
"1147 1085 CURVE SMOOTH",
"1019 1085 LINE"
);
},
{
closed = 1;
nodes = (
"601 676 LINE",
"1062 86 LINE",
"1189 86 LINE SMOOTH",
"1221 86 OFFCURVE",
"1237 64 OFFCURVE",
"1237 43 CURVE SMOOTH",
"1237 21 OFFCURVE",
"1221 0 OFFCURVE",
"1188 0 CURVE SMOOTH",
"770 0 LINE SMOOTH",
"737 0 OFFCURVE",
"720 21 OFFCURVE",
"720 43 CURVE SMOOTH",
"720 64 OFFCURVE",
"736 86 OFFCURVE",
"769 86 CURVE SMOOTH",
"945 86 LINE",
"527 621 LINE"
);
}
);
width = 1240;
}
);
unicode = 004B;
},
{
glyphname = L;
lastChange = "2017-06-08 02:45:46 +0000";
layers = (
{
anchors = (
{
name = bottom;
position = "{620, 0}";
},
{
name = center;
position = "{620, 586}";
},
{
name = top;
position = "{620, 1171}";
},
{
name = topright;
position = "{1220, 1171}";
}
);
layerId = "840BD324-B0A6-42B0-BD23-CB5E8C19394F";
paths = (
{
closed = 1;
nodes = (
"640 1171 LINE SMOOTH",
"674 1171 OFFCURVE",
"691 1149 OFFCURVE",
"691 1127 CURVE SMOOTH",
"691 1106 OFFCURVE",
"674 1085 OFFCURVE",
"641 1085 CURVE SMOOTH",
"489 1085 LINE",
"489 86 LINE",
"946 86 LINE",
"968 88 OFFCURVE",
"984 92 OFFCURVE",
"987 123 CURVE SMOOTH",
"1021 399 LINE SMOOTH",
"1025 428 OFFCURVE",
"1048 442 OFFCURVE",
"1071 442 CURVE SMOOTH",
"1097 442 OFFCURVE",
"1122 425 OFFCURVE",
"1122 393 CURVE SMOOTH",
"1122 387 LINE",
"1092 66 LINE",
"1087 29 OFFCURVE",
"1063 0 OFFCURVE",
"1020 0 CURVE SMOOTH",
"125 0 LINE SMOOTH",
"91 0 OFFCURVE",
"74 21 OFFCURVE",
"74 43 CURVE SMOOTH",
"74 64 OFFCURVE",
"91 86 OFFCURVE",
"124 86 CURVE SMOOTH",
"393 86 LINE",
"393 1085 LINE",
"166 1085 LINE SMOOTH",
"133 1085 OFFCURVE",
"117 1106 OFFCURVE",
"117 1127 CURVE SMOOTH",
"117 1149 OFFCURVE",
"134 1171 OFFCURVE",
"167 1171 CURVE SMOOTH"
);
}
);
width = 1240;
}
);
unicode = 004C;
},
{
glyphname = LJ;
lastChange = "2017-06-06 00:41:35 +0000";
layers = (
{
layerId = "840BD324-B0A6-42B0-BD23-CB5E8C19394F";
paths = (
{
closed = 1;
nodes = (
"1154 367 LINE SMOOTH",
"1154 82 OFFCURVE",
"1058 -13 OFFCURVE",
"914 -13 CURVE SMOOTH",
"773 -13 OFFCURVE",
"677 87 OFFCURVE",
"677 251 CURVE SMOOTH",
"677 273 LINE SMOOTH",
"677 312 OFFCURVE",
"702 328 OFFCURVE",
"726 328 CURVE SMOOTH",
"750 328 OFFCURVE",
"773 313 OFFCURVE",
"773 273 CURVE SMOOTH",
"773 250 LINE SMOOTH",
"773 143 OFFCURVE",
"836 73 OFFCURVE",
"914 73 CURVE SMOOTH",
"1000 73 OFFCURVE",
"1053 149 OFFCURVE",
"1053 364 CURVE SMOOTH",
"1053 1085 LINE",
"778 1085 LINE SMOOTH",
"746 1085 OFFCURVE",
"730 1106 OFFCURVE",
"730 1127 CURVE SMOOTH",
"730 1149 OFFCURVE",
"746 1171 OFFCURVE",
"779 1171 CURVE SMOOTH",
"1224 1171 LINE SMOOTH",
"1257 1171 OFFCURVE",
"1274 1150 OFFCURVE",
"1274 1128 CURVE SMOOTH",
"1274 1107 OFFCURVE",
"1258 1085 OFFCURVE",
"1225 1085 CURVE SMOOTH",
"1154 1085 LINE"
);
},
{
closed = 1;
nodes = (
"335 1171 LINE SMOOTH",
"369 1171 OFFCURVE",
"386 1149 OFFCURVE",
"386 1127 CURVE SMOOTH",
"386 1106 OFFCURVE",
"369 1085 OFFCURVE",
"336 1085 CURVE SMOOTH",
"194 1085 LINE",
"194 86 LINE",
"436 86 LINE",
"458 88 OFFCURVE",
"473 92 OFFCURVE",
"477 123 CURVE SMOOTH",
"511 399 LINE SMOOTH",
"515 428 OFFCURVE",
"532 442 OFFCURVE",
"555 442 CURVE SMOOTH",
"581 442 OFFCURVE",
"602 425 OFFCURVE",
"602 393 CURVE SMOOTH",
"602 387 LINE",
"572 66 LINE",
"567 29 OFFCURVE",
"543 0 OFFCURVE",
"500 0 CURVE SMOOTH",
"64 0 LINE SMOOTH",
"30 0 OFFCURVE",
"13 21 OFFCURVE",
"13 43 CURVE SMOOTH",
"13 64 OFFCURVE",
"30 86 OFFCURVE",
"63 86 CURVE SMOOTH",
"98 86 LINE",
"98 1085 LINE",
"55 1085 LINE SMOOTH",
"22 1085 OFFCURVE",
"6 1106 OFFCURVE",
"6 1127 CURVE SMOOTH",
"6 1149 OFFCURVE",
"23 1171 OFFCURVE",
"56 1171 CURVE SMOOTH"
);
}
);
width = 1240;
}
);
unicode = 01C7;
},
{
glyphname = Lj;
lastChange = "2017-06-05 23:20:09 +0000";
layers = (
{
layerId = "840BD324-B0A6-42B0-BD23-CB5E8C19394F";
paths = (
{
closed = 1;
nodes = (
"464 1171 LINE SMOOTH",
"498 1171 OFFCURVE",
"515 1149 OFFCURVE",
"515 1127 CURVE SMOOTH",
"515 1106 OFFCURVE",
"498 1085 OFFCURVE",
"465 1085 CURVE SMOOTH",
"353 1085 LINE",
"353 86 LINE",
"655 86 LINE",
"677 88 OFFCURVE",
"692 92 OFFCURVE",
"696 123 CURVE SMOOTH",
"730 399 LINE SMOOTH",
"734 428 OFFCURVE",
"752 442 OFFCURVE",
"775 442 CURVE SMOOTH",
"801 442 OFFCURVE",
"821 425 OFFCURVE",
"821 393 CURVE SMOOTH",
"821 387 LINE",
"791 66 LINE",
"786 29 OFFCURVE",
"762 0 OFFCURVE",
"719 0 CURVE SMOOTH",
"113 0 LINE SMOOTH",
"79 0 OFFCURVE",
"62 21 OFFCURVE",
"62 43 CURVE SMOOTH",
"62 64 OFFCURVE",
"79 86 OFFCURVE",
"112 86 CURVE SMOOTH",
"257 86 LINE",
"257 1085 LINE",
"154 1085 LINE SMOOTH",
"121 1085 OFFCURVE",
"105 1106 OFFCURVE",
"105 1127 CURVE SMOOTH",
"105 1149 OFFCURVE",
"122 1171 OFFCURVE",
"155 1171 CURVE SMOOTH"
);
},
{
closed = 1;
nodes = (
"1116 -198 OFFCURVE",
"973 -309 OFFCURVE",
"728 -309 CURVE SMOOTH",
"695 -309 OFFCURVE",
"677 -287 OFFCURVE",
"677 -265 CURVE SMOOTH",
"677 -243 OFFCURVE",
"696 -220 OFFCURVE",
"735 -220 CURVE SMOOTH",
"910 -220 OFFCURVE",
"1020 -155 OFFCURVE",
"1020 50 CURVE SMOOTH",
"1020 730 LINE",
"754 702 LINE SMOOTH",
"725 699 OFFCURVE",
"710 724 OFFCURVE",
"710 745 CURVE SMOOTH",
"710 765 OFFCURVE",
"724 782 OFFCURVE",
"750 784 CURVE SMOOTH",
"1080 814 LINE SMOOTH",
"1100 816 OFFCURVE",
"1116 806 OFFCURVE",
"1116 785 CURVE SMOOTH",
"1116 50 LINE SMOOTH"
);
},
{
closed = 1;
nodes = (
"931 1130 OFFCURVE",
"971 1171 OFFCURVE",
"1022 1171 CURVE SMOOTH",
"1072 1171 OFFCURVE",
"1112 1130 OFFCURVE",
"1112 1080 CURVE SMOOTH",
"1112 1029 OFFCURVE",
"1072 990 OFFCURVE",
"1022 990 CURVE SMOOTH",
"971 990 OFFCURVE",
"931 1029 OFFCURVE",
"931 1080 CURVE SMOOTH"
);
}
);
width = 1240;
}
);
unicode = 01C8;
},
{
glyphname = Lslash;
lastChange = "2016-08-10 13:30:31 +0000";
layers = (
{
components = (
{
name = L;
}
);
layerId = "840BD324-B0A6-42B0-BD23-CB5E8C19394F";
paths = (
{
closed = 1;
nodes = (
"777 768 CURVE SMOOTH",
"802 768 OFFCURVE",
"818 750 OFFCURVE",
"818 722 CURVE SMOOTH",
"818 703 OFFCURVE",
"806 692 OFFCURVE",
"780 685 CURVE SMOOTH",
"245 551 LINE SMOOTH",
"237 549 OFFCURVE",
"229 548 OFFCURVE",
"223 548 CURVE SMOOTH",
"198 548 OFFCURVE",
"183 566 OFFCURVE",
"183 594 CURVE SMOOTH",
"183 613 OFFCURVE",
"196 627 OFFCURVE",
"223 634 CURVE SMOOTH",
"758 765 LINE SMOOTH",
"765 767 OFFCURVE",
"771 768 OFFCURVE"
);
}
);
width = 1240;
}
);
unicode = 0141;
},
{
glyphname = M;
lastChange = "2017-06-03 22:14:13 +0000";
layers = (
{
anchors = (
{
name = bottom;
position = "{620, 0}";
},
{
name = top;
position = "{620, 1171}";
}
);
layerId = "840BD324-B0A6-42B0-BD23-CB5E8C19394F";
paths = (
{
closed = 1;
nodes = (
"817 0 LINE SMOOTH",
"783 0 OFFCURVE",
"766 22 OFFCURVE",
"766 44 CURVE SMOOTH",
"766 65 OFFCURVE",
"782 86 OFFCURVE",
"815 86 CURVE SMOOTH",
"951 86 LINE",
"951 979 LINE",
"684 385 LINE SMOOTH",
"670 353 OFFCURVE",
"650 342 OFFCURVE",
"625 342 CURVE SMOOTH",
"601 342 OFFCURVE",
"581 355 OFFCURVE",
"567 385 CURVE SMOOTH",
"295 978 LINE",
"295 86 LINE",
"418 86 LINE SMOOTH",
"452 86 OFFCURVE",
"468 65 OFFCURVE",
"468 44 CURVE SMOOTH",
"468 22 OFFCURVE",
"451 0 OFFCURVE",
"417 0 CURVE SMOOTH",
"70 0 LINE SMOOTH",
"37 0 OFFCURVE",
"20 21 OFFCURVE",
"20 43 CURVE SMOOTH",
"20 64 OFFCURVE",
"36 86 OFFCURVE",
"69 86 CURVE SMOOTH",
"203 86 LINE",
"203 1085 LINE",
"83 1085 LINE SMOOTH",
"50 1085 OFFCURVE",
"34 1106 OFFCURVE",
"34 1127 CURVE SMOOTH",
"34 1149 OFFCURVE",
"51 1171 OFFCURVE",
"84 1171 CURVE SMOOTH",
"272 1171 LINE SMOOTH",
"296 1171 OFFCURVE",
"310 1154 OFFCURVE",
"318 1136 CURVE SMOOTH",
"630 470 LINE",
"929 1141 LINE SMOOTH",
"937 1158 OFFCURVE",
"952 1171 OFFCURVE",
"974 1171 CURVE SMOOTH",
"1156 1171 LINE SMOOTH",
"1190 1171 OFFCURVE",
"1207 1149 OFFCURVE",
"1207 1127 CURVE SMOOTH",
"1207 1106 OFFCURVE",
"1190 1085 OFFCURVE",
"1157 1085 CURVE SMOOTH",
"1044 1085 LINE",
"1044 86 LINE",
"1172 86 LINE SMOOTH",
"1204 86 OFFCURVE",
"1220 65 OFFCURVE",
"1220 44 CURVE SMOOTH",
"1220 22 OFFCURVE",
"1203 0 OFFCURVE",
"1170 0 CURVE SMOOTH"
);
}
);
width = 1240;
}
);
unicode = 004D;
},
{
glyphname = N;
lastChange = "2017-06-03 22:14:17 +0000";
layers = (
{
anchors = (
{
name = bottom;
position = "{620, 0}";
},
{
name = top;
position = "{620, 1171}";
}
);
layerId = "840BD324-B0A6-42B0-BD23-CB5E8C19394F";
paths = (
{
closed = 1;
nodes = (
"119 1085 LINE SMOOTH",
"86 1085 OFFCURVE",
"70 1106 OFFCURVE",
"70 1127 CURVE SMOOTH",
"70 1149 OFFCURVE",
"87 1171 OFFCURVE",
"120 1171 CURVE SMOOTH",
"367 1171 LINE SMOOTH",
"389 1171 OFFCURVE",
"398 1163 OFFCURVE",
"407 1147 CURVE SMOOTH",
"934 181 LINE",
"933 1085 LINE",
"784 1085 LINE SMOOTH",
"751 1085 OFFCURVE",
"735 1106 OFFCURVE",
"735 1127 CURVE SMOOTH",
"735 1149 OFFCURVE",
"752 1171 OFFCURVE",
"786 1171 CURVE SMOOTH",
"1125 1171 LINE SMOOTH",
"1158 1171 OFFCURVE",
"1175 1149 OFFCURVE",
"1175 1127 CURVE SMOOTH",
"1175 1106 OFFCURVE",
"1159 1085 OFFCURVE",
"1127 1085 CURVE SMOOTH",
"1027 1085 LINE",
"1027 47 LINE SMOOTH",
"1027 4 OFFCURVE",
"1005 -16 OFFCURVE",
"979 -16 CURVE SMOOTH",
"958 -16 OFFCURVE",
"938 -3 OFFCURVE",
"924 22 CURVE SMOOTH",
"361 1042 LINE",
"361 86 LINE",
"499 86 LINE SMOOTH",
"532 86 OFFCURVE",
"548 64 OFFCURVE",
"548 43 CURVE SMOOTH",
"548 21 OFFCURVE",
"531 0 OFFCURVE",
"498 0 CURVE SMOOTH",
"150 0 LINE SMOOTH",
"117 0 OFFCURVE",
"100 21 OFFCURVE",
"100 43 CURVE SMOOTH",
"100 64 OFFCURVE",
"116 86 OFFCURVE",
"149 86 CURVE SMOOTH",
"267 86 LINE",
"267 1085 LINE"
);
}
);
width = 1240;
}
);
unicode = 004E;
},
{
glyphname = NJ;
lastChange = "2017-06-06 00:43:01 +0000";
layers = (
{
layerId = "840BD324-B0A6-42B0-BD23-CB5E8C19394F";
paths = (
{
closed = 1;
nodes = (
"79 1085 LINE SMOOTH",
"46 1085 OFFCURVE",
"30 1106 OFFCURVE",
"30 1127 CURVE SMOOTH",
"30 1149 OFFCURVE",
"47 1171 OFFCURVE",
"80 1171 CURVE SMOOTH",
"253 1171 LINE SMOOTH",
"275 1171 OFFCURVE",
"287 1164 OFFCURVE",
"293 1147 CURVE SMOOTH",
"583 282 LINE",
"583 1085 LINE",
"504 1085 LINE SMOOTH",
"471 1085 OFFCURVE",
"455 1106 OFFCURVE",
"455 1127 CURVE SMOOTH",
"455 1149 OFFCURVE",
"472 1171 OFFCURVE",
"506 1171 CURVE SMOOTH",
"1224 1171 LINE SMOOTH",
"1257 1171 OFFCURVE",
"1274 1150 OFFCURVE",
"1274 1128 CURVE SMOOTH",
"1274 1107 OFFCURVE",
"1258 1085 OFFCURVE",
"1225 1085 CURVE SMOOTH",
"1151 1085 LINE",
"1151 277 LINE SMOOTH",
"1151 68 OFFCURVE",
"1085 -14 OFFCURVE",
"964 -14 CURVE SMOOTH",
"856 -14 OFFCURVE",
"786 68 OFFCURVE",
"786 181 CURVE SMOOTH",
"786 233 LINE SMOOTH",
"786 262 OFFCURVE",
"810 283 OFFCURVE",
"834 283 CURVE SMOOTH",
"858 283 OFFCURVE",
"879 263 OFFCURVE",
"879 233 CURVE SMOOTH",
"879 180 LINE SMOOTH",
"879 113 OFFCURVE",
"913 70 OFFCURVE",
"964 70 CURVE SMOOTH",
"1025 70 OFFCURVE",
"1058 125 OFFCURVE",
"1058 269 CURVE SMOOTH",
"1058 1085 LINE",
"672 1085 LINE",
"672 47 LINE SMOOTH",
"672 4 OFFCURVE",
"656 -16 OFFCURVE",
"630 -16 CURVE SMOOTH",
"609 -16 OFFCURVE",
"593 -3 OFFCURVE",
"584 22 CURVE SMOOTH",
"225 1064 LINE",
"225 86 LINE",
"299 86 LINE SMOOTH",
"332 86 OFFCURVE",
"348 64 OFFCURVE",
"348 43 CURVE SMOOTH",
"348 21 OFFCURVE",
"331 0 OFFCURVE",
"298 0 CURVE SMOOTH",
"100 0 LINE SMOOTH",
"67 0 OFFCURVE",
"50 21 OFFCURVE",
"50 43 CURVE SMOOTH",
"50 64 OFFCURVE",
"66 86 OFFCURVE",
"99 86 CURVE SMOOTH",
"135 86 LINE",
"135 1085 LINE"
);
}
);
width = 1240;
}
);
unicode = 01CA;
},
{
glyphname = Eng;
lastChange = "2016-08-10 13:30:31 +0000";
layers = (
{
layerId = "840BD324-B0A6-42B0-BD23-CB5E8C19394F";
paths = (
{
closed = 1;
nodes = (
"629 -401 CURVE SMOOTH",
"603 -401 OFFCURVE",
"589 -380 OFFCURVE",
"589 -359 CURVE SMOOTH",
"589 -339 OFFCURVE",
"602 -320 OFFCURVE",
"630 -320 CURVE SMOOTH",
"782 -320 OFFCURVE",
"943 -211 OFFCURVE",
"943 -32 CURVE SMOOTH",
"943 52 LINE",
"875 177 OFFCURVE",
"506 844 OFFCURVE",
"381 1084 CURVE",
"381 86 LINE",
"519 86 LINE SMOOTH",
"552 86 OFFCURVE",
"568 64 OFFCURVE",
"568 43 CURVE SMOOTH",
"568 21 OFFCURVE",
"551 0 OFFCURVE",
"518 0 CURVE SMOOTH",
"160 0 LINE SMOOTH",
"127 0 OFFCURVE",
"110 21 OFFCURVE",
"110 43 CURVE SMOOTH",
"110 64 OFFCURVE",
"126 86 OFFCURVE",
"159 86 CURVE SMOOTH",
"285 86 LINE",
"285 1085 LINE",
"129 1085 LINE SMOOTH",
"96 1085 OFFCURVE",
"80 1106 OFFCURVE",
"80 1127 CURVE SMOOTH",
"80 1149 OFFCURVE",
"97 1171 OFFCURVE",
"130 1171 CURVE SMOOTH",
"407 1171 LINE SMOOTH",
"429 1171 OFFCURVE",
"439 1163 OFFCURVE",
"447 1147 CURVE SMOOTH",
"943 224 LINE",
"943 1085 LINE",
"794 1085 LINE SMOOTH",
"761 1085 OFFCURVE",
"745 1106 OFFCURVE",
"745 1127 CURVE SMOOTH",
"745 1149 OFFCURVE",
"762 1171 OFFCURVE",
"796 1171 CURVE SMOOTH",
"1133 1171 LINE SMOOTH",
"1166 1171 OFFCURVE",
"1183 1149 OFFCURVE",
"1183 1127 CURVE SMOOTH",
"1183 1106 OFFCURVE",
"1167 1085 OFFCURVE",
"1135 1085 CURVE SMOOTH",
"1039 1085 LINE",
"1039 -19 LINE SMOOTH",
"1039 -252 OFFCURVE",
"841 -401 OFFCURVE"
);
}
);
width = 1240;
}
);
unicode = 014A;
},
{
glyphname = Nj;
lastChange = "2017-06-06 00:10:19 +0000";
layers = (
{
layerId = "840BD324-B0A6-42B0-BD23-CB5E8C19394F";
paths = (
{
closed = 1;
nodes = (
"1136 -178 OFFCURVE",
"973 -309 OFFCURVE",
"748 -309 CURVE SMOOTH",
"715 -309 OFFCURVE",
"697 -287 OFFCURVE",
"697 -265 CURVE SMOOTH",
"697 -243 OFFCURVE",
"716 -220 OFFCURVE",
"755 -220 CURVE SMOOTH",
"910 -220 OFFCURVE",
"1040 -135 OFFCURVE",
"1040 40 CURVE SMOOTH",
"1040 727 LINE",
"854 712 LINE SMOOTH",
"825 710 OFFCURVE",
"810 734 OFFCURVE",
"810 755 CURVE SMOOTH",
"810 775 OFFCURVE",
"824 792 OFFCURVE",
"850 794 CURVE SMOOTH",
"1100 814 LINE SMOOTH",
"1120 816 OFFCURVE",
"1136 806 OFFCURVE",
"1136 785 CURVE SMOOTH",
"1136 37 LINE SMOOTH"
);
},
{
closed = 1;
nodes = (
"961 1130 OFFCURVE",
"1001 1171 OFFCURVE",
"1052 1171 CURVE SMOOTH",
"1102 1171 OFFCURVE",
"1142 1130 OFFCURVE",
"1142 1080 CURVE SMOOTH",
"1142 1029 OFFCURVE",
"1102 990 OFFCURVE",
"1052 990 CURVE SMOOTH",
"1001 990 OFFCURVE",
"961 1029 OFFCURVE",
"961 1080 CURVE SMOOTH"
);
},
{
closed = 1;
nodes = (
"730 47 LINE SMOOTH",
"730 4 OFFCURVE",
"716 -16 OFFCURVE",
"690 -16 CURVE SMOOTH",
"669 -16 OFFCURVE",
"653 -3 OFFCURVE",
"644 22 CURVE SMOOTH",
"255 1064 LINE",
"255 86 LINE",
"329 86 LINE SMOOTH",
"362 86 OFFCURVE",
"378 64 OFFCURVE",
"378 43 CURVE SMOOTH",
"378 21 OFFCURVE",
"361 0 OFFCURVE",
"328 0 CURVE SMOOTH",
"110 0 LINE SMOOTH",
"77 0 OFFCURVE",
"60 21 OFFCURVE",
"60 43 CURVE SMOOTH",
"60 64 OFFCURVE",
"76 86 OFFCURVE",
"109 86 CURVE SMOOTH",
"165 86 LINE",
"165 1085 LINE",
"89 1085 LINE SMOOTH",
"56 1085 OFFCURVE",
"40 1106 OFFCURVE",
"40 1127 CURVE SMOOTH",
"40 1149 OFFCURVE",
"57 1171 OFFCURVE",
"90 1171 CURVE SMOOTH",
"283 1171 LINE SMOOTH",
"305 1171 OFFCURVE",
"317 1164 OFFCURVE",
"323 1147 CURVE SMOOTH",
"643 282 LINE",
"643 1085 LINE",
"564 1085 LINE SMOOTH",
"531 1085 OFFCURVE",
"515 1106 OFFCURVE",
"515 1127 CURVE SMOOTH",
"515 1149 OFFCURVE",
"532 1171 OFFCURVE",
"566 1171 CURVE SMOOTH",
"793 1171 LINE SMOOTH",
"826 1171 OFFCURVE",
"843 1149 OFFCURVE",
"843 1127 CURVE SMOOTH",
"843 1106 OFFCURVE",
"827 1085 OFFCURVE",
"795 1085 CURVE SMOOTH",
"730 1085 LINE"
);
}
);
width = 1240;
}
);
unicode = 01CB;
},
{
glyphname = O;
lastChange = "2017-06-06 00:15:12 +0000";
layers = (
{
anchors = (
{
name = bottom;
position = "{620, 0}";
},
{
name = center;
position = "{620, 586}";
},
{
name = ogonek;
position = "{1116, 10}";
},
{
name = top;
position = "{620, 1171}";
},
{
name = topleft;
position = "{20, 1171}";
},
{
name = topright;
position = "{1220, 1171}";
}
);
layerId = "840BD324-B0A6-42B0-BD23-CB5E8C19394F";
paths = (
{
closed = 1;
nodes = (
"961 -17 OFFCURVE",
"1135 291 OFFCURVE",
"1135 582 CURVE SMOOTH",
"1135 883 OFFCURVE",
"961 1187 OFFCURVE",
"620 1187 CURVE SMOOTH",
"279 1187 OFFCURVE",
"105 883 OFFCURVE",
"105 582 CURVE SMOOTH",
"105 291 OFFCURVE",
"279 -17 OFFCURVE",
"620 -17 CURVE SMOOTH"
);
},
{
closed = 1;
nodes = (
"340 69 OFFCURVE",
"201 336 OFFCURVE",
"201 582 CURVE SMOOTH",
"201 842 OFFCURVE",
"344 1101 OFFCURVE",
"620 1101 CURVE SMOOTH",
"896 1101 OFFCURVE",
"1039 842 OFFCURVE",
"1039 582 CURVE SMOOTH",
"1039 336 OFFCURVE",
"900 69 OFFCURVE",
"620 69 CURVE SMOOTH"
);
}
);
width = 1240;
}
);
unicode = 004F;
},
{
glyphname = Oslash;
lastChange = "2017-06-06 23:50:18 +0000";
layers = (
{
components = (
{
name = O;
}
);
layerId = "840BD324-B0A6-42B0-BD23-CB5E8C19394F";
paths = (
{
closed = 1;
nodes = (
"277 -192 OFFCURVE",
"288 -187 OFFCURVE",
"295 -172 CURVE SMOOTH",
"1033 1274 LINE SMOOTH",
"1036 1279 OFFCURVE",
"1037 1284 OFFCURVE",
"1037 1289 CURVE SMOOTH",
"1037 1308 OFFCURVE",
"1017 1321 OFFCURVE",
"999 1321 CURVE SMOOTH",
"988 1321 OFFCURVE",
"978 1316 OFFCURVE",
"972 1305 CURVE SMOOTH",
"229 -146 LINE SMOOTH",
"227 -150 OFFCURVE",
"226 -154 OFFCURVE",
"226 -158 CURVE SMOOTH",
"226 -176 OFFCURVE",
"246 -192 OFFCURVE",
"265 -192 CURVE SMOOTH"
);
}
);
width = 1240;
}
);
unicode = 00D8;
},
{
glyphname = OE;
lastChange = "2016-08-10 13:30:31 +0000";
layers = (
{
layerId = "840BD324-B0A6-42B0-BD23-CB5E8C19394F";
paths = (
{
closed = 1;
nodes = (
"924 437 LINE SMOOTH",
"924 402 OFFCURVE",
"905 386 OFFCURVE",
"886 386 CURVE SMOOTH",
"867 386 OFFCURVE",
"848 401 OFFCURVE",
"846 429 CURVE SMOOTH",
"833 577 LINE",
"677 577 LINE",
"677 85 LINE",
"1012 85 LINE",
"1028 336 LINE SMOOTH",
"1029 360 OFFCURVE",
"1051 375 OFFCURVE",
"1072 375 CURVE SMOOTH",
"1093 375 OFFCURVE",
"1114 359 OFFCURVE",
"1114 323 CURVE SMOOTH",
"1114 53 LINE SMOOTH",
"1114 19 OFFCURVE",
"1091 0 OFFCURVE",
"1058 0 CURVE SMOOTH",
"564 0 LINE SMOOTH",
"563 0 LINE SMOOTH",
"340 0 OFFCURVE",
"118 200 OFFCURVE",
"118 582 CURVE SMOOTH",
"118 965 OFFCURVE",
"342 1172 OFFCURVE",
"566 1172 CURVE SMOOTH",
"726 1172 OFFCURVE",
"886 1171 OFFCURVE",
"1046 1171 CURVE SMOOTH",
"1079 1171 OFFCURVE",
"1102 1151 OFFCURVE",
"1102 1117 CURVE SMOOTH",
"1102 847 LINE SMOOTH",
"1102 817 OFFCURVE",
"1082 803 OFFCURVE",
"1062 803 CURVE SMOOTH",
"1042 803 OFFCURVE",
"1021 816 OFFCURVE",
"1020 841 CURVE SMOOTH",
"1006 1084 LINE",
"677 1084 LINE",
"677 654 LINE",
"833 654 LINE",
"846 787 LINE SMOOTH",
"849 817 OFFCURVE",
"868 832 OFFCURVE",
"886 832 CURVE SMOOTH",
"905 832 OFFCURVE",
"924 816 OFFCURVE",
"924 779 CURVE SMOOTH"
);
},
{
closed = 1;
nodes = (
"214 582 CURVE SMOOTH",
"214 260 OFFCURVE",
"387 82 OFFCURVE",
"561 82 CURVE SMOOTH",
"579 82 LINE",
"579 1084 LINE",
"564 1084 LINE SMOOTH",
"389 1084 OFFCURVE",
"214 913 OFFCURVE"
);
}
);
width = 1240;
}
);
unicode = 0152;
},
{
glyphname = P;
lastChange = "2017-06-03 22:14:28 +0000";
layers = (
{
anchors = (
{
name = bottom;
position = "{620, 0}";
},
{
name = top;
position = "{620, 1171}";
}
);
layerId = "840BD324-B0A6-42B0-BD23-CB5E8C19394F";
paths = (
{
closed = 1;
nodes = (
"1122 806 CURVE SMOOTH",
"1122 560 OFFCURVE",
"927 441 OFFCURVE",
"584 441 CURVE SMOOTH",
"474 441 LINE",
"474 86 LINE",
"803 86 LINE SMOOTH",
"836 86 OFFCURVE",
"852 64 OFFCURVE",
"852 43 CURVE SMOOTH",
"852 21 OFFCURVE",
"835 0 OFFCURVE",
"802 0 CURVE SMOOTH",
"206 0 LINE SMOOTH",
"172 0 OFFCURVE",
"155 21 OFFCURVE",
"155 43 CURVE SMOOTH",
"155 64 OFFCURVE",
"172 86 OFFCURVE",
"205 86 CURVE SMOOTH",
"378 86 LINE",
"378 1085 LINE",
"219 1085 LINE SMOOTH",
"186 1085 OFFCURVE",
"170 1106 OFFCURVE",
"170 1127 CURVE SMOOTH",
"170 1149 OFFCURVE",
"187 1171 OFFCURVE",
"220 1171 CURVE SMOOTH",
"584 1171 LINE SMOOTH",
"914 1171 OFFCURVE",
"1122 1054 OFFCURVE"
);
},
{
closed = 1;
nodes = (
"1026 802 CURVE SMOOTH",
"1026 1015 OFFCURVE",
"824 1085 OFFCURVE",
"604 1085 CURVE SMOOTH",
"474 1085 LINE",
"474 527 LINE",
"610 527 LINE SMOOTH",
"834 527 OFFCURVE",
"1026 606 OFFCURVE"
);
}
);
width = 1240;
}
);
unicode = 0050;
},
{
glyphname = Thorn;
lastChange = "2016-08-10 13:30:31 +0000";
layers = (
{
layerId = "840BD324-B0A6-42B0-BD23-CB5E8C19394F";
paths = (
{
closed = 1;
nodes = (
"971 626 CURVE SMOOTH",
"971 802 OFFCURVE",
"856 851 OFFCURVE",
"429 851 CURVE",
"429 392 LINE",
"830 392 OFFCURVE",
"971 433 OFFCURVE"
);
},
{
closed = 1;
nodes = (
"1067 619 CURVE SMOOTH",
"1067 321 OFFCURVE",
"724 318 OFFCURVE",
"429 318 CURVE",
"429 82 LINE",
"656 82 LINE SMOOTH",
"689 82 OFFCURVE",
"695 61 OFFCURVE",
"695 41 CURVE SMOOTH",
"695 20 OFFCURVE",
"688 0 OFFCURVE",
"655 0 CURVE SMOOTH",
"109 0 LINE SMOOTH",
"75 0 OFFCURVE",
"68 20 OFFCURVE",
"68 41 CURVE SMOOTH",
"68 61 OFFCURVE",
"75 82 OFFCURVE",
"108 82 CURVE SMOOTH",
"333 82 LINE",
"333 1085 LINE",
"121 1085 LINE SMOOTH",
"88 1085 OFFCURVE",
"82 1106 OFFCURVE",
"82 1127 CURVE SMOOTH",
"82 1149 OFFCURVE",
"89 1171 OFFCURVE",
"123 1171 CURVE SMOOTH",
"600 1171 LINE SMOOTH",
"627 1171 OFFCURVE",
"631 1151 OFFCURVE",
"631 1130 CURVE SMOOTH",
"631 1108 OFFCURVE",
"625 1085 OFFCURVE",
"592 1085 CURVE SMOOTH",
"429 1085 LINE",
"429 928 LINE",
"743 928 OFFCURVE",
"1067 927 OFFCURVE"
);
}
);
width = 1240;
}
);
unicode = 00DE;
},
{
glyphname = Q;
lastChange = "2017-06-03 22:14:37 +0000";
layers = (
{
anchors = (
{
name = bottom;
position = "{620, 0}";
},
{
name = top;
position = "{620, 1171}";
}
);
layerId = "840BD324-B0A6-42B0-BD23-CB5E8C19394F";
paths = (
{
closed = 1;
nodes = (
"1036 842 OFFCURVE",
"896 1101 OFFCURVE",
"620 1101 CURVE SMOOTH",
"344 1101 OFFCURVE",
"204 842 OFFCURVE",
"204 582 CURVE SMOOTH",
"204 326 OFFCURVE",
"340 69 OFFCURVE",
"620 69 CURVE SMOOTH",
"900 69 OFFCURVE",
"1036 326 OFFCURVE",
"1036 582 CURVE SMOOTH"
);
},
{
closed = 1;
nodes = (
"678 -67 OFFCURVE",
"750 -150 OFFCURVE",
"846 -152 CURVE SMOOTH",
"929 -154 OFFCURVE",
"992 -122 OFFCURVE",
"1038 -85 CURVE SMOOTH",
"1048 -77 OFFCURVE",
"1058 -76 OFFCURVE",
"1067 -76 CURVE SMOOTH",
"1089 -76 OFFCURVE",
"1107 -98 OFFCURVE",
"1107 -120 CURVE SMOOTH",
"1107 -134 OFFCURVE",
"1099 -147 OFFCURVE",
"1084 -159 CURVE SMOOTH",
"1029 -203 OFFCURVE",
"951 -236 OFFCURVE",
"864 -236 CURVE SMOOTH",
"698 -236 OFFCURVE",
"628 -183 OFFCURVE",
"536 5 CURVE",
"666 -7 LINE"
);
},
{
closed = 1;
nodes = (
"108 226 OFFCURVE",
"108 582 CURVE SMOOTH",
"108 883 OFFCURVE",
"279 1187 OFFCURVE",
"620 1187 CURVE SMOOTH",
"961 1187 OFFCURVE",
"1132 883 OFFCURVE",
"1132 582 CURVE SMOOTH",
"1132 286 OFFCURVE",
"967 -15 OFFCURVE",
"620 -17 CURVE SMOOTH",
"280 -19 OFFCURVE"
);
}
);
width = 1240;
}
);
unicode = 0051;
},
{
glyphname = R;
lastChange = "2017-06-08 02:46:52 +0000";
layers = (
{
anchors = (
{
name = bottom;
position = "{620, 0}";
},
{
name = top;
position = "{620, 1171}";
}
);
layerId = "840BD324-B0A6-42B0-BD23-CB5E8C19394F";
paths = (
{
closed = 1;
nodes = (
"975 86 LINE",
"1069 86 LINE SMOOTH",
"1116 86 OFFCURVE",
"1130 62 OFFCURVE",
"1130 44 CURVE SMOOTH",
"1130 21 OFFCURVE",
"1114 0 OFFCURVE",
"1070 0 CURVE SMOOTH",
"950 0 LINE SMOOTH",
"924 0 OFFCURVE",
"906 27 OFFCURVE",
"895 48 CURVE SMOOTH",
"639 536 LINE",
"721 558 LINE"
);
},
{
closed = 1;
nodes = (
"847 482 OFFCURVE",
"584 482 CURVE SMOOTH",
"419 482 LINE",
"419 86 LINE",
"589 86 LINE SMOOTH",
"622 86 OFFCURVE",
"638 62 OFFCURVE",
"638 43 CURVE SMOOTH",
"638 21 OFFCURVE",
"622 0 OFFCURVE",
"588 0 CURVE SMOOTH",
"189 0 LINE SMOOTH",
"155 0 OFFCURVE",
"138 21 OFFCURVE",
"138 43 CURVE SMOOTH",
"138 62 OFFCURVE",
"155 86 OFFCURVE",
"188 86 CURVE SMOOTH",
"323 86 LINE",
"323 1085 LINE",
"216 1085 LINE SMOOTH",
"183 1085 OFFCURVE",
"166 1106 OFFCURVE",
"166 1127 CURVE SMOOTH",
"166 1149 OFFCURVE",
"183 1171 OFFCURVE",
"217 1171 CURVE SMOOTH",
"537 1171 LINE SMOOTH",
"847 1171 OFFCURVE",
"1047 1074 OFFCURVE",
"1047 834 CURVE SMOOTH",
"1047 572 OFFCURVE"
);
},
{
closed = 1;
nodes = (
"419 569 LINE",
"516 569 LINE SMOOTH",
"774 569 OFFCURVE",
"951 607 OFFCURVE",
"951 827 CURVE SMOOTH",
"951 1030 OFFCURVE",
"774 1085 OFFCURVE",
"536 1085 CURVE SMOOTH",
"419 1085 LINE"
);
}
);
width = 1240;
}
);
unicode = 0052;
},
{
glyphname = S;
lastChange = "2017-06-07 00:01:22 +0000";
layers = (
{
anchors = (
{
name = bottom;
position = "{620, 0}";
},
{
name = top;
position = "{620, 1171}";
}
);
layerId = "840BD324-B0A6-42B0-BD23-CB5E8C19394F";
paths = (
{
closed = 1;
nodes = (
"290 -17 OFFCURVE",
"307 1 OFFCURVE",
"307 57 CURVE SMOOTH",
"307 67 OFFCURVE",
"308 112 OFFCURVE",
"308 123 CURVE",
"382 47 OFFCURVE",
"486 -17 OFFCURVE",
"659 -17 CURVE SMOOTH",
"861 -17 OFFCURVE",
"1027 71 OFFCURVE",
"1027 298 CURVE SMOOTH",
"1027 506 OFFCURVE",
"829 585 OFFCURVE",
"679 636 CURVE SMOOTH",
"502 697 OFFCURVE",
"323 743 OFFCURVE",
"323 916 CURVE SMOOTH",
"323 1028 OFFCURVE",
"434 1101 OFFCURVE",
"610 1101 CURVE SMOOTH",
"727 1101 OFFCURVE",
"888 1003 OFFCURVE",
"888 899 CURVE SMOOTH",
"888 858 LINE SMOOTH",
"888 827 OFFCURVE",
"910 811 OFFCURVE",
"933 811 CURVE SMOOTH",
"958 811 OFFCURVE",
"979 828 OFFCURVE",
"979 864 CURVE SMOOTH",
"979 1117 LINE SMOOTH",
"979 1169 OFFCURVE",
"964 1187 OFFCURVE",
"932 1187 CURVE SMOOTH",
"905 1187 OFFCURVE",
"888 1168 OFFCURVE",
"888 1120 CURVE SMOOTH",
"888 1108 OFFCURVE",
"887 1073 OFFCURVE",
"887 1055 CURVE",
"838 1126 OFFCURVE",
"713 1187 OFFCURVE",
"587 1187 CURVE SMOOTH",
"383 1187 OFFCURVE",
"227 1091 OFFCURVE",
"227 911 CURVE SMOOTH",
"227 693 OFFCURVE",
"441 624 OFFCURVE",
"606 564 CURVE SMOOTH",
"740 515 OFFCURVE",
"931 455 OFFCURVE",
"931 294 CURVE SMOOTH",
"931 133 OFFCURVE",
"798 69 OFFCURVE",
"662 69 CURVE SMOOTH",
"471 69 OFFCURVE",
"303 193 OFFCURVE",
"303 280 CURVE SMOOTH",
"303 369 LINE SMOOTH",
"303 402 OFFCURVE",
"281 418 OFFCURVE",
"257 418 CURVE SMOOTH",
"233 418 OFFCURVE",
"213 403 OFFCURVE",
"213 371 CURVE SMOOTH",
"213 57 LINE SMOOTH",
"213 0 OFFCURVE",
"231 -17 OFFCURVE",
"262 -17 CURVE SMOOTH"
);
}
);
width = 1240;
}
);
unicode = 0053;
},
{
glyphname = T;
lastChange = "2017-06-06 00:16:12 +0000";
layers = (
{
anchors = (
{
name = bottom;
position = "{620, 0}";
},
{
name = center;
position = "{620, 586}";
},
{
name = top;
position = "{620, 1171}";
}
);
layerId = "840BD324-B0A6-42B0-BD23-CB5E8C19394F";
paths = (
{
closed = 1;
nodes = (
"907 0 LINE SMOOTH",
"940 0 OFFCURVE",
"958 22 OFFCURVE",
"958 44 CURVE SMOOTH",
"958 65 OFFCURVE",
"941 86 OFFCURVE",
"909 86 CURVE SMOOTH",
"667 86 LINE",
"667 1085 LINE",
"999 1085 LINE",
"1029 814 LINE SMOOTH",
"1032 786 OFFCURVE",
"1052 771 OFFCURVE",
"1073 771 CURVE SMOOTH",
"1096 771 OFFCURVE",
"1121 788 OFFCURVE",
"1119 823 CURVE SMOOTH",
"1099 1117 LINE SMOOTH",
"1097 1152 OFFCURVE",
"1088 1171 OFFCURVE",
"1059 1171 CURVE SMOOTH",
"183 1171 LINE SMOOTH",
"152 1171 OFFCURVE",
"143 1153 OFFCURVE",
"141 1117 CURVE SMOOTH",
"121 823 LINE SMOOTH",
"119 788 OFFCURVE",
"146 769 OFFCURVE",
"170 769 CURVE SMOOTH",
"190 769 OFFCURVE",
"207 783 OFFCURVE",
"211 814 CURVE SMOOTH",
"243 1085 LINE",
"571 1085 LINE",
"571 86 LINE",
"329 86 LINE SMOOTH",
"296 86 OFFCURVE",
"279 65 OFFCURVE",
"279 44 CURVE SMOOTH",
"279 22 OFFCURVE",
"297 0 OFFCURVE",
"331 0 CURVE SMOOTH"
);
}
);
width = 1240;
}
);
unicode = 0054;
},
{
glyphname = Tbar;
lastChange = "2017-06-06 00:22:59 +0000";
layers = (
{
components = (
{
name = T;
}
);
layerId = "840BD324-B0A6-42B0-BD23-CB5E8C19394F";
paths = (
{
closed = 1;
nodes = (
"837 572 LINE SMOOTH",
"870 572 OFFCURVE",
"878 592 OFFCURVE",
"878 611 CURVE SMOOTH",
"878 630 OFFCURVE",
"872 648 OFFCURVE",
"839 648 CURVE SMOOTH",
"400 648 LINE SMOOTH",
"365 648 OFFCURVE",
"358 630 OFFCURVE",
"358 611 CURVE SMOOTH",
"358 592 OFFCURVE",
"367 572 OFFCURVE",
"404 572 CURVE SMOOTH"
);
}
);
width = 1240;
}
);
unicode = 0166;
},
{
glyphname = U;
lastChange = "2017-06-03 23:01:13 +0000";
layers = (
{
anchors = (
{
name = bottom;
position = "{620, 0}";
},
{
name = ogonek;
position = "{1116, 10}";
},
{
name = top;
position = "{650, 1171}";
},
{
name = topright;
position = "{1220, 1171}";
}
);
layerId = "840BD324-B0A6-42B0-BD23-CB5E8C19394F";
paths = (
{
closed = 1;
nodes = (
"625 -17 CURVE SMOOTH",
"386 -17 OFFCURVE",
"220 142 OFFCURVE",
"220 413 CURVE SMOOTH",
"220 1085 LINE",
"75 1085 LINE SMOOTH",
"42 1085 OFFCURVE",
"26 1106 OFFCURVE",
"26 1127 CURVE SMOOTH",
"26 1149 OFFCURVE",
"43 1171 OFFCURVE",
"76 1171 CURVE SMOOTH",
"477 1171 LINE SMOOTH",
"510 1171 OFFCURVE",
"527 1149 OFFCURVE",
"527 1127 CURVE SMOOTH",
"527 1106 OFFCURVE",
"511 1085 OFFCURVE",
"478 1085 CURVE SMOOTH",
"316 1085 LINE",
"316 413 LINE SMOOTH",
"316 195 OFFCURVE",
"426 69 OFFCURVE",
"625 69 CURVE SMOOTH",
"811 69 OFFCURVE",
"931 211 OFFCURVE",
"931 411 CURVE SMOOTH",
"931 1085 LINE",
"810 1085 LINE SMOOTH",
"777 1085 OFFCURVE",
"760 1106 OFFCURVE",
"760 1127 CURVE SMOOTH",
"760 1149 OFFCURVE",
"777 1171 OFFCURVE",
"811 1171 CURVE SMOOTH",
"1144 1171 LINE SMOOTH",
"1191 1171 OFFCURVE",
"1214 1149 OFFCURVE",
"1214 1127 CURVE SMOOTH",
"1214 1106 OFFCURVE",
"1191 1085 OFFCURVE",
"1145 1085 CURVE SMOOTH",
"1027 1085 LINE",
"1027 411 LINE SMOOTH",
"1027 157 OFFCURVE",
"864 -17 OFFCURVE"
);
}
);
width = 1240;
}
);
unicode = 0055;
},
{
glyphname = V;
lastChange = "2017-06-03 22:14:57 +0000";
layers = (
{
anchors = (
{
name = bottom;
position = "{620, 0}";
},
{
name = top;
position = "{620, 1171}";
}
);
layerId = "840BD324-B0A6-42B0-BD23-CB5E8C19394F";
paths = (
{
closed = 1;
nodes = (
"1131 1171 LINE SMOOTH",
"1164 1171 OFFCURVE",
"1180 1150 OFFCURVE",
"1180 1128 CURVE SMOOTH",
"1180 1107 OFFCURVE",
"1165 1085 OFFCURVE",
"1132 1085 CURVE SMOOTH",
"1046 1085 LINE",
"700 20 LINE",
"684 -16 OFFCURVE",
"672 -36 OFFCURVE",
"636 -36 CURVE SMOOTH",
"600 -36 OFFCURVE",
"583 -13 OFFCURVE",
"572 20 CURVE SMOOTH",
"210 1085 LINE",
"106 1085 LINE SMOOTH",
"74 1085 OFFCURVE",
"58 1106 OFFCURVE",
"58 1127 CURVE SMOOTH",
"58 1149 OFFCURVE",
"75 1171 OFFCURVE",
"108 1171 CURVE SMOOTH",
"448 1171 LINE SMOOTH",
"481 1171 OFFCURVE",
"498 1150 OFFCURVE",
"498 1128 CURVE SMOOTH",
"498 1107 OFFCURVE",
"482 1085 OFFCURVE",
"449 1085 CURVE SMOOTH",
"314 1085 LINE",
"641 116 LINE",
"946 1085 LINE",
"826 1085 LINE SMOOTH",
"793 1085 OFFCURVE",
"776 1107 OFFCURVE",
"776 1128 CURVE SMOOTH",
"776 1150 OFFCURVE",
"793 1171 OFFCURVE",
"827 1171 CURVE SMOOTH"
);
}
);
width = 1240;
}
);
unicode = 0056;
},
{
glyphname = W;
lastChange = "2017-06-03 23:01:37 +0000";
layers = (
{
anchors = (
{
name = bottom;
position = "{620, 0}";
},
{
name = top;
position = "{640, 1171}";
}
);
layerId = "840BD324-B0A6-42B0-BD23-CB5E8C19394F";
paths = (
{
closed = 1;
nodes = (
"867 1085 LINE SMOOTH",
"834 1085 OFFCURVE",
"817 1107 OFFCURVE",
"817 1129 CURVE SMOOTH",
"817 1150 OFFCURVE",
"833 1171 OFFCURVE",
"866 1171 CURVE SMOOTH",
"1145 1171 LINE SMOOTH",
"1178 1171 OFFCURVE",
"1195 1150 OFFCURVE",
"1195 1129 CURVE SMOOTH",
"1195 1107 OFFCURVE",
"1178 1085 OFFCURVE",
"1144 1085 CURVE SMOOTH",
"1074 1085 LINE",
"911 27 LINE SMOOTH",
"906 -3 OFFCURVE",
"883 -17 OFFCURVE",
"858 -17 CURVE SMOOTH",
"837 -17 OFFCURVE",
"813 1 OFFCURVE",
"804 35 CURVE SMOOTH",
"635 691 LINE",
"450 27 LINE SMOOTH",
"442 -3 OFFCURVE",
"420 -17 OFFCURVE",
"398 -17 CURVE SMOOTH",
"374 -17 OFFCURVE",
"349 1 OFFCURVE",
"345 35 CURVE",
"179 1085 LINE",
"95 1085 LINE SMOOTH",
"62 1085 OFFCURVE",
"45 1107 OFFCURVE",
"45 1129 CURVE SMOOTH",
"45 1150 OFFCURVE",
"61 1171 OFFCURVE",
"94 1171 CURVE SMOOTH",
"396 1171 LINE SMOOTH",
"429 1171 OFFCURVE",
"445 1150 OFFCURVE",
"445 1129 CURVE SMOOTH",
"445 1107 OFFCURVE",
"428 1085 OFFCURVE",
"394 1085 CURVE SMOOTH",
"280 1085 LINE",
"418 202 LINE",
"595 845 LINE SMOOTH",
"602 869 OFFCURVE",
"621 881 OFFCURVE",
"640 881 CURVE SMOOTH",
"659 881 OFFCURVE",
"677 869 OFFCURVE",
"683 845 CURVE SMOOTH",
"850 201 LINE",
"974 1085 LINE"
);
}
);
width = 1240;
}
);
unicode = 0057;
},
{
glyphname = X;
lastChange = "2017-06-03 22:15:02 +0000";
layers = (
{
anchors = (
{
name = bottom;
position = "{620, 0}";
},
{
name = top;
position = "{620, 1171}";
}
);
layerId = "840BD324-B0A6-42B0-BD23-CB5E8C19394F";
paths = (
{
closed = 1;
nodes = (
"242 1085 LINE",
"150 1085 LINE SMOOTH",
"117 1085 OFFCURVE",
"101 1106 OFFCURVE",
"101 1127 CURVE SMOOTH",
"101 1149 OFFCURVE",
"118 1171 OFFCURVE",
"151 1171 CURVE SMOOTH",
"497 1171 LINE SMOOTH",
"530 1171 OFFCURVE",
"547 1149 OFFCURVE",
"547 1127 CURVE SMOOTH",
"547 1106 OFFCURVE",
"531 1085 OFFCURVE",
"498 1085 CURVE SMOOTH",
"350 1085 LINE",
"626 678 LINE",
"912 1085 LINE",
"801 1085 LINE SMOOTH",
"768 1085 OFFCURVE",
"752 1106 OFFCURVE",
"752 1127 CURVE SMOOTH",
"752 1149 OFFCURVE",
"769 1171 OFFCURVE",
"802 1171 CURVE SMOOTH",
"1101 1171 LINE SMOOTH",
"1134 1171 OFFCURVE",
"1151 1149 OFFCURVE",
"1151 1127 CURVE SMOOTH",
"1151 1106 OFFCURVE",
"1135 1085 OFFCURVE",
"1102 1085 CURVE SMOOTH",
"1019 1085 LINE",
"683 599 LINE",
"571 606 LINE"
);
},
{
closed = 1;
nodes = (
"1024 86 LINE",
"1097 86 LINE SMOOTH",
"1130 86 OFFCURVE",
"1146 64 OFFCURVE",
"1146 44 CURVE SMOOTH",
"1146 23 OFFCURVE",
"1129 0 OFFCURVE",
"1095 0 CURVE SMOOTH",
"763 0 LINE SMOOTH",
"730 0 OFFCURVE",
"713 22 OFFCURVE",
"713 43 CURVE SMOOTH",
"713 67 OFFCURVE",
"729 86 OFFCURVE",
"762 86 CURVE SMOOTH",
"918 86 LINE",
"625 522 LINE",
"329 86 LINE",
"478 86 LINE SMOOTH",
"511 86 OFFCURVE",
"527 67 OFFCURVE",
"527 43 CURVE SMOOTH",
"527 22 OFFCURVE",
"510 0 OFFCURVE",
"477 0 CURVE SMOOTH",
"139 0 LINE SMOOTH",
"106 0 OFFCURVE",
"89 22 OFFCURVE",
"89 43 CURVE SMOOTH",
"89 67 OFFCURVE",
"105 86 OFFCURVE",
"138 86 CURVE SMOOTH",
"223 86 LINE",
"571 606 LINE",
"683 599 LINE"
);
}
);
width = 1240;
}
);
unicode = 0058;
},
{
glyphname = Y;
lastChange = "2017-06-03 23:02:23 +0000";
layers = (
{
anchors = (
{
name = bottom;
position = "{620, 0}";
},
{
name = top;
position = "{640, 1171}";
},
{
name = topleft;
position = "{20, 1171}";
}
);
layerId = "840BD324-B0A6-42B0-BD23-CB5E8C19394F";
paths = (
{
closed = 1;
nodes = (
"1110 1171 LINE SMOOTH",
"1144 1171 OFFCURVE",
"1161 1146 OFFCURVE",
"1161 1127 CURVE SMOOTH",
"1161 1108 OFFCURVE",
"1145 1085 OFFCURVE",
"1112 1085 CURVE SMOOTH",
"1007 1085 LINE",
"674 498 LINE",
"674 86 LINE",
"906 86 LINE SMOOTH",
"938 86 OFFCURVE",
"954 65 OFFCURVE",
"954 44 CURVE SMOOTH",
"954 22 OFFCURVE",
"937 0 OFFCURVE",
"904 0 CURVE SMOOTH",
"319 0 LINE SMOOTH",
"285 0 OFFCURVE",
"267 22 OFFCURVE",
"267 44 CURVE SMOOTH",
"267 65 OFFCURVE",
"284 86 OFFCURVE",
"317 86 CURVE SMOOTH",
"578 86 LINE",
"578 503 LINE",
"233 1085 LINE",
"129 1085 LINE SMOOTH",
"96 1085 OFFCURVE",
"79 1109 OFFCURVE",
"79 1128 CURVE SMOOTH",
"79 1147 OFFCURVE",
"97 1171 OFFCURVE",
"130 1171 CURVE SMOOTH",
"480 1171 LINE SMOOTH",
"514 1171 OFFCURVE",
"531 1147 OFFCURVE",
"531 1128 CURVE SMOOTH",
"531 1109 OFFCURVE",
"514 1085 OFFCURVE",
"481 1085 CURVE SMOOTH",
"345 1085 LINE",
"631 583 LINE",
"909 1085 LINE",
"793 1085 LINE SMOOTH",
"760 1085 OFFCURVE",
"743 1109 OFFCURVE",
"743 1128 CURVE SMOOTH",
"743 1147 OFFCURVE",
"761 1171 OFFCURVE",
"794 1171 CURVE SMOOTH"
);
}
);
width = 1240;
}
);
unicode = 0059;
},
{
glyphname = Z;
lastChange = "2017-06-08 02:46:23 +0000";
layers = (
{
anchors = (
{
name = bottom;
position = "{620, 0}";
},
{
name = top;
position = "{620, 1171}";
}
);
layerId = "840BD324-B0A6-42B0-BD23-CB5E8C19394F";
paths = (
{
closed = 1;
nodes = (
"217 757 OFFCURVE",
"190 774 OFFCURVE",
"192 806 CURVE SMOOTH",
"212 1116 LINE",
"213 1144 OFFCURVE",
"229 1171 OFFCURVE",
"280 1171 CURVE SMOOTH",
"991 1171 LINE SMOOTH",
"1023 1171 OFFCURVE",
"1040 1144 OFFCURVE",
"1040 1116 CURVE SMOOTH",
"1040 1104 OFFCURVE",
"1038 1092 OFFCURVE",
"1030 1081 CURVE SMOOTH",
"321 86 LINE",
"931 86 LINE",
"961 384 LINE",
"963 416 OFFCURVE",
"989 435 OFFCURVE",
"1012 435 CURVE SMOOTH",
"1033 435 OFFCURVE",
"1053 420 OFFCURVE",
"1053 385 CURVE",
"1033 53 LINE SMOOTH",
"1031 19 OFFCURVE",
"1011 0 OFFCURVE",
"982 0 CURVE SMOOTH",
"229 0 LINE SMOOTH",
"190 0 OFFCURVE",
"177 14 OFFCURVE",
"177 31 CURVE SMOOTH",
"177 53 OFFCURVE",
"195 81 OFFCURVE",
"205 95 CURVE SMOOTH",
"926 1085 LINE",
"321 1085 LINE",
"286 797 LINE SMOOTH",
"283 770 OFFCURVE",
"264 757 OFFCURVE",
"242 757 CURVE SMOOTH"
);
}
);
width = 1240;
}
);
unicode = 005A;
},
{
glyphname = Q.ss02;
lastChange = "2017-06-01 15:07:55 +0000";
layers = (
{
layerId = "840BD324-B0A6-42B0-BD23-CB5E8C19394F";
paths = (
{
closed = 1;
nodes = (
"1036 842 OFFCURVE",
"896 1101 OFFCURVE",
"620 1101 CURVE SMOOTH",
"344 1101 OFFCURVE",
"204 842 OFFCURVE",
"204 582 CURVE SMOOTH",
"204 326 OFFCURVE",
"340 69 OFFCURVE",
"620 69 CURVE SMOOTH",
"900 69 OFFCURVE",
"1036 326 OFFCURVE",
"1036 582 CURVE SMOOTH"
);
},
{
closed = 1;
nodes = (
"280 -19 OFFCURVE",
"108 226 OFFCURVE",
"108 582 CURVE SMOOTH",
"108 883 OFFCURVE",
"279 1187 OFFCURVE",
"620 1187 CURVE SMOOTH",
"961 1187 OFFCURVE",
"1132 883 OFFCURVE",
"1132 582 CURVE SMOOTH",
"1132 286 OFFCURVE",
"967 -15 OFFCURVE",
"620 -17 CURVE SMOOTH"
);
},
{
closed = 1;
nodes = (
"294 196 LINE",
"331 245 OFFCURVE",
"411 302 OFFCURVE",
"508 302 CURVE SMOOTH",
"722 302 OFFCURVE",
"740 105 OFFCURVE",
"740 -30 CURVE SMOOTH",
"740 -164 OFFCURVE",
"835 -211 OFFCURVE",
"853 -209 CURVE",
"959 -145 OFFCURVE",
"1023 -99 OFFCURVE",
"1053 -137 CURVE SMOOTH",
"1078 -169 OFFCURVE",
"1060 -202 OFFCURVE",
"1026 -233 CURVE SMOOTH",
"980 -275 OFFCURVE",
"911 -290 OFFCURVE",
"870 -290 CURVE SMOOTH",
"740 -290 OFFCURVE",
"648 -204 OFFCURVE",
"648 0 CURVE SMOOTH",
"648 93 OFFCURVE",
"630 217 OFFCURVE",
"500 217 CURVE SMOOTH",
"430 217 OFFCURVE",
"366 160 OFFCURVE",
"366 127 CURVE"
);
}
);
width = 1240;
}
);
},
{
glyphname = a;
lastChange = "2017-06-03 21:34:57 +0000";
layers = (
{
anchors = (
{
name = bottom;
position = "{620, 0}";
},
{
name = ogonek;
position = "{1116, 10}";
},
{
name = top;
position = "{600, 774}";
}
);
layerId = "840BD324-B0A6-42B0-BD23-CB5E8C19394F";
paths = (
{
closed = 1;
nodes = (
"637 -16 OFFCURVE",
"760 44 OFFCURVE",
"821 113 CURVE",
"846 16 OFFCURVE",
"910 93 OFFCURVE",
"910 162 CURVE",
"910 444 LINE SMOOTH",
"910 674 OFFCURVE",
"849 813 OFFCURVE",
"612 813 CURVE SMOOTH",
"461 813 OFFCURVE",
"398 780 OFFCURVE",
"330 749 CURVE SMOOTH",
"291 731 OFFCURVE",
"264 716 OFFCURVE",
"264 685 CURVE SMOOTH",
"264 577 LINE SMOOTH",
"264 539 OFFCURVE",
"288 521 OFFCURVE",
"313 521 CURVE SMOOTH",
"336 521 OFFCURVE",
"360 538 OFFCURVE",
"360 573 CURVE SMOOTH",
"360 663 LINE",
"461 718 OFFCURVE",
"527 731 OFFCURVE",
"611 731 CURVE SMOOTH",
"756 731 OFFCURVE",
"814 653 OFFCURVE",
"814 484 CURVE",
"547 464 OFFCURVE",
"253 455 OFFCURVE",
"253 210 CURVE SMOOTH",
"253 74 OFFCURVE",
"340 -16 OFFCURVE",
"491 -16 CURVE SMOOTH"
);
},
{
closed = 1;
nodes = (
"417 72 OFFCURVE",
"350 120 OFFCURVE",
"350 210 CURVE SMOOTH",
"350 364 OFFCURVE",
"525 373 OFFCURVE",
"814 401 CURVE",
"814 204 LINE",
"742 128 OFFCURVE",
"621 72 OFFCURVE",
"502 72 CURVE SMOOTH"
);
},
{
closed = 1;
nodes = (
"879 -3 LINE",
"1065 17 LINE",
"1090 22 OFFCURVE",
"1103 42 OFFCURVE",
"1103 61 CURVE SMOOTH",
"1103 79 OFFCURVE",
"1091 96 OFFCURVE",
"1063 96 CURVE SMOOTH",
"1057 96 LINE",
"909 85 LINE",
"910 162 LINE",
"821 113 LINE",
"825 47 LINE SMOOTH",
"827 13 OFFCURVE",
"846 -3 OFFCURVE",
"872 -3 CURVE SMOOTH"
);
}
);
width = 1240;
}
);
unicode = 0061;
},
{
glyphname = abreve;
lastChange = "2017-06-03 22:25:58 +0000";
layers = (
{
components = (
{
name = a;
}
);
layerId = "840BD324-B0A6-42B0-BD23-CB5E8C19394F";
paths = (
{
closed = 1;
nodes = (
"622 1034 CURVE SMOOTH",
"682 1034 OFFCURVE",
"741 1070 OFFCURVE",
"752 1138 CURVE",
"756 1150 OFFCURVE",
"765 1154 OFFCURVE",
"775 1154 CURVE SMOOTH",
"791 1154 OFFCURVE",
"809 1142 OFFCURVE",
"809 1130 CURVE SMOOTH",
"809 1005 OFFCURVE",
"683 976 OFFCURVE",
"622 976 CURVE SMOOTH",
"561 976 OFFCURVE",
"435 1005 OFFCURVE",
"435 1130 CURVE SMOOTH",
"435 1142 OFFCURVE",
"453 1154 OFFCURVE",
"469 1154 CURVE SMOOTH",
"479 1154 OFFCURVE",
"488 1150 OFFCURVE",
"492 1138 CURVE",
"503 1070 OFFCURVE",
"562 1034 OFFCURVE"
);
}
);
width = 1240;
}
);
unicode = 0103;
},
{
glyphname = agrave;
lastChange = "2017-06-03 21:47:35 +0000";
layers = (
{
anchors = (
{
name = bottom;
position = "{620, 0}";
},
{
name = ogonek;
position = "{1116, 10}";
},
{
name = top;
position = "{600, 774}";
}
);
components = (
{
name = gravecomb;
}
);
layerId = "840BD324-B0A6-42B0-BD23-CB5E8C19394F";
paths = (
{
closed = 1;
nodes = (
"637 -16 OFFCURVE",
"760 44 OFFCURVE",
"821 113 CURVE",
"846 16 OFFCURVE",
"910 93 OFFCURVE",
"910 162 CURVE",
"910 444 LINE SMOOTH",
"910 674 OFFCURVE",
"849 813 OFFCURVE",
"612 813 CURVE SMOOTH",
"461 813 OFFCURVE",
"398 780 OFFCURVE",
"330 749 CURVE SMOOTH",
"291 731 OFFCURVE",
"264 716 OFFCURVE",
"264 685 CURVE SMOOTH",
"264 577 LINE SMOOTH",
"264 539 OFFCURVE",
"288 521 OFFCURVE",
"313 521 CURVE SMOOTH",
"336 521 OFFCURVE",
"360 538 OFFCURVE",
"360 573 CURVE SMOOTH",
"360 663 LINE",
"461 718 OFFCURVE",
"527 731 OFFCURVE",
"611 731 CURVE SMOOTH",
"756 731 OFFCURVE",
"814 653 OFFCURVE",
"814 484 CURVE",
"547 464 OFFCURVE",
"253 455 OFFCURVE",
"253 210 CURVE SMOOTH",
"253 74 OFFCURVE",
"340 -16 OFFCURVE",
"491 -16 CURVE SMOOTH"
);
},
{
closed = 1;
nodes = (
"417 72 OFFCURVE",
"350 120 OFFCURVE",
"350 210 CURVE SMOOTH",
"350 364 OFFCURVE",
"525 373 OFFCURVE",
"814 401 CURVE",
"814 204 LINE",
"742 128 OFFCURVE",
"621 72 OFFCURVE",
"502 72 CURVE SMOOTH"
);
},
{
closed = 1;
nodes = (
"879 -3 LINE",
"1065 17 LINE",
"1090 22 OFFCURVE",
"1103 42 OFFCURVE",
"1103 61 CURVE SMOOTH",
"1103 79 OFFCURVE",
"1091 96 OFFCURVE",
"1063 96 CURVE SMOOTH",
"1057 96 LINE",
"909 85 LINE",
"910 162 LINE",
"821 113 LINE",
"825 47 LINE SMOOTH",
"827 13 OFFCURVE",
"846 -3 OFFCURVE",
"872 -3 CURVE SMOOTH"
);
}
);
width = 1240;
}
);
unicode = 00E0;
},
{
glyphname = ae;
lastChange = "2016-08-10 13:30:31 +0000";
layers = (
{
layerId = "840BD324-B0A6-42B0-BD23-CB5E8C19394F";
paths = (
{
closed = 1;
nodes = (
"352 60 CURVE SMOOTH",
"449 60 OFFCURVE",
"558 103 OFFCURVE",
"603 193 CURVE",
"585 249 OFFCURVE",
"574 316 OFFCURVE",
"573 391 CURVE",
"292 375 OFFCURVE",
"210 355 OFFCURVE",
"210 203 CURVE SMOOTH",
"210 116 OFFCURVE",
"272 60 OFFCURVE"
);
},
{
closed = 1;
nodes = (
"658 461 CURVE",
"1033 474 LINE",
"1027 572 OFFCURVE",
"1005 731 OFFCURVE",
"870 731 CURVE SMOOTH",
"688 731 OFFCURVE",
"666 566 OFFCURVE"
);
},
{
closed = 1;
nodes = (
"628 129 CURVE",
"575 36 OFFCURVE",
"459 -17 OFFCURVE",
"335 -17 CURVE SMOOTH",
"226 -17 OFFCURVE",
"119 69 OFFCURVE",
"119 203 CURVE SMOOTH",
"119 433 OFFCURVE",
"308 445 OFFCURVE",
"572 459 CURVE",
"572 496 LINE SMOOTH",
"572 631 OFFCURVE",
"547 731 OFFCURVE",
"405 731 CURVE SMOOTH",
"327 731 OFFCURVE",
"270 711 OFFCURVE",
"247 701 CURVE",
"242 608 OFFCURVE",
"230 531 OFFCURVE",
"185 531 CURVE SMOOTH",
"147 531 OFFCURVE",
"129 563 OFFCURVE",
"129 603 CURVE SMOOTH",
"129 725 OFFCURVE",
"213 813 OFFCURVE",
"406 813 CURVE SMOOTH",
"520 813 OFFCURVE",
"606 747 OFFCURVE",
"624 642 CURVE",
"669 748 OFFCURVE",
"758 813 OFFCURVE",
"869 813 CURVE SMOOTH",
"1002 813 OFFCURVE",
"1112 707 OFFCURVE",
"1112 488 CURVE SMOOTH",
"1112 438 OFFCURVE",
"1084 408 OFFCURVE",
"1040 408 CURVE",
"655 394 LINE",
"662 176 OFFCURVE",
"739 61 OFFCURVE",
"884 61 CURVE SMOOTH",
"953 61 OFFCURVE",
"975 72 OFFCURVE",
"1048 146 CURVE",
"1062 158 OFFCURVE",
"1075 163 OFFCURVE",
"1086 163 CURVE SMOOTH",
"1109 163 OFFCURVE",
"1122 151 OFFCURVE",
"1122 127 CURVE SMOOTH",
"1122 113 OFFCURVE",
"1117 98 OFFCURVE",
"1106 85 CURVE SMOOTH",
"1033 1 OFFCURVE",
"938 -17 OFFCURVE",
"876 -17 CURVE SMOOTH",
"762 -17 OFFCURVE",
"674 44 OFFCURVE"
);
}
);
width = 1240;
}
);
unicode = 00E6;
},
{
glyphname = b;
lastChange = "2017-06-04 00:05:21 +0000";
layers = (
{
anchors = (
{
name = bottom;
position = "{620, 0}";
},
{
name = top;
position = "{620, 1070}";
}
);
layerId = "840BD324-B0A6-42B0-BD23-CB5E8C19394F";
paths = (
{
closed = 1;
nodes = (
"386 1141 CURVE SMOOTH",
"386 707 LINE",
"460 771 OFFCURVE",
"541 813 OFFCURVE",
"670 813 CURVE SMOOTH",
"904 813 OFFCURVE",
"1048 636 OFFCURVE",
"1048 398 CURVE SMOOTH",
"1048 156 OFFCURVE",
"909 -17 OFFCURVE",
"674 -17 CURVE SMOOTH",
"547 -17 OFFCURVE",
"446 37 OFFCURVE",
"382 102 CURVE",
"382 0 OFFCURVE",
"356 -4 OFFCURVE",
"331 -4 CURVE SMOOTH",
"310 -4 OFFCURVE",
"290 7 OFFCURVE",
"290 74 CURVE SMOOTH",
"290 1091 LINE",
"162 1083 LINE SMOOTH",
"155 1082 OFFCURVE",
"148 1080 OFFCURVE",
"142 1080 CURVE SMOOTH",
"118 1080 OFFCURVE",
"103 1098 OFFCURVE",
"103 1118 CURVE SMOOTH",
"103 1134 OFFCURVE",
"112 1154 OFFCURVE",
"136 1159 CURVE",
"325 1178 LINE SMOOTH",
"333 1179 OFFCURVE",
"339 1180 OFFCURVE",
"345 1180 CURVE SMOOTH",
"374 1180 OFFCURVE",
"386 1164 OFFCURVE"
);
},
{
closed = 1;
nodes = (
"952 398 CURVE SMOOTH",
"952 575 OFFCURVE",
"855 731 OFFCURVE",
"664 731 CURVE SMOOTH",
"537 731 OFFCURVE",
"449 681 OFFCURVE",
"386 602 CURVE",
"386 210 LINE",
"444 127 OFFCURVE",
"537 65 OFFCURVE",
"672 65 CURVE SMOOTH",
"858 65 OFFCURVE",
"952 219 OFFCURVE"
);
}
);
width = 1240;
}
);
unicode = 0062;
},
{
glyphname = c;
lastChange = "2017-06-07 01:14:08 +0000";
layers = (
{
anchors = (
{
name = bottom;
position = "{620, 0}";
},
{
name = top;
position = "{640, 774}";
}
);
layerId = "840BD324-B0A6-42B0-BD23-CB5E8C19394F";
paths = (
{
closed = 1;
nodes = (
"183 663 OFFCURVE",
"387 813 OFFCURVE",
"635 813 CURVE SMOOTH",
"833 813 OFFCURVE",
"979 744 OFFCURVE",
"979 564 CURVE SMOOTH",
"979 519 OFFCURVE",
"960 484 OFFCURVE",
"919 484 CURVE SMOOTH",
"871 484 OFFCURVE",
"868 564 OFFCURVE",
"853 686 CURVE",
"782 721 OFFCURVE",
"717 731 OFFCURVE",
"650 731 CURVE SMOOTH",
"416 731 OFFCURVE",
"279 609 OFFCURVE",
"279 407 CURVE SMOOTH",
"279 175 OFFCURVE",
"421 65 OFFCURVE",
"624 65 CURVE SMOOTH",
"751 65 OFFCURVE",
"823 99 OFFCURVE",
"902 172 CURVE SMOOTH",
"914 183 OFFCURVE",
"930 188 OFFCURVE",
"943 188 CURVE SMOOTH",
"962 188 OFFCURVE",
"978 176 OFFCURVE",
"978 147 CURVE SMOOTH",
"978 133 OFFCURVE",
"972 118 OFFCURVE",
"960 105 CURVE SMOOTH",
"886 25 OFFCURVE",
"736 -17 OFFCURVE",
"632 -17 CURVE SMOOTH",
"365 -17 OFFCURVE",
"183 141 OFFCURVE",
"183 407 CURVE SMOOTH"
);
}
);
width = 1240;
}
);
unicode = 0063;
},
{
glyphname = d;
lastChange = "2017-06-05 22:58:16 +0000";
layers = (
{
anchors = (
{
name = bottom;
position = "{620, 0}";
},
{
name = center;
position = "{620, 387}";
},
{
name = top;
position = "{620, 1070}";
},
{
name = topright;
position = "{1220, 774}";
}
);
layerId = "840BD324-B0A6-42B0-BD23-CB5E8C19394F";
paths = (
{
closed = 1;
nodes = (
"860 47 CURVE SMOOTH",
"857 107 LINE",
"798 36 OFFCURVE",
"691 -17 OFFCURVE",
"564 -17 CURVE SMOOTH",
"329 -17 OFFCURVE",
"186 156 OFFCURVE",
"186 398 CURVE SMOOTH",
"186 636 OFFCURVE",
"330 813 OFFCURVE",
"564 813 CURVE SMOOTH",
"693 813 OFFCURVE",
"774 771 OFFCURVE",
"848 707 CURVE",
"848 1091 LINE",
"783 1087 OFFCURVE",
"724 1081 OFFCURVE",
"700 1080 CURVE SMOOTH",
"679 1079 OFFCURVE",
"661 1098 OFFCURVE",
"661 1118 CURVE SMOOTH",
"661 1134 OFFCURVE",
"670 1154 OFFCURVE",
"694 1159 CURVE",
"883 1178 LINE SMOOTH",
"891 1179 OFFCURVE",
"897 1180 OFFCURVE",
"903 1180 CURVE SMOOTH",
"932 1180 OFFCURVE",
"944 1164 OFFCURVE",
"944 1141 CURVE SMOOTH",
"944 85 LINE",
"1092 96 LINE",
"1098 96 LINE SMOOTH",
"1126 96 OFFCURVE",
"1138 79 OFFCURVE",
"1138 61 CURVE SMOOTH",
"1138 42 OFFCURVE",
"1125 22 OFFCURVE",
"1100 17 CURVE",
"914 -3 LINE",
"907 -3 LINE SMOOTH",
"881 -3 OFFCURVE",
"862 13 OFFCURVE"
);
},
{
closed = 1;
nodes = (
"282 398 CURVE SMOOTH",
"282 219 OFFCURVE",
"380 65 OFFCURVE",
"566 65 CURVE SMOOTH",
"701 65 OFFCURVE",
"790 127 OFFCURVE",
"848 210 CURVE",
"848 602 LINE",
"785 681 OFFCURVE",
"697 731 OFFCURVE",
"570 731 CURVE SMOOTH",
"379 731 OFFCURVE",
"282 575 OFFCURVE"
);
}
);
width = 1240;
}
);
unicode = 0064;
},
{
glyphname = eth;
lastChange = "2016-08-10 13:30:31 +0000";
layers = (
{
layerId = "840BD324-B0A6-42B0-BD23-CB5E8C19394F";
paths = (
{
closed = 1;
nodes = (
"602 65 CURVE SMOOTH",
"801 65 OFFCURVE",
"914 192 OFFCURVE",
"914 391 CURVE SMOOTH",
"914 617 OFFCURVE",
"770 731 OFFCURVE",
"608 731 CURVE SMOOTH",
"414 731 OFFCURVE",
"308 607 OFFCURVE",
"308 391 CURVE SMOOTH",
"308 182 OFFCURVE",
"433 65 OFFCURVE"
);
},
{
closed = 1;
nodes = (
"703 1116 LINE",
"944 892 OFFCURVE",
"1010 670 OFFCURVE",
"1010 453 CURVE SMOOTH",
"1010 167 OFFCURVE",
"881 -17 OFFCURVE",
"602 -17 CURVE SMOOTH",
"366 -17 OFFCURVE",
"212 144 OFFCURVE",
"212 394 CURVE SMOOTH",
"212 643 OFFCURVE",
"360 813 OFFCURVE",
"607 813 CURVE SMOOTH",
"701 813 OFFCURVE",
"832 780 OFFCURVE",
"919 615 CURVE",
"869 809 OFFCURVE",
"741 962 OFFCURVE",
"629 1065 CURVE",
"492 971 LINE SMOOTH",
"485 966 OFFCURVE",
"478 964 OFFCURVE",
"471 964 CURVE SMOOTH",
"449 964 OFFCURVE",
"430 986 OFFCURVE",
"430 1008 CURVE SMOOTH",
"430 1019 OFFCURVE",
"435 1030 OFFCURVE",
"446 1038 CURVE SMOOTH",
"565 1121 LINE",
"501 1174 OFFCURVE",
"449 1206 OFFCURVE",
"434 1218 CURVE SMOOTH",
"430 1221 OFFCURVE",
"428 1225 OFFCURVE",
"428 1231 CURVE SMOOTH",
"428 1253 OFFCURVE",
"453 1288 OFFCURVE",
"474 1288 CURVE SMOOTH",
"477 1288 OFFCURVE",
"480 1287 OFFCURVE",
"483 1285 CURVE SMOOTH",
"541 1248 OFFCURVE",
"592 1210 OFFCURVE",
"638 1172 CURVE",
"777 1269 LINE SMOOTH",
"783 1273 OFFCURVE",
"789 1275 OFFCURVE",
"795 1275 CURVE SMOOTH",
"818 1275 OFFCURVE",
"839 1249 OFFCURVE",
"839 1226 CURVE SMOOTH",
"839 1216 OFFCURVE",
"835 1206 OFFCURVE",
"825 1199 CURVE SMOOTH"
);
}
);
width = 1240;
}
);
unicode = 00F0;
},
{
glyphname = dcroat;
lastChange = "2016-08-10 13:30:31 +0000";
layers = (
{
components = (
{
name = d;
}
);
layerId = "840BD324-B0A6-42B0-BD23-CB5E8C19394F";
paths = (
{
closed = 1;
nodes = (
"1023 907 CURVE SMOOTH",
"661 907 LINE SMOOTH",
"623 907 OFFCURVE",
"610 917 OFFCURVE",
"610 944 CURVE SMOOTH",
"610 971 OFFCURVE",
"626 979 OFFCURVE",
"660 979 CURVE SMOOTH",
"1021 979 LINE SMOOTH",
"1054 979 OFFCURVE",
"1070 971 OFFCURVE",
"1070 944 CURVE SMOOTH",
"1070 917 OFFCURVE",
"1056 907 OFFCURVE"
);
}
);
width = 1240;
}
);
unicode = 0111;
},
{
glyphname = dz;
lastChange = "2017-06-05 23:01:12 +0000";
layers = (
{
layerId = "840BD324-B0A6-42B0-BD23-CB5E8C19394F";
paths = (
{
closed = 1;
nodes = (
"1089 772 LINE SMOOTH",
"1135 772 OFFCURVE",
"1150 759 OFFCURVE",
"1150 736 CURVE SMOOTH",
"1150 719 OFFCURVE",
"1138 695 OFFCURVE",
"1132 682 CURVE SMOOTH",
"855 82 LINE",
"1055 82 LINE",
"1076 259 LINE SMOOTH",
"1079 283 OFFCURVE",
"1099 297 OFFCURVE",
"1120 297 CURVE SMOOTH",
"1141 297 OFFCURVE",
"1162 284 OFFCURVE",
"1161 255 CURVE SMOOTH",
"1151 46 LINE SMOOTH",
"1150 21 OFFCURVE",
"1124 0 OFFCURVE",
"1100 0 CURVE SMOOTH",
"806 0 LINE SMOOTH",
"768 0 OFFCURVE",
"750 24 OFFCURVE",
"750 59 CURVE SMOOTH",
"750 81 OFFCURVE",
"761 97 OFFCURVE",
"767 109 CURVE SMOOTH",
"1039 692 LINE",
"841 692 LINE",
"823 535 LINE SMOOTH",
"820 505 OFFCURVE",
"802 490 OFFCURVE",
"781 490 CURVE SMOOTH",
"759 490 OFFCURVE",
"734 507 OFFCURVE",
"736 540 CURVE SMOOTH",
"746 726 LINE SMOOTH",
"747 750 OFFCURVE",
"768 772 OFFCURVE",
"792 772 CURVE SMOOTH"
);
},
{
closed = 1;
nodes = (
"497 47 CURVE SMOOTH",
"494 97 LINE",
"471 52 OFFCURVE",
"438 -16 OFFCURVE",
"338 -16 CURVE SMOOTH",
"177 -16 OFFCURVE",
"63 183 OFFCURVE",
"63 398 CURVE SMOOTH",
"63 621 OFFCURVE",
"164 813 OFFCURVE",
"329 813 CURVE SMOOTH",
"418 813 OFFCURVE",
"485 734 OFFCURVE",
"485 734 CURVE",
"485 1091 LINE",
"445 1088 OFFCURVE",
"343 1080 OFFCURVE",
"337 1080 CURVE SMOOTH",
"313 1080 OFFCURVE",
"298 1098 OFFCURVE",
"298 1118 CURVE SMOOTH",
"298 1134 OFFCURVE",
"307 1154 OFFCURVE",
"331 1159 CURVE",
"520 1178 LINE SMOOTH",
"528 1179 OFFCURVE",
"534 1180 OFFCURVE",
"540 1180 CURVE SMOOTH",
"569 1180 OFFCURVE",
"581 1164 OFFCURVE",
"581 1141 CURVE SMOOTH",
"581 85 LINE",
"637 91 LINE",
"643 91 LINE SMOOTH",
"671 91 OFFCURVE",
"683 74 OFFCURVE",
"683 56 CURVE SMOOTH",
"683 37 OFFCURVE",
"670 17 OFFCURVE",
"645 12 CURVE",
"551 -3 LINE",
"544 -3 LINE SMOOTH",
"518 -3 OFFCURVE",
"499 13 OFFCURVE"
);
},
{
closed = 1;
nodes = (
"159 398 CURVE SMOOTH",
"159 216 OFFCURVE",
"226 70 OFFCURVE",
"338 70 CURVE SMOOTH",
"418 70 OFFCURVE",
"468 137 OFFCURVE",
"485 210 CURVE",
"485 629 LINE",
"454 678 OFFCURVE",
"400 725 OFFCURVE",
"329 725 CURVE SMOOTH",
"213 725 OFFCURVE",
"159 580 OFFCURVE"
);
}
);
width = 1240;
}
);
unicode = 01F3;
},
{
glyphname = dzcaron;
lastChange = "2017-06-05 23:00:37 +0000";
layers = (
{
components = (
{
name = caron;
transform = "{1, 0, 0, 1, 327, -44}";
}
);
layerId = "840BD324-B0A6-42B0-BD23-CB5E8C19394F";
paths = (
{
closed = 1;
nodes = (
"497 47 CURVE SMOOTH",
"494 97 LINE",
"471 52 OFFCURVE",
"438 -16 OFFCURVE",
"338 -16 CURVE SMOOTH",
"177 -16 OFFCURVE",
"63 183 OFFCURVE",
"63 398 CURVE SMOOTH",
"63 621 OFFCURVE",
"164 813 OFFCURVE",
"329 813 CURVE SMOOTH",
"418 813 OFFCURVE",
"485 734 OFFCURVE",
"485 734 CURVE",
"485 1091 LINE",
"445 1088 OFFCURVE",
"343 1080 OFFCURVE",
"337 1080 CURVE SMOOTH",
"313 1080 OFFCURVE",
"298 1098 OFFCURVE",
"298 1118 CURVE SMOOTH",
"298 1134 OFFCURVE",
"307 1154 OFFCURVE",
"331 1159 CURVE",
"520 1178 LINE SMOOTH",
"528 1179 OFFCURVE",
"534 1180 OFFCURVE",
"540 1180 CURVE SMOOTH",
"569 1180 OFFCURVE",
"581 1164 OFFCURVE",
"581 1141 CURVE SMOOTH",
"581 85 LINE",
"637 91 LINE",
"643 91 LINE SMOOTH",
"671 91 OFFCURVE",
"683 74 OFFCURVE",
"683 56 CURVE SMOOTH",
"683 37 OFFCURVE",
"670 17 OFFCURVE",
"645 12 CURVE",
"551 -3 LINE",
"544 -3 LINE SMOOTH",
"518 -3 OFFCURVE",
"499 13 OFFCURVE"
);
},
{
closed = 1;
nodes = (
"159 398 CURVE SMOOTH",
"159 216 OFFCURVE",
"226 70 OFFCURVE",
"338 70 CURVE SMOOTH",
"418 70 OFFCURVE",
"468 137 OFFCURVE",
"485 210 CURVE",
"485 629 LINE",
"454 678 OFFCURVE",
"400 725 OFFCURVE",
"329 725 CURVE SMOOTH",
"213 725 OFFCURVE",
"159 580 OFFCURVE"
);
},
{
closed = 1;
nodes = (
"1089 772 LINE SMOOTH",
"1135 772 OFFCURVE",
"1150 759 OFFCURVE",
"1150 736 CURVE SMOOTH",
"1150 719 OFFCURVE",
"1138 695 OFFCURVE",
"1132 682 CURVE SMOOTH",
"855 82 LINE",
"1055 82 LINE",
"1076 259 LINE SMOOTH",
"1079 283 OFFCURVE",
"1099 297 OFFCURVE",
"1120 297 CURVE SMOOTH",
"1141 297 OFFCURVE",
"1162 284 OFFCURVE",
"1161 255 CURVE SMOOTH",
"1151 46 LINE SMOOTH",
"1150 21 OFFCURVE",
"1124 0 OFFCURVE",
"1100 0 CURVE SMOOTH",
"806 0 LINE SMOOTH",
"768 0 OFFCURVE",
"750 24 OFFCURVE",
"750 59 CURVE SMOOTH",
"750 81 OFFCURVE",
"761 97 OFFCURVE",
"767 109 CURVE SMOOTH",
"1039 692 LINE",
"841 692 LINE",
"823 535 LINE SMOOTH",
"820 505 OFFCURVE",
"802 490 OFFCURVE",
"781 490 CURVE SMOOTH",
"759 490 OFFCURVE",
"734 507 OFFCURVE",
"736 540 CURVE SMOOTH",
"746 726 LINE SMOOTH",
"747 750 OFFCURVE",
"768 772 OFFCURVE",
"792 772 CURVE SMOOTH"
);
}
);
width = 1240;
}
);
unicode = 01C6;
},
{
glyphname = e;
lastChange = "2017-06-03 23:48:52 +0000";
layers = (
{
anchors = (
{
name = bottom;
position = "{620, 0}";
},
{
name = ogonek;
position = "{1116, 10}";
},
{
name = top;
position = "{620, 774}";
}
);
layerId = "840BD324-B0A6-42B0-BD23-CB5E8C19394F";
paths = (
{
closed = 1;
nodes = (
"306 185 OFFCURVE",
"438 65 OFFCURVE",
"657 65 CURVE SMOOTH",
"754 65 OFFCURVE",
"856 100 OFFCURVE",
"934 174 CURVE SMOOTH",
"949 186 OFFCURVE",
"963 191 OFFCURVE",
"975 191 CURVE SMOOTH",
"999 191 OFFCURVE",
"1015 171 OFFCURVE",
"1015 147 CURVE SMOOTH",
"1015 133 OFFCURVE",
"1009 118 OFFCURVE",
"997 105 CURVE SMOOTH",
"923 25 OFFCURVE",
"769 -17 OFFCURVE",
"665 -17 CURVE SMOOTH",
"398 -17 OFFCURVE",
"212 141 OFFCURVE",
"212 407 CURVE SMOOTH",
"212 673 OFFCURVE",
"403 813 OFFCURVE",
"634 813 CURVE SMOOTH",
"840 813 OFFCURVE",
"1025 683 OFFCURVE",
"1025 465 CURVE SMOOTH",
"1025 423 OFFCURVE",
"999 382 OFFCURVE",
"949 382 CURVE SMOOTH",
"298 377 LINE",
"298 461 LINE",
"940 465 LINE",
"934 643 OFFCURVE",
"813 731 OFFCURVE",
"636 731 CURVE SMOOTH",
"446 731 OFFCURVE",
"306 613 OFFCURVE",
"306 407 CURVE SMOOTH"
);
}
);
width = 1240;
}
);
unicode = 0065;
},
{
glyphname = f;
lastChange = "2017-06-07 01:14:18 +0000";
layers = (
{
anchors = (
{
name = bottom;
position = "{620, 0}";
},
{
name = top;
position = "{620, 1070}";
}
);
layerId = "840BD324-B0A6-42B0-BD23-CB5E8C19394F";
paths = (
{
closed = 1;
nodes = (
"693 1098 OFFCURVE",
"608 998 OFFCURVE",
"608 812 CURVE SMOOTH",
"608 774 LINE",
"918 774 LINE SMOOTH",
"945 774 OFFCURVE",
"958 753 OFFCURVE",
"958 733 CURVE SMOOTH",
"958 712 OFFCURVE",
"944 692 OFFCURVE",
"917 692 CURVE SMOOTH",
"607 692 LINE",
"608 82 LINE",
"971 82 LINE SMOOTH",
"997 82 OFFCURVE",
"1010 61 OFFCURVE",
"1010 41 CURVE SMOOTH",
"1010 20 OFFCURVE",
"997 0 OFFCURVE",
"970 0 CURVE SMOOTH",
"276 0 LINE SMOOTH",
"245 0 OFFCURVE",
"230 21 OFFCURVE",
"230 42 CURVE SMOOTH",
"230 62 OFFCURVE",
"244 82 OFFCURVE",
"272 82 CURVE SMOOTH",
"512 82 LINE",
"512 692 LINE",
"301 692 LINE SMOOTH",
"270 692 OFFCURVE",
"255 713 OFFCURVE",
"255 734 CURVE SMOOTH",
"255 754 OFFCURVE",
"269 774 OFFCURVE",
"297 774 CURVE SMOOTH",
"512 774 LINE",
"512 818 LINE SMOOTH",
"512 1059 OFFCURVE",
"694 1193 OFFCURVE",
"912 1188 CURVE SMOOTH",
"975 1187 OFFCURVE",
"1019 1163 OFFCURVE",
"1062 1125 CURVE SMOOTH",
"1096 1095 OFFCURVE",
"1108 1057 OFFCURVE",
"1080 1026 CURVE SMOOTH",
"1048 991 OFFCURVE",
"987 1042 OFFCURVE",
"886 1114 CURVE"
);
}
);
width = 1240;
}
);
unicode = 0066;
},
{
glyphname = g;
lastChange = "2017-06-03 23:49:31 +0000";
layers = (
{
anchors = (
{
name = bottom;
position = "{620, 0}";
},
{
name = top;
position = "{620, 774}";
}
);
layerId = "840BD324-B0A6-42B0-BD23-CB5E8C19394F";
paths = (
{
closed = 1;
nodes = (
"683 361 OFFCURVE",
"798 397 OFFCURVE",
"798 534 CURVE SMOOTH",
"798 679 OFFCURVE",
"689 731 OFFCURVE",
"567 731 CURVE SMOOTH",
"444 731 OFFCURVE",
"342 676 OFFCURVE",
"342 542 CURVE SMOOTH",
"342 420 OFFCURVE",
"440 361 OFFCURVE",
"561 361 CURVE SMOOTH"
);
},
{
closed = 1;
nodes = (
"914 804 LINE SMOOTH",
"973 845 OFFCURVE",
"1036 824 OFFCURVE",
"1066 808 CURVE SMOOTH",
"1094 793 OFFCURVE",
"1113 772 OFFCURVE",
"1112 747 CURVE SMOOTH",
"1111 728 OFFCURVE",
"1101 706 OFFCURVE",
"1074 706 CURVE SMOOTH",
"1042 706 OFFCURVE",
"1011 722 OFFCURVE",
"938 745 CURVE",
"840 678 LINE",
"805 727 LINE"
);
},
{
closed = 1;
nodes = (
"372 287 OFFCURVE",
"246 390 OFFCURVE",
"246 545 CURVE SMOOTH",
"246 729 OFFCURVE",
"397 813 OFFCURVE",
"569 813 CURVE SMOOTH",
"750 813 OFFCURVE",
"894 706 OFFCURVE",
"894 540 CURVE SMOOTH",
"894 362 OFFCURVE",
"779 287 OFFCURVE",
"558 287 CURVE SMOOTH"
);
},
{
closed = 1;
nodes = (
"486 302 OFFCURVE",
"369 260 OFFCURVE",
"369 196 CURVE SMOOTH",
"369 146 OFFCURVE",
"427 135 OFFCURVE",
"608 119 CURVE SMOOTH",
"882 95 OFFCURVE",
"994 21 OFFCURVE",
"994 -138 CURVE SMOOTH",
"994 -308 OFFCURVE",
"809 -380 OFFCURVE",
"615 -380 CURVE SMOOTH",
"428 -380 OFFCURVE",
"248 -316 OFFCURVE",
"248 -138 CURVE SMOOTH",
"248 -17 OFFCURVE",
"311 36 OFFCURVE",
"367 99 CURVE",
"452 69 LINE",
"413 44 OFFCURVE",
"344 -35 OFFCURVE",
"344 -138 CURVE SMOOTH",
"344 -248 OFFCURVE",
"447 -298 OFFCURVE",
"613 -298 CURVE SMOOTH",
"735 -298 OFFCURVE",
"898 -262 OFFCURVE",
"898 -138 CURVE SMOOTH",
"898 -26 OFFCURVE",
"807 12 OFFCURVE",
"610 37 CURVE SMOOTH",
"360 69 OFFCURVE",
"273 88 OFFCURVE",
"273 191 CURVE SMOOTH",
"273 275 OFFCURVE",
"363 317 OFFCURVE",
"398 341 CURVE",
"488 304 LINE"
);
}
);
width = 1240;
}
);
unicode = 0067;
},
{
glyphname = h;
lastChange = "2017-06-04 00:12:20 +0000";
layers = (
{
anchors = (
{
name = bottom;
position = "{620, 0}";
},
{
name = center;
position = "{620, 387}";
},
{
name = top;
position = "{680, 1070}";
}
);
layerId = "840BD324-B0A6-42B0-BD23-CB5E8C19394F";
paths = (
{
closed = 1;
nodes = (
"396 82 LINE",
"501 82 LINE SMOOTH",
"533 82 OFFCURVE",
"549 62 OFFCURVE",
"549 42 CURVE SMOOTH",
"549 21 OFFCURVE",
"532 0 OFFCURVE",
"499 0 CURVE SMOOTH",
"196 0 LINE SMOOTH",
"165 0 OFFCURVE",
"150 22 OFFCURVE",
"150 43 CURVE SMOOTH",
"150 63 OFFCURVE",
"164 82 OFFCURVE",
"192 82 CURVE SMOOTH",
"300 82 LINE",
"300 1091 LINE",
"152 1082 LINE SMOOTH",
"128 1081 OFFCURVE",
"113 1098 OFFCURVE",
"113 1118 CURVE SMOOTH",
"113 1134 OFFCURVE",
"122 1157 OFFCURVE",
"146 1159 CURVE SMOOTH",
"335 1178 LINE SMOOTH",
"343 1179 OFFCURVE",
"349 1180 OFFCURVE",
"355 1180 CURVE SMOOTH",
"384 1180 OFFCURVE",
"396 1164 OFFCURVE",
"396 1141 CURVE SMOOTH"
);
},
{
closed = 1;
nodes = (
"415 721 OFFCURVE",
"543 813 OFFCURVE",
"691 813 CURVE SMOOTH",
"894 813 OFFCURVE",
"992 707 OFFCURVE",
"992 523 CURVE SMOOTH",
"992 82 LINE",
"1101 82 LINE SMOOTH",
"1128 82 OFFCURVE",
"1141 62 OFFCURVE",
"1141 42 CURVE SMOOTH",
"1141 21 OFFCURVE",
"1127 0 OFFCURVE",
"1099 0 CURVE SMOOTH",
"754 0 LINE SMOOTH",
"723 0 OFFCURVE",
"708 22 OFFCURVE",
"708 43 CURVE SMOOTH",
"708 63 OFFCURVE",
"722 82 OFFCURVE",
"750 82 CURVE SMOOTH",
"896 82 LINE",
"896 520 LINE SMOOTH",
"896 659 OFFCURVE",
"827 731 OFFCURVE",
"696 731 CURVE SMOOTH",
"535 731 OFFCURVE",
"420 631 OFFCURVE",
"396 567 CURVE",
"396 691 LINE"
);
}
);
width = 1240;
}
);
unicode = 0068;
},
{
glyphname = hbar;
lastChange = "2016-08-10 13:30:31 +0000";
layers = (
{
components = (
{
name = h;
}
);
layerId = "840BD324-B0A6-42B0-BD23-CB5E8C19394F";
paths = (
{
closed = 1;
nodes = (
"542 907 CURVE SMOOTH",
"180 907 LINE SMOOTH",
"142 907 OFFCURVE",
"129 917 OFFCURVE",
"129 944 CURVE SMOOTH",
"129 971 OFFCURVE",
"145 979 OFFCURVE",
"179 979 CURVE SMOOTH",
"540 979 LINE SMOOTH",
"573 979 OFFCURVE",
"589 971 OFFCURVE",
"589 944 CURVE SMOOTH",
"589 917 OFFCURVE",
"575 907 OFFCURVE"
);
}
);
width = 1240;
}
);
unicode = 0127;
},
{
glyphname = i;
lastChange = "2017-06-07 01:11:06 +0000";
layers = (
{
anchors = (
{
name = bottom;
position = "{620, 0}";
}
);
layerId = "840BD324-B0A6-42B0-BD23-CB5E8C19394F";
paths = (
{
closed = 1;
nodes = (
"550 1130 OFFCURVE",
"590 1171 OFFCURVE",
"641 1171 CURVE SMOOTH",
"691 1171 OFFCURVE",
"731 1130 OFFCURVE",
"731 1080 CURVE SMOOTH",
"731 1029 OFFCURVE",
"691 990 OFFCURVE",
"641 990 CURVE SMOOTH",
"590 990 OFFCURVE",
"550 1029 OFFCURVE",
"550 1080 CURVE SMOOTH"
);
},
{
closed = 1;
nodes = (
"248 0 LINE SMOOTH",
"217 0 OFFCURVE",
"202 22 OFFCURVE",
"202 43 CURVE SMOOTH",
"202 63 OFFCURVE",
"216 82 OFFCURVE",
"244 82 CURVE SMOOTH",
"616 82 LINE",
"616 719 LINE",
"283 674 LINE SMOOTH",
"280 674 OFFCURVE",
"278 673 OFFCURVE",
"276 673 CURVE SMOOTH",
"249 673 OFFCURVE",
"235 694 OFFCURVE",
"235 715 CURVE SMOOTH",
"235 734 OFFCURVE",
"245 752 OFFCURVE",
"267 755 CURVE SMOOTH",
"665 810 LINE SMOOTH",
"668 810 OFFCURVE",
"671 811 OFFCURVE",
"676 811 CURVE SMOOTH",
"697 811 OFFCURVE",
"712 799 OFFCURVE",
"712 779 CURVE SMOOTH",
"712 82 LINE",
"1045 82 LINE SMOOTH",
"1072 82 OFFCURVE",
"1085 61 OFFCURVE",
"1085 41 CURVE SMOOTH",
"1085 20 OFFCURVE",
"1071 0 OFFCURVE",
"1044 0 CURVE SMOOTH"
);
}
);
width = 1240;
}
);
unicode = 0069;
},
{
glyphname = idotless;
lastChange = "2017-06-04 00:14:05 +0000";
layers = (
{
anchors = (
{
name = bottom;
position = "{620, 0}";
},
{
name = ogonek;
position = "{1116, 10}";
},
{
name = top;
position = "{670, 774}";
}
);
layerId = "840BD324-B0A6-42B0-BD23-CB5E8C19394F";
paths = (
{
closed = 1;
nodes = (
"299 0 LINE SMOOTH",
"268 0 OFFCURVE",
"253 22 OFFCURVE",
"253 43 CURVE SMOOTH",
"253 63 OFFCURVE",
"267 82 OFFCURVE",
"295 82 CURVE SMOOTH",
"667 82 LINE",
"667 719 LINE",
"334 674 LINE SMOOTH",
"331 674 OFFCURVE",
"329 673 OFFCURVE",
"327 673 CURVE SMOOTH",
"300 673 OFFCURVE",
"286 694 OFFCURVE",
"286 715 CURVE SMOOTH",
"286 734 OFFCURVE",
"296 752 OFFCURVE",
"318 755 CURVE SMOOTH",
"716 810 LINE SMOOTH",
"719 811 OFFCURVE",
"722 811 OFFCURVE",
"727 811 CURVE SMOOTH",
"748 811 OFFCURVE",
"763 799 OFFCURVE",
"763 779 CURVE SMOOTH",
"763 82 LINE",
"1096 82 LINE SMOOTH",
"1123 82 OFFCURVE",
"1136 61 OFFCURVE",
"1136 41 CURVE SMOOTH",
"1136 20 OFFCURVE",
"1122 0 OFFCURVE",
"1095 0 CURVE SMOOTH"
);
}
);
width = 1240;
}
);
unicode = 0131;
},
{
glyphname = ij;
lastChange = "2017-06-06 00:44:21 +0000";
layers = (
{
layerId = "840BD324-B0A6-42B0-BD23-CB5E8C19394F";
paths = (
{
closed = 1;
nodes = (
"864 1130 OFFCURVE",
"904 1171 OFFCURVE",
"955 1171 CURVE SMOOTH",
"1005 1171 OFFCURVE",
"1045 1130 OFFCURVE",
"1045 1080 CURVE SMOOTH",
"1045 1029 OFFCURVE",
"1005 990 OFFCURVE",
"955 990 CURVE SMOOTH",
"904 990 OFFCURVE",
"864 1029 OFFCURVE",
"864 1080 CURVE SMOOTH"
);
},
{
closed = 1;
nodes = (
"345 1130 OFFCURVE",
"385 1171 OFFCURVE",
"436 1171 CURVE SMOOTH",
"486 1171 OFFCURVE",
"526 1130 OFFCURVE",
"526 1080 CURVE SMOOTH",
"526 1029 OFFCURVE",
"486 990 OFFCURVE",
"436 990 CURVE SMOOTH",
"385 990 OFFCURVE",
"345 1029 OFFCURVE",
"345 1080 CURVE SMOOTH"
);
},
{
closed = 1;
nodes = (
"1042 -198 OFFCURVE",
"899 -309 OFFCURVE",
"654 -309 CURVE SMOOTH",
"621 -309 OFFCURVE",
"603 -287 OFFCURVE",
"603 -265 CURVE SMOOTH",
"603 -243 OFFCURVE",
"622 -220 OFFCURVE",
"661 -220 CURVE SMOOTH",
"836 -220 OFFCURVE",
"946 -155 OFFCURVE",
"946 50 CURVE SMOOTH",
"946 731 LINE",
"483 731 LINE",
"483 82 LINE",
"741 82 LINE SMOOTH",
"768 82 OFFCURVE",
"781 61 OFFCURVE",
"781 41 CURVE SMOOTH",
"781 20 OFFCURVE",
"767 0 OFFCURVE",
"740 0 CURVE SMOOTH",
"165 0 LINE SMOOTH",
"134 0 OFFCURVE",
"119 22 OFFCURVE",
"119 43 CURVE SMOOTH",
"119 63 OFFCURVE",
"133 82 OFFCURVE",
"161 82 CURVE SMOOTH",
"387 82 LINE",
"387 731 LINE",
"207 731 LINE SMOOTH",
"180 731 OFFCURVE",
"166 753 OFFCURVE",
"166 774 CURVE SMOOTH",
"166 793 OFFCURVE",
"176 813 OFFCURVE",
"198 813 CURVE SMOOTH",
"1006 813 LINE SMOOTH",
"1026 813 OFFCURVE",
"1042 805 OFFCURVE",
"1042 784 CURVE SMOOTH",
"1042 50 LINE SMOOTH"
);
}
);
width = 1240;
}
);
unicode = 0133;
},
{
glyphname = j;
lastChange = "2017-06-07 01:13:15 +0000";
layers = (
{
layerId = "840BD324-B0A6-42B0-BD23-CB5E8C19394F";
paths = (
{
closed = 1;
nodes = (
"825 -123 OFFCURVE",
"635 -310 OFFCURVE",
"297 -310 CURVE SMOOTH",
"264 -310 OFFCURVE",
"246 -288 OFFCURVE",
"246 -266 CURVE SMOOTH",
"246 -244 OFFCURVE",
"265 -221 OFFCURVE",
"297 -221 CURVE SMOOTH",
"573 -221 OFFCURVE",
"729 -66 OFFCURVE",
"729 209 CURVE SMOOTH",
"729 725 LINE",
"273 681 LINE SMOOTH",
"244 678 OFFCURVE",
"228 700 OFFCURVE",
"228 721 CURVE SMOOTH",
"228 741 OFFCURVE",
"243 761 OFFCURVE",
"269 763 CURVE SMOOTH",
"789 813 LINE SMOOTH",
"809 815 OFFCURVE",
"825 805 OFFCURVE",
"825 784 CURVE SMOOTH",
"825 209 LINE SMOOTH"
);
},
{
closed = 1;
nodes = (
"648 1130 OFFCURVE",
"688 1171 OFFCURVE",
"739 1171 CURVE SMOOTH",
"789 1171 OFFCURVE",
"829 1130 OFFCURVE",
"829 1080 CURVE SMOOTH",
"829 1029 OFFCURVE",
"789 990 OFFCURVE",
"739 990 CURVE SMOOTH",
"688 990 OFFCURVE",
"648 1029 OFFCURVE",
"648 1080 CURVE SMOOTH"
);
}
);
width = 1240;
}
);
unicode = 006A;
},
{
glyphname = jdotless;
lastChange = "2017-06-06 00:18:25 +0000";
layers = (
{
anchors = (
{
name = bottom;
position = "{620, 0}";
},
{
name = top;
position = "{780, 774}";
}
);
layerId = "840BD324-B0A6-42B0-BD23-CB5E8C19394F";
paths = (
{
closed = 1;
nodes = (
"367 -310 CURVE SMOOTH",
"334 -310 OFFCURVE",
"316 -288 OFFCURVE",
"316 -266 CURVE SMOOTH",
"316 -244 OFFCURVE",
"335 -221 OFFCURVE",
"374 -221 CURVE SMOOTH",
"549 -221 OFFCURVE",
"799 -156 OFFCURVE",
"799 -1 CURVE SMOOTH",
"799 731 LINE",
"343 731 LINE SMOOTH",
"314 731 OFFCURVE",
"299 753 OFFCURVE",
"299 774 CURVE SMOOTH",
"299 794 OFFCURVE",
"313 813 OFFCURVE",
"339 813 CURVE SMOOTH",
"859 813 LINE SMOOTH",
"879 813 OFFCURVE",
"895 805 OFFCURVE",
"895 784 CURVE SMOOTH",
"895 -11 LINE SMOOTH",
"895 -199 OFFCURVE",
"612 -310 OFFCURVE"
);
}
);
width = 1240;
}
);
unicode = 0237;
},
{
glyphname = k;
lastChange = "2017-06-03 23:49:01 +0000";
layers = (
{
anchors = (
{
name = bottom;
position = "{620, 0}";
},
{
name = top;
position = "{620, 774}";
}
);
layerId = "840BD324-B0A6-42B0-BD23-CB5E8C19394F";
paths = (
{
closed = 1;
nodes = (
"941 82 LINE",
"1028 82 LINE SMOOTH",
"1055 82 OFFCURVE",
"1068 61 OFFCURVE",
"1068 41 CURVE SMOOTH",
"1068 20 OFFCURVE",
"1054 0 OFFCURVE",
"1028 0 CURVE SMOOTH",
"725 0 LINE SMOOTH",
"697 0 OFFCURVE",
"683 21 OFFCURVE",
"683 41 CURVE SMOOTH",
"683 62 OFFCURVE",
"698 82 OFFCURVE",
"729 82 CURVE SMOOTH",
"829 82 LINE",
"530 400 LINE",
"600 446 LINE"
);
},
{
closed = 1;
nodes = (
"404 284 LINE",
"404 82 LINE",
"495 82 LINE SMOOTH",
"521 82 OFFCURVE",
"534 61 OFFCURVE",
"534 41 CURVE SMOOTH",
"534 20 OFFCURVE",
"521 0 OFFCURVE",
"494 0 CURVE SMOOTH",
"180 0 LINE SMOOTH",
"150 0 OFFCURVE",
"134 21 OFFCURVE",
"134 42 CURVE SMOOTH",
"134 62 OFFCURVE",
"148 82 OFFCURVE",
"176 82 CURVE SMOOTH",
"308 82 LINE",
"308 1082 LINE",
"158 1058 LINE SMOOTH",
"155 1058 OFFCURVE",
"153 1057 OFFCURVE",
"151 1057 CURVE SMOOTH",
"124 1057 OFFCURVE",
"90 1078 OFFCURVE",
"90 1099 CURVE SMOOTH",
"90 1118 OFFCURVE",
"100 1135 OFFCURVE",
"122 1139 CURVE SMOOTH",
"356 1181 LINE SMOOTH",
"358 1181 OFFCURVE",
"363 1182 OFFCURVE",
"368 1182 CURVE SMOOTH",
"389 1182 OFFCURVE",
"404 1170 OFFCURVE",
"404 1150 CURVE SMOOTH",
"404 387 LINE",
"787 692 LINE",
"694 692 LINE SMOOTH",
"666 692 OFFCURVE",
"652 712 OFFCURVE",
"652 733 CURVE SMOOTH",
"652 754 OFFCURVE",
"667 775 OFFCURVE",
"698 775 CURVE SMOOTH",
"1005 775 LINE SMOOTH",
"1034 775 OFFCURVE",
"1046 753 OFFCURVE",
"1046 729 CURVE SMOOTH",
"1046 711 OFFCURVE",
"1028 692 OFFCURVE",
"1006 692 CURVE SMOOTH",
"917 692 LINE"
);
}
);
width = 1240;
}
);
unicode = 006B;
},
{
glyphname = kgreenlandic;
lastChange = "2016-08-10 13:30:31 +0000";
layers = (
{
layerId = "840BD324-B0A6-42B0-BD23-CB5E8C19394F";
paths = (
{
closed = 1;
nodes = (
"464 373 LINE",
"851 692 LINE",
"744 692 LINE SMOOTH",
"716 692 OFFCURVE",
"702 712 OFFCURVE",
"702 733 CURVE SMOOTH",
"702 754 OFFCURVE",
"717 775 OFFCURVE",
"748 775 CURVE SMOOTH",
"1065 775 LINE SMOOTH",
"1094 775 OFFCURVE",
"1106 753 OFFCURVE",
"1106 729 CURVE SMOOTH",
"1106 711 OFFCURVE",
"1088 692 OFFCURVE",
"1066 692 CURVE SMOOTH",
"971 692 LINE",
"662 433 LINE",
"1001 82 LINE",
"1088 82 LINE SMOOTH",
"1115 82 OFFCURVE",
"1128 61 OFFCURVE",
"1128 41 CURVE SMOOTH",
"1128 20 OFFCURVE",
"1114 0 OFFCURVE",
"1088 0 CURVE SMOOTH",
"775 0 LINE SMOOTH",
"747 0 OFFCURVE",
"733 21 OFFCURVE",
"733 41 CURVE SMOOTH",
"733 62 OFFCURVE",
"748 82 OFFCURVE",
"779 82 CURVE SMOOTH",
"889 82 LINE",
"597 387 LINE",
"464 287 LINE",
"464 82 LINE",
"535 82 LINE SMOOTH",
"561 82 OFFCURVE",
"574 61 OFFCURVE",
"574 41 CURVE SMOOTH",
"574 20 OFFCURVE",
"561 0 OFFCURVE",
"534 0 CURVE SMOOTH",
"200 0 LINE SMOOTH",
"170 0 OFFCURVE",
"154 21 OFFCURVE",
"154 42 CURVE SMOOTH",
"154 62 OFFCURVE",
"168 82 OFFCURVE",
"196 82 CURVE SMOOTH",
"368 82 LINE",
"368 692 LINE",
"193 692 LINE SMOOTH",
"160 692 OFFCURVE",
"150 713 OFFCURVE",
"150 734 CURVE SMOOTH",
"150 753 OFFCURVE",
"162 774 OFFCURVE",
"189 774 CURVE SMOOTH",
"428 774 LINE SMOOTH",
"449 774 OFFCURVE",
"464 760 OFFCURVE",
"464 736 CURVE SMOOTH"
);
}
);
width = 1240;
}
);
unicode = 0138;
},
{
glyphname = l;
lastChange = "2017-06-04 00:43:46 +0000";
layers = (
{
anchors = (
{
name = bottom;
position = "{620, 0}";
},
{
name = center;
position = "{620, 387}";
},
{
name = top;
position = "{620, 1070}";
},
{
name = topright;
position = "{1220, 774}";
}
);
layerId = "840BD324-B0A6-42B0-BD23-CB5E8C19394F";
paths = (
{
closed = 1;
nodes = (
"719 1150 CURVE SMOOTH",
"719 82 LINE",
"1059 82 LINE SMOOTH",
"1085 82 OFFCURVE",
"1098 61 OFFCURVE",
"1098 41 CURVE SMOOTH",
"1098 20 OFFCURVE",
"1085 0 OFFCURVE",
"1058 0 CURVE SMOOTH",
"258 0 LINE SMOOTH",
"227 0 OFFCURVE",
"212 21 OFFCURVE",
"212 42 CURVE SMOOTH",
"212 62 OFFCURVE",
"226 82 OFFCURVE",
"254 82 CURVE SMOOTH",
"623 82 LINE",
"623 1090 LINE",
"270 1062 LINE SMOOTH",
"267 1062 OFFCURVE",
"265 1061 OFFCURVE",
"263 1061 CURVE SMOOTH",
"236 1061 OFFCURVE",
"222 1082 OFFCURVE",
"222 1103 CURVE SMOOTH",
"222 1122 OFFCURVE",
"232 1140 OFFCURVE",
"254 1143 CURVE SMOOTH",
"672 1181 LINE SMOOTH",
"675 1181 OFFCURVE",
"678 1182 OFFCURVE",
"683 1182 CURVE SMOOTH",
"704 1182 OFFCURVE",
"719 1170 OFFCURVE"
);
}
);
width = 1240;
}
);
unicode = 006C;
},
{
glyphname = lj;
lastChange = "2017-06-05 23:12:10 +0000";
layers = (
{
layerId = "840BD324-B0A6-42B0-BD23-CB5E8C19394F";
paths = (
{
closed = 1;
nodes = (
"461 1182 OFFCURVE",
"476 1170 OFFCURVE",
"476 1150 CURVE SMOOTH",
"476 82 LINE",
"696 82 LINE SMOOTH",
"722 82 OFFCURVE",
"735 61 OFFCURVE",
"735 41 CURVE SMOOTH",
"735 20 OFFCURVE",
"722 0 OFFCURVE",
"695 0 CURVE SMOOTH",
"146 0 LINE SMOOTH",
"115 0 OFFCURVE",
"100 21 OFFCURVE",
"100 42 CURVE SMOOTH",
"100 62 OFFCURVE",
"114 82 OFFCURVE",
"142 82 CURVE SMOOTH",
"380 82 LINE",
"380 1090 LINE",
"146 1061 LINE SMOOTH",
"143 1061 OFFCURVE",
"141 1060 OFFCURVE",
"139 1060 CURVE SMOOTH",
"112 1060 OFFCURVE",
"98 1081 OFFCURVE",
"98 1102 CURVE SMOOTH",
"98 1121 OFFCURVE",
"108 1139 OFFCURVE",
"130 1142 CURVE SMOOTH",
"429 1181 LINE SMOOTH",
"432 1181 OFFCURVE",
"435 1182 OFFCURVE",
"440 1182 CURVE SMOOTH"
);
},
{
closed = 1;
nodes = (
"908 1130 OFFCURVE",
"948 1171 OFFCURVE",
"999 1171 CURVE SMOOTH",
"1049 1171 OFFCURVE",
"1089 1130 OFFCURVE",
"1089 1080 CURVE SMOOTH",
"1089 1029 OFFCURVE",
"1049 990 OFFCURVE",
"999 990 CURVE SMOOTH",
"948 990 OFFCURVE",
"908 1029 OFFCURVE",
"908 1080 CURVE SMOOTH"
);
},
{
closed = 1;
nodes = (
"1066 -198 OFFCURVE",
"923 -309 OFFCURVE",
"678 -309 CURVE SMOOTH",
"645 -309 OFFCURVE",
"627 -287 OFFCURVE",
"627 -265 CURVE SMOOTH",
"627 -243 OFFCURVE",
"646 -220 OFFCURVE",
"685 -220 CURVE SMOOTH",
"860 -220 OFFCURVE",
"970 -155 OFFCURVE",
"970 50 CURVE SMOOTH",
"970 732 LINE",
"704 702 LINE SMOOTH",
"675 699 OFFCURVE",
"660 724 OFFCURVE",
"660 745 CURVE SMOOTH",
"660 765 OFFCURVE",
"674 782 OFFCURVE",
"700 784 CURVE SMOOTH",
"1030 814 LINE SMOOTH",
"1050 816 OFFCURVE",
"1066 806 OFFCURVE",
"1066 785 CURVE SMOOTH",
"1066 50 LINE SMOOTH"
);
}
);
width = 1240;
}
);
unicode = 01C9;
},
{
glyphname = lslash;
lastChange = "2016-08-10 13:30:31 +0000";
layers = (
{
components = (
{
name = l;
}
);
layerId = "840BD324-B0A6-42B0-BD23-CB5E8C19394F";
paths = (
{
closed = 1;
nodes = (
"896 796 LINE SMOOTH",
"902 798 OFFCURVE",
"907 799 OFFCURVE",
"912 799 CURVE SMOOTH",
"934 799 OFFCURVE",
"949 778 OFFCURVE",
"949 757 CURVE SMOOTH",
"949 744 OFFCURVE",
"943 731 OFFCURVE",
"929 725 CURVE SMOOTH",
"435 523 LINE SMOOTH",
"429 521 OFFCURVE",
"423 519 OFFCURVE",
"418 519 CURVE SMOOTH",
"394 519 OFFCURVE",
"376 541 OFFCURVE",
"376 562 CURVE SMOOTH",
"376 575 OFFCURVE",
"383 588 OFFCURVE",
"400 595 CURVE SMOOTH"
);
}
);
width = 1240;
}
);
unicode = 0142;
},
{
glyphname = m;
lastChange = "2017-06-03 23:49:04 +0000";
layers = (
{
anchors = (
{
name = bottom;
position = "{620, 0}";
},
{
name = top;
position = "{620, 774}";
}
);
layerId = "840BD324-B0A6-42B0-BD23-CB5E8C19394F";
paths = (
{
closed = 1;
nodes = (
"647 709 OFFCURVE",
"715 813 OFFCURVE",
"858 813 CURVE SMOOTH",
"983 813 OFFCURVE",
"1067 724 OFFCURVE",
"1067 533 CURVE SMOOTH",
"1067 82 LINE",
"1176 82 LINE SMOOTH",
"1203 82 OFFCURVE",
"1216 62 OFFCURVE",
"1216 42 CURVE SMOOTH",
"1216 21 OFFCURVE",
"1202 0 OFFCURVE",
"1174 0 CURVE SMOOTH",
"1017 0 LINE SMOOTH",
"986 0 OFFCURVE",
"971 22 OFFCURVE",
"971 43 CURVE SMOOTH",
"971 540 LINE SMOOTH",
"971 659 OFFCURVE",
"933 730 OFFCURVE",
"852 731 CURVE SMOOTH",
"733 732 OFFCURVE",
"686 639 OFFCURVE",
"660 600 CURVE",
"637 695 LINE"
);
},
{
closed = 1;
nodes = (
"307 82 LINE",
"392 82 LINE SMOOTH",
"424 82 OFFCURVE",
"440 62 OFFCURVE",
"440 42 CURVE SMOOTH",
"440 21 OFFCURVE",
"423 0 OFFCURVE",
"390 0 CURVE SMOOTH",
"107 0 LINE SMOOTH",
"76 0 OFFCURVE",
"61 22 OFFCURVE",
"61 43 CURVE SMOOTH",
"61 63 OFFCURVE",
"75 82 OFFCURVE",
"103 82 CURVE SMOOTH",
"211 82 LINE",
"211 709 LINE",
"103 687 LINE SMOOTH",
"96 686 OFFCURVE",
"89 684 OFFCURVE",
"83 684 CURVE SMOOTH",
"59 684 OFFCURVE",
"44 702 OFFCURVE",
"44 722 CURVE SMOOTH",
"44 738 OFFCURVE",
"53 757 OFFCURVE",
"77 763 CURVE",
"241 796 LINE SMOOTH",
"248 797 OFFCURVE",
"254 798 OFFCURVE",
"259 798 CURVE SMOOTH",
"286 798 OFFCURVE",
"296 782 OFFCURVE",
"298 759 CURVE SMOOTH",
"307 639 LINE",
"307 503 LINE"
);
},
{
closed = 1;
nodes = (
"281 684 OFFCURVE",
"335 813 OFFCURVE",
"477 813 CURVE SMOOTH",
"602 813 OFFCURVE",
"686 724 OFFCURVE",
"686 533 CURVE SMOOTH",
"686 82 LINE",
"801 82 LINE SMOOTH",
"828 82 OFFCURVE",
"841 62 OFFCURVE",
"841 42 CURVE SMOOTH",
"841 21 OFFCURVE",
"827 0 OFFCURVE",
"799 0 CURVE SMOOTH",
"636 0 LINE SMOOTH",
"605 0 OFFCURVE",
"590 22 OFFCURVE",
"590 43 CURVE SMOOTH",
"590 540 LINE SMOOTH",
"590 659 OFFCURVE",
"552 731 OFFCURVE",
"471 731 CURVE SMOOTH",
"361 731 OFFCURVE",
"296 607 OFFCURVE",
"297 562 CURVE",
"276 669 LINE"
);
}
);
width = 1240;
}
);
unicode = 006D;
},
{
glyphname = n;
lastChange = "2017-06-06 00:38:58 +0000";
layers = (
{
anchors = (
{
name = apo;
position = "{262, 942}";
},
{
name = bottom;
position = "{620, 0}";
},
{
name = top;
position = "{620, 774}";
}
);
layerId = "840BD324-B0A6-42B0-BD23-CB5E8C19394F";
paths = (
{
closed = 1;
nodes = (
"399 82 LINE",
"504 82 LINE SMOOTH",
"536 82 OFFCURVE",
"552 62 OFFCURVE",
"552 42 CURVE SMOOTH",
"552 21 OFFCURVE",
"535 0 OFFCURVE",
"502 0 CURVE SMOOTH",
"199 0 LINE SMOOTH",
"168 0 OFFCURVE",
"153 22 OFFCURVE",
"153 43 CURVE SMOOTH",
"153 63 OFFCURVE",
"167 82 OFFCURVE",
"195 82 CURVE SMOOTH",
"303 82 LINE",
"303 709 LINE",
"195 687 LINE SMOOTH",
"188 686 OFFCURVE",
"181 684 OFFCURVE",
"175 684 CURVE SMOOTH",
"151 684 OFFCURVE",
"136 702 OFFCURVE",
"136 722 CURVE SMOOTH",
"136 738 OFFCURVE",
"145 757 OFFCURVE",
"169 763 CURVE",
"333 796 LINE SMOOTH",
"340 797 OFFCURVE",
"346 798 OFFCURVE",
"351 798 CURVE SMOOTH",
"378 798 OFFCURVE",
"388 782 OFFCURVE",
"390 759 CURVE SMOOTH",
"399 639 LINE"
);
},
{
closed = 1;
nodes = (
"415 721 OFFCURVE",
"543 813 OFFCURVE",
"691 813 CURVE SMOOTH",
"894 813 OFFCURVE",
"992 707 OFFCURVE",
"992 523 CURVE SMOOTH",
"992 82 LINE",
"1101 82 LINE SMOOTH",
"1128 82 OFFCURVE",
"1141 62 OFFCURVE",
"1141 42 CURVE SMOOTH",
"1141 21 OFFCURVE",
"1127 0 OFFCURVE",
"1099 0 CURVE SMOOTH",
"754 0 LINE SMOOTH",
"723 0 OFFCURVE",
"708 22 OFFCURVE",
"708 43 CURVE SMOOTH",
"708 63 OFFCURVE",
"722 82 OFFCURVE",
"750 82 CURVE SMOOTH",
"896 82 LINE",
"896 520 LINE SMOOTH",
"896 659 OFFCURVE",
"827 731 OFFCURVE",
"696 731 CURVE SMOOTH",
"535 731 OFFCURVE",
"420 631 OFFCURVE",
"396 567 CURVE",
"396 691 LINE"
);
}
);
width = 1240;
}
);
unicode = 006E;
},
{
glyphname = eng;
lastChange = "2016-08-10 13:30:31 +0000";
layers = (
{
layerId = "840BD324-B0A6-42B0-BD23-CB5E8C19394F";
paths = (
{
closed = 1;
nodes = (
"484 -308 CURVE SMOOTH",
"451 -308 OFFCURVE",
"433 -286 OFFCURVE",
"433 -264 CURVE SMOOTH",
"433 -242 OFFCURVE",
"452 -219 OFFCURVE",
"491 -219 CURVE SMOOTH",
"666 -219 OFFCURVE",
"916 -154 OFFCURVE",
"916 1 CURVE SMOOTH",
"916 540 LINE SMOOTH",
"916 659 OFFCURVE",
"857 731 OFFCURVE",
"736 731 CURVE SMOOTH",
"544 731 OFFCURVE",
"416 604 OFFCURVE",
"416 503 CURVE SMOOTH",
"416 82 LINE",
"521 82 LINE SMOOTH",
"553 82 OFFCURVE",
"569 62 OFFCURVE",
"569 42 CURVE SMOOTH",
"569 21 OFFCURVE",
"552 0 OFFCURVE",
"519 0 CURVE SMOOTH",
"216 0 LINE SMOOTH",
"185 0 OFFCURVE",
"170 22 OFFCURVE",
"170 43 CURVE SMOOTH",
"170 63 OFFCURVE",
"184 82 OFFCURVE",
"212 82 CURVE SMOOTH",
"320 82 LINE",
"320 709 LINE",
"212 687 LINE SMOOTH",
"205 685 OFFCURVE",
"198 684 OFFCURVE",
"192 684 CURVE SMOOTH",
"168 684 OFFCURVE",
"153 702 OFFCURVE",
"153 722 CURVE SMOOTH",
"153 738 OFFCURVE",
"162 757 OFFCURVE",
"186 763 CURVE",
"350 796 LINE SMOOTH",
"357 797 OFFCURVE",
"363 798 OFFCURVE",
"368 798 CURVE SMOOTH",
"395 798 OFFCURVE",
"406 782 OFFCURVE",
"407 759 CURVE SMOOTH",
"412 639 LINE",
"462 737 OFFCURVE",
"592 813 OFFCURVE",
"731 813 CURVE SMOOTH",
"924 813 OFFCURVE",
"1012 707 OFFCURVE",
"1012 533 CURVE SMOOTH",
"1012 -9 LINE SMOOTH",
"1012 -197 OFFCURVE",
"729 -308 OFFCURVE"
);
}
);
width = 1240;
}
);
unicode = 014B;
},
{
glyphname = nj;
lastChange = "2017-06-05 23:28:18 +0000";
layers = (
{
layerId = "840BD324-B0A6-42B0-BD23-CB5E8C19394F";
paths = (
{
closed = 1;
nodes = (
"238 82 LINE",
"333 82 LINE SMOOTH",
"365 82 OFFCURVE",
"381 62 OFFCURVE",
"381 42 CURVE SMOOTH",
"381 21 OFFCURVE",
"364 0 OFFCURVE",
"331 0 CURVE SMOOTH",
"88 0 LINE SMOOTH",
"57 0 OFFCURVE",
"42 22 OFFCURVE",
"42 43 CURVE SMOOTH",
"42 63 OFFCURVE",
"56 82 OFFCURVE",
"84 82 CURVE SMOOTH",
"142 82 LINE",
"142 709 LINE",
"84 699 LINE SMOOTH",
"77 697 OFFCURVE",
"70 696 OFFCURVE",
"64 696 CURVE SMOOTH",
"40 696 OFFCURVE",
"25 714 OFFCURVE",
"25 734 CURVE SMOOTH",
"25 750 OFFCURVE",
"34 769 OFFCURVE",
"58 775 CURVE",
"172 796 LINE SMOOTH",
"179 797 OFFCURVE",
"185 798 OFFCURVE",
"190 798 CURVE SMOOTH",
"217 798 OFFCURVE",
"226 782 OFFCURVE",
"229 759 CURVE SMOOTH",
"238 699 LINE"
);
},
{
closed = 1;
nodes = (
"953 1130 OFFCURVE",
"993 1171 OFFCURVE",
"1044 1171 CURVE SMOOTH",
"1094 1171 OFFCURVE",
"1134 1130 OFFCURVE",
"1134 1080 CURVE SMOOTH",
"1134 1029 OFFCURVE",
"1094 990 OFFCURVE",
"1044 990 CURVE SMOOTH",
"993 990 OFFCURVE",
"953 1029 OFFCURVE",
"953 1080 CURVE SMOOTH"
);
},
{
closed = 1;
nodes = (
"1136 -178 OFFCURVE",
"973 -309 OFFCURVE",
"748 -309 CURVE SMOOTH",
"715 -309 OFFCURVE",
"697 -287 OFFCURVE",
"697 -265 CURVE SMOOTH",
"697 -243 OFFCURVE",
"716 -220 OFFCURVE",
"755 -220 CURVE SMOOTH",
"910 -220 OFFCURVE",
"1040 -135 OFFCURVE",
"1040 40 CURVE SMOOTH",
"1040 727 LINE",
"854 712 LINE SMOOTH",
"825 710 OFFCURVE",
"810 734 OFFCURVE",
"810 755 CURVE SMOOTH",
"810 775 OFFCURVE",
"824 792 OFFCURVE",
"850 794 CURVE SMOOTH",
"1100 814 LINE SMOOTH",
"1120 816 OFFCURVE",
"1136 806 OFFCURVE",
"1136 785 CURVE SMOOTH",
"1136 37 LINE SMOOTH"
);
},
{
closed = 1;
nodes = (
"255 721 OFFCURVE",
"373 813 OFFCURVE",
"501 813 CURVE SMOOTH",
"684 813 OFFCURVE",
"765 707 OFFCURVE",
"767 523 CURVE SMOOTH",
"772 82 LINE",
"871 82 LINE SMOOTH",
"898 82 OFFCURVE",
"911 62 OFFCURVE",
"911 42 CURVE SMOOTH",
"911 21 OFFCURVE",
"897 0 OFFCURVE",
"869 0 CURVE SMOOTH",
"584 0 LINE SMOOTH",
"553 0 OFFCURVE",
"538 22 OFFCURVE",
"538 43 CURVE SMOOTH",
"538 63 OFFCURVE",
"552 82 OFFCURVE",
"580 82 CURVE SMOOTH",
"676 82 LINE",
"674 519 LINE SMOOTH",
"673 659 OFFCURVE",
"617 731 OFFCURVE",
"506 731 CURVE SMOOTH",
"365 731 OFFCURVE",
"260 631 OFFCURVE",
"236 567 CURVE",
"236 691 LINE"
);
}
);
width = 1240;
}
);
unicode = 01CC;
},
{
glyphname = o;
lastChange = "2017-06-06 00:15:00 +0000";
layers = (
{
anchors = (
{
name = bottom;
position = "{620, 0}";
},
{
name = center;
position = "{620, 387}";
},
{
name = ogonek;
position = "{1116, 10}";
},
{
name = top;
position = "{620, 774}";
},
{
name = topright;
position = "{1220, 774}";
}
);
layerId = "840BD324-B0A6-42B0-BD23-CB5E8C19394F";
paths = (
{
closed = 1;
nodes = (
"873 -17 OFFCURVE",
"1044 145 OFFCURVE",
"1044 398 CURVE SMOOTH",
"1044 654 OFFCURVE",
"873 813 OFFCURVE",
"620 813 CURVE SMOOTH",
"367 813 OFFCURVE",
"196 654 OFFCURVE",
"196 398 CURVE SMOOTH",
"196 145 OFFCURVE",
"367 -17 OFFCURVE",
"620 -17 CURVE SMOOTH"
);
},
{
closed = 1;
nodes = (
"419 65 OFFCURVE",
"294 203 OFFCURVE",
"294 398 CURVE SMOOTH",
"294 592 OFFCURVE",
"419 731 OFFCURVE",
"620 731 CURVE SMOOTH",
"821 731 OFFCURVE",
"946 592 OFFCURVE",
"946 398 CURVE SMOOTH",
"946 203 OFFCURVE",
"821 65 OFFCURVE",
"620 65 CURVE SMOOTH"
);
}
);
width = 1240;
}
);
unicode = 006F;
},
{
glyphname = oslash;
lastChange = "2017-06-06 00:18:44 +0000";
layers = (
{
components = (
{
name = o;
}
);
layerId = "840BD324-B0A6-42B0-BD23-CB5E8C19394F";
paths = (
{
closed = 1;
nodes = (
"396 -142 OFFCURVE",
"404 -134 OFFCURVE",
"410 -121 CURVE SMOOTH",
"891 888 LINE SMOOTH",
"893 892 OFFCURVE",
"894 896 OFFCURVE",
"894 900 CURVE SMOOTH",
"894 922 OFFCURVE",
"881 934 OFFCURVE",
"861 934 CURVE SMOOTH",
"848 934 OFFCURVE",
"839 929 OFFCURVE",
"834 917 CURVE SMOOTH",
"350 -95 LINE SMOOTH",
"348 -99 OFFCURVE",
"347 -103 OFFCURVE",
"347 -108 CURVE SMOOTH",
"347 -129 OFFCURVE",
"360 -142 OFFCURVE",
"380 -142 CURVE SMOOTH"
);
}
);
width = 1240;
}
);
unicode = 00F8;
},
{
glyphname = oe;
lastChange = "2016-08-10 13:30:31 +0000";
layers = (
{
layerId = "840BD324-B0A6-42B0-BD23-CB5E8C19394F";
paths = (
{
closed = 1;
nodes = (
"1128 479 CURVE SMOOTH",
"1128 429 OFFCURVE",
"1098 392 OFFCURVE",
"1051 392 CURVE SMOOTH",
"675 387 LINE",
"682 171 OFFCURVE",
"780 61 OFFCURVE",
"890 61 CURVE SMOOTH",
"951 61 OFFCURVE",
"1015 94 OFFCURVE",
"1071 162 CURVE SMOOTH",
"1077 169 OFFCURVE",
"1085 172 OFFCURVE",
"1094 172 CURVE SMOOTH",
"1113 172 OFFCURVE",
"1136 158 OFFCURVE",
"1136 137 CURVE SMOOTH",
"1136 128 OFFCURVE",
"1131 117 OFFCURVE",
"1121 105 CURVE SMOOTH",
"1045 21 OFFCURVE",
"963 -10 OFFCURVE",
"886 -10 CURVE SMOOTH",
"775 -10 OFFCURVE",
"677 45 OFFCURVE",
"631 205 CURVE",
"581 49 OFFCURVE",
"477 -10 OFFCURVE",
"378 -10 CURVE SMOOTH",
"238 -10 OFFCURVE",
"99 126 OFFCURVE",
"99 398 CURVE SMOOTH",
"99 671 OFFCURVE",
"241 807 OFFCURVE",
"383 807 CURVE SMOOTH",
"482 807 OFFCURVE",
"588 750 OFFCURVE",
"629 587 CURVE",
"676 751 OFFCURVE",
"782 812 OFFCURVE",
"882 812 CURVE SMOOTH",
"1005 812 OFFCURVE",
"1128 705 OFFCURVE"
);
},
{
closed = 1;
nodes = (
"678 456 CURVE",
"1043 460 LINE",
"1043 637 OFFCURVE",
"960 732 OFFCURVE",
"877 732 CURVE SMOOTH",
"794 732 OFFCURVE",
"711 637 OFFCURVE"
);
},
{
closed = 1;
nodes = (
"579 398 CURVE SMOOTH",
"579 615 OFFCURVE",
"486 723 OFFCURVE",
"393 723 CURVE SMOOTH",
"300 723 OFFCURVE",
"207 615 OFFCURVE",
"207 398 CURVE SMOOTH",
"207 181 OFFCURVE",
"300 72 OFFCURVE",
"393 72 CURVE SMOOTH",
"486 72 OFFCURVE",
"579 181 OFFCURVE"
);
}
);
width = 1240;
}
);
unicode = 0153;
},
{
glyphname = p;
lastChange = "2017-06-03 23:49:16 +0000";
layers = (
{
anchors = (
{
name = bottom;
position = "{620, 0}";
},
{
name = top;
position = "{620, 774}";
}
);
layerId = "840BD324-B0A6-42B0-BD23-CB5E8C19394F";
paths = (
{
closed = 1;
nodes = (
"399 690 LINE",
"463 755 OFFCURVE",
"566 813 OFFCURVE",
"693 813 CURVE SMOOTH",
"928 813 OFFCURVE",
"1067 640 OFFCURVE",
"1067 398 CURVE SMOOTH",
"1067 160 OFFCURVE",
"923 -17 OFFCURVE",
"689 -17 CURVE SMOOTH",
"560 -17 OFFCURVE",
"479 25 OFFCURVE",
"405 89 CURVE",
"405 -288 LINE",
"621 -288 LINE SMOOTH",
"649 -288 OFFCURVE",
"663 -307 OFFCURVE",
"663 -327 CURVE SMOOTH",
"663 -348 OFFCURVE",
"648 -370 OFFCURVE",
"617 -370 CURVE SMOOTH",
"221 -370 LINE SMOOTH",
"193 -370 OFFCURVE",
"179 -349 OFFCURVE",
"179 -328 CURVE SMOOTH",
"179 -308 OFFCURVE",
"192 -288 OFFCURVE",
"219 -288 CURVE SMOOTH",
"309 -288 LINE",
"309 708 LINE",
"201 687 LINE SMOOTH",
"194 686 OFFCURVE",
"187 684 OFFCURVE",
"181 684 CURVE SMOOTH",
"157 684 OFFCURVE",
"142 702 OFFCURVE",
"142 722 CURVE SMOOTH",
"142 738 OFFCURVE",
"151 757 OFFCURVE",
"175 763 CURVE",
"339 796 LINE SMOOTH",
"346 797 OFFCURVE",
"352 798 OFFCURVE",
"357 798 CURVE SMOOTH",
"384 798 OFFCURVE",
"395 782 OFFCURVE",
"396 759 CURVE SMOOTH"
);
},
{
closed = 1;
nodes = (
"971 398 CURVE SMOOTH",
"971 577 OFFCURVE",
"877 731 OFFCURVE",
"691 731 CURVE SMOOTH",
"556 731 OFFCURVE",
"463 669 OFFCURVE",
"405 586 CURVE",
"405 194 LINE",
"468 115 OFFCURVE",
"556 65 OFFCURVE",
"683 65 CURVE SMOOTH",
"874 65 OFFCURVE",
"971 221 OFFCURVE"
);
}
);
width = 1240;
}
);
unicode = 0070;
},
{
glyphname = thorn;
lastChange = "2017-06-05 23:00:11 +0000";
layers = (
{
layerId = "840BD324-B0A6-42B0-BD23-CB5E8C19394F";
paths = (
{
closed = 1;
nodes = (
"409 1150 CURVE SMOOTH",
"409 690 LINE",
"473 755 OFFCURVE",
"570 813 OFFCURVE",
"697 813 CURVE SMOOTH",
"932 813 OFFCURVE",
"1071 640 OFFCURVE",
"1071 398 CURVE SMOOTH",
"1071 160 OFFCURVE",
"927 -17 OFFCURVE",
"693 -17 CURVE SMOOTH",
"564 -17 OFFCURVE",
"483 25 OFFCURVE",
"409 89 CURVE",
"409 -288 LINE",
"625 -288 LINE SMOOTH",
"653 -288 OFFCURVE",
"667 -307 OFFCURVE",
"667 -327 CURVE SMOOTH",
"667 -348 OFFCURVE",
"652 -370 OFFCURVE",
"621 -370 CURVE SMOOTH",
"225 -370 LINE SMOOTH",
"197 -370 OFFCURVE",
"183 -349 OFFCURVE",
"183 -328 CURVE SMOOTH",
"183 -308 OFFCURVE",
"196 -288 OFFCURVE",
"223 -288 CURVE SMOOTH",
"313 -288 LINE",
"313 1082 LINE",
"288 1079 OFFCURVE",
"153 1057 OFFCURVE",
"136 1057 CURVE SMOOTH",
"109 1057 OFFCURVE",
"96 1078 OFFCURVE",
"96 1099 CURVE SMOOTH",
"96 1118 OFFCURVE",
"106 1136 OFFCURVE",
"128 1139 CURVE SMOOTH",
"362 1181 LINE SMOOTH",
"364 1181 OFFCURVE",
"368 1182 OFFCURVE",
"373 1182 CURVE SMOOTH",
"394 1182 OFFCURVE",
"409 1170 OFFCURVE"
);
},
{
closed = 1;
nodes = (
"975 398 CURVE SMOOTH",
"975 577 OFFCURVE",
"881 731 OFFCURVE",
"695 731 CURVE SMOOTH",
"560 731 OFFCURVE",
"467 669 OFFCURVE",
"409 586 CURVE",
"409 194 LINE",
"472 115 OFFCURVE",
"560 65 OFFCURVE",
"687 65 CURVE SMOOTH",
"878 65 OFFCURVE",
"975 221 OFFCURVE"
);
}
);
width = 1240;
}
);
unicode = 00FE;
},
{
glyphname = q;
lastChange = "2017-06-03 23:49:15 +0000";
layers = (
{
anchors = (
{
name = bottom;
position = "{620, 0}";
},
{
name = top;
position = "{620, 774}";
}
);
layerId = "840BD324-B0A6-42B0-BD23-CB5E8C19394F";
paths = (
{
closed = 1;
nodes = (
"958 -288 LINE",
"1048 -288 LINE SMOOTH",
"1075 -288 OFFCURVE",
"1088 -308 OFFCURVE",
"1088 -328 CURVE SMOOTH",
"1088 -349 OFFCURVE",
"1074 -370 OFFCURVE",
"1046 -370 CURVE SMOOTH",
"650 -370 LINE SMOOTH",
"619 -370 OFFCURVE",
"604 -348 OFFCURVE",
"604 -327 CURVE SMOOTH",
"604 -307 OFFCURVE",
"618 -288 OFFCURVE",
"646 -288 CURVE SMOOTH",
"862 -288 LINE",
"862 89 LINE",
"788 25 OFFCURVE",
"707 -17 OFFCURVE",
"578 -17 CURVE SMOOTH",
"344 -17 OFFCURVE",
"200 160 OFFCURVE",
"200 398 CURVE SMOOTH",
"200 640 OFFCURVE",
"339 813 OFFCURVE",
"574 813 CURVE SMOOTH",
"701 813 OFFCURVE",
"802 759 OFFCURVE",
"866 694 CURVE",
"866 796 OFFCURVE",
"892 800 OFFCURVE",
"917 800 CURVE SMOOTH",
"938 800 OFFCURVE",
"958 791 OFFCURVE",
"958 724 CURVE SMOOTH"
);
},
{
closed = 1;
nodes = (
"296 398 CURVE SMOOTH",
"296 221 OFFCURVE",
"393 65 OFFCURVE",
"584 65 CURVE SMOOTH",
"711 65 OFFCURVE",
"799 115 OFFCURVE",
"862 194 CURVE",
"862 586 LINE",
"804 669 OFFCURVE",
"711 731 OFFCURVE",
"576 731 CURVE SMOOTH",
"390 731 OFFCURVE",
"296 577 OFFCURVE"
);
}
);
width = 1240;
}
);
unicode = 0071;
},
{
glyphname = r;
lastChange = "2017-06-07 01:15:13 +0000";
layers = (
{
anchors = (
{
name = bottom;
position = "{620, 0}";
},
{
name = top;
position = "{670, 774}";
}
);
layerId = "840BD324-B0A6-42B0-BD23-CB5E8C19394F";
paths = (
{
closed = 1;
nodes = (
"721 797 OFFCURVE",
"585 709 OFFCURVE",
"536 638 CURVE",
"532 742 LINE SMOOTH",
"531 775 OFFCURVE",
"526 798 OFFCURVE",
"494 798 CURVE SMOOTH",
"488 798 OFFCURVE",
"480 797 OFFCURVE",
"471 795 CURVE SMOOTH",
"300 761 LINE SMOOTH",
"280 757 OFFCURVE",
"270 740 OFFCURVE",
"270 723 CURVE SMOOTH",
"270 703 OFFCURVE",
"283 683 OFFCURVE",
"310 683 CURVE SMOOTH",
"314 683 OFFCURVE",
"318 683 OFFCURVE",
"322 684 CURVE SMOOTH",
"444 709 LINE",
"444 82 LINE",
"261 82 LINE SMOOTH",
"233 82 OFFCURVE",
"219 62 OFFCURVE",
"219 42 CURVE SMOOTH",
"219 21 OFFCURVE",
"234 0 OFFCURVE",
"265 0 CURVE SMOOTH",
"875 0 LINE SMOOTH",
"902 0 OFFCURVE",
"916 21 OFFCURVE",
"916 41 CURVE SMOOTH",
"916 62 OFFCURVE",
"903 82 OFFCURVE",
"876 82 CURVE SMOOTH",
"540 82 LINE",
"540 516 LINE",
"605 643 OFFCURVE",
"749 720 OFFCURVE",
"920 720 CURVE",
"925 627 OFFCURVE",
"938 561 OFFCURVE",
"986 561 CURVE SMOOTH",
"1027 561 OFFCURVE",
"1046 593 OFFCURVE",
"1046 633 CURVE SMOOTH",
"1046 699 OFFCURVE",
"1014 797 OFFCURVE",
"904 797 CURVE SMOOTH"
);
}
);
width = 1240;
}
);
unicode = 0072;
},
{
glyphname = s;
lastChange = "2017-06-07 01:15:04 +0000";
layers = (
{
anchors = (
{
name = bottom;
position = "{620, 0}";
},
{
name = top;
position = "{620, 774}";
}
);
layerId = "840BD324-B0A6-42B0-BD23-CB5E8C19394F";
paths = (
{
closed = 1;
nodes = (
"287 732 OFFCURVE",
"430 813 OFFCURVE",
"599 813 CURVE SMOOTH",
"724 813 OFFCURVE",
"827 774 OFFCURVE",
"868 721 CURVE",
"878 758 LINE SMOOTH",
"887 790 OFFCURVE",
"899 808 OFFCURVE",
"920 808 CURVE SMOOTH",
"941 808 OFFCURVE",
"961 792 OFFCURVE",
"961 759 CURVE SMOOTH",
"959 558 LINE SMOOTH",
"959 534 OFFCURVE",
"946 521 OFFCURVE",
"919 521 CURVE SMOOTH",
"891 521 OFFCURVE",
"869 533 OFFCURVE",
"869 558 CURVE SMOOTH",
"869 663 OFFCURVE",
"740 731 OFFCURVE",
"599 731 CURVE SMOOTH",
"492 731 OFFCURVE",
"390 683 OFFCURVE",
"390 611 CURVE SMOOTH",
"390 412 OFFCURVE",
"978 507 OFFCURVE",
"978 198 CURVE SMOOTH",
"978 65 OFFCURVE",
"830 -17 OFFCURVE",
"662 -17 CURVE SMOOTH",
"495 -17 OFFCURVE",
"424 39 OFFCURVE",
"382 102 CURVE",
"362 42 LINE SMOOTH",
"352 13 OFFCURVE",
"344 0 OFFCURVE",
"326 0 CURVE SMOOTH",
"306 0 OFFCURVE",
"286 15 OFFCURVE",
"286 39 CURVE SMOOTH",
"288 265 LINE SMOOTH",
"288 302 OFFCURVE",
"306 317 OFFCURVE",
"323 317 CURVE SMOOTH",
"341 317 OFFCURVE",
"380 302 OFFCURVE",
"380 265 CURVE SMOOTH",
"380 166 OFFCURVE",
"474 69 OFFCURVE",
"646 69 CURVE SMOOTH",
"773 69 OFFCURVE",
"881 117 OFFCURVE",
"881 199 CURVE SMOOTH",
"881 419 OFFCURVE",
"287 330 OFFCURVE",
"287 611 CURVE SMOOTH"
);
},
{
closed = 1;
nodes = (
"868 758 LINE SMOOTH",
"868 791 OFFCURVE",
"889 808 OFFCURVE",
"915 808 CURVE SMOOTH",
"937 808 OFFCURVE",
"961 792 OFFCURVE",
"961 759 CURVE SMOOTH",
"959 558 LINE SMOOTH",
"959 534 OFFCURVE",
"942 522 OFFCURVE",
"914 521 CURVE SMOOTH",
"886 520 OFFCURVE",
"869 533 OFFCURVE",
"869 558 CURVE"
);
},
{
closed = 1;
nodes = (
"380 42 LINE SMOOTH",
"380 12 OFFCURVE",
"362 0 OFFCURVE",
"335 0 CURVE SMOOTH",
"306 0 OFFCURVE",
"286 15 OFFCURVE",
"286 39 CURVE SMOOTH",
"288 265 LINE SMOOTH",
"288 302 OFFCURVE",
"306 317 OFFCURVE",
"332 317 CURVE SMOOTH",
"359 317 OFFCURVE",
"378 302 OFFCURVE",
"378 265 CURVE SMOOTH"
);
}
);
width = 1240;
}
);
unicode = 0073;
},
{
glyphname = germandbls;
lastChange = "2016-08-10 13:30:31 +0000";
layers = (
{
layerId = "840BD324-B0A6-42B0-BD23-CB5E8C19394F";
paths = (
{
closed = 1;
nodes = (
"928 894 CURVE SMOOTH",
"928 760 OFFCURVE",
"817 670 OFFCURVE",
"725 643 CURVE",
"882 612 OFFCURVE",
"1052 530 OFFCURVE",
"1052 318 CURVE SMOOTH",
"1052 124 OFFCURVE",
"922 30 OFFCURVE",
"724 0 CURVE SMOOTH",
"719 -1 OFFCURVE",
"714 -1 OFFCURVE",
"710 -1 CURVE SMOOTH",
"680 -1 OFFCURVE",
"663 17 OFFCURVE",
"663 44 CURVE SMOOTH",
"663 73 OFFCURVE",
"682 75 OFFCURVE",
"724 82 CURVE SMOOTH",
"839 100 OFFCURVE",
"954 151 OFFCURVE",
"954 320 CURVE SMOOTH",
"954 522 OFFCURVE",
"762 591 OFFCURVE",
"579 591 CURVE SMOOTH",
"547 591 OFFCURVE",
"532 614 OFFCURVE",
"532 636 CURVE SMOOTH",
"532 658 OFFCURVE",
"546 677 OFFCURVE",
"579 677 CURVE SMOOTH",
"686 677 OFFCURVE",
"835 744 OFFCURVE",
"835 898 CURVE SMOOTH",
"835 1030 OFFCURVE",
"746 1106 OFFCURVE",
"619 1106 CURVE SMOOTH",
"476 1106 OFFCURVE",
"370 1011 OFFCURVE",
"370 706 CURVE SMOOTH",
"370 82 LINE",
"526 82 LINE SMOOTH",
"561 82 OFFCURVE",
"575 72 OFFCURVE",
"575 38 CURVE SMOOTH",
"575 8 OFFCURVE",
"556 0 OFFCURVE",
"524 0 CURVE SMOOTH",
"145 0 LINE SMOOTH",
"113 0 OFFCURVE",
"94 8 OFFCURVE",
"94 38 CURVE SMOOTH",
"94 72 OFFCURVE",
"108 82 OFFCURVE",
"143 82 CURVE SMOOTH",
"274 82 LINE",
"274 700 LINE SMOOTH",
"274 1085 OFFCURVE",
"438 1188 OFFCURVE",
"614 1188 CURVE SMOOTH",
"781 1188 OFFCURVE",
"928 1083 OFFCURVE"
);
}
);
width = 1240;
}
);
unicode = 00DF;
},
{
glyphname = t;
lastChange = "2017-06-06 00:17:17 +0000";
layers = (
{
anchors = (
{
name = bottom;
position = "{620, 0}";
},
{
name = center;
position = "{620, 387}";
},
{
name = top;
position = "{690, 774}";
},
{
name = topright;
position = "{1220, 774}";
}
);
layerId = "840BD324-B0A6-42B0-BD23-CB5E8C19394F";
paths = (
{
closed = 1;
nodes = (
"837 -17 OFFCURVE",
"944 41 OFFCURVE",
"984 88 CURVE SMOOTH",
"990 95 OFFCURVE",
"995 102 OFFCURVE",
"995 118 CURVE SMOOTH",
"995 132 OFFCURVE",
"983 156 OFFCURVE",
"957 156 CURVE SMOOTH",
"946 156 OFFCURVE",
"939 153 OFFCURVE",
"930 146 CURVE SMOOTH",
"874 103 OFFCURVE",
"802 65 OFFCURVE",
"677 65 CURVE SMOOTH",
"583 65 OFFCURVE",
"495 102 OFFCURVE",
"495 244 CURVE SMOOTH",
"495 692 LINE",
"866 692 LINE SMOOTH",
"893 692 OFFCURVE",
"906 712 OFFCURVE",
"906 733 CURVE SMOOTH",
"906 753 OFFCURVE",
"893 774 OFFCURVE",
"867 774 CURVE SMOOTH",
"495 774 LINE",
"495 1013 LINE SMOOTH",
"495 1037 OFFCURVE",
"482 1058 OFFCURVE",
"449 1058 CURVE SMOOTH",
"423 1058 OFFCURVE",
"400 1037 OFFCURVE",
"400 1013 CURVE SMOOTH",
"400 966 OFFCURVE",
"399 893 OFFCURVE",
"399 774 CURVE",
"252 774 LINE SMOOTH",
"224 774 OFFCURVE",
"210 755 OFFCURVE",
"210 735 CURVE SMOOTH",
"210 714 OFFCURVE",
"225 692 OFFCURVE",
"256 692 CURVE SMOOTH",
"399 692 LINE",
"399 240 LINE SMOOTH",
"399 70 OFFCURVE",
"529 -17 OFFCURVE",
"667 -17 CURVE SMOOTH"
);
}
);
width = 1240;
}
);
unicode = 0074;
},
{
glyphname = tbar;
lastChange = "2017-06-06 00:29:23 +0000";
layers = (
{
components = (
{
name = t;
}
);
layerId = "840BD324-B0A6-42B0-BD23-CB5E8C19394F";
paths = (
{
closed = 1;
nodes = (
"763 428 LINE SMOOTH",
"796 428 OFFCURVE",
"804 448 OFFCURVE",
"804 467 CURVE SMOOTH",
"804 486 OFFCURVE",
"798 504 OFFCURVE",
"765 504 CURVE SMOOTH",
"316 504 LINE SMOOTH",
"281 504 OFFCURVE",
"274 486 OFFCURVE",
"274 467 CURVE SMOOTH",
"274 448 OFFCURVE",
"283 428 OFFCURVE",
"320 428 CURVE SMOOTH"
);
}
);
width = 1240;
}
);
unicode = 0167;
},
{
glyphname = u;
lastChange = "2017-06-03 23:49:12 +0000";
layers = (
{
anchors = (
{
name = bottom;
position = "{620, 0}";
},
{
name = ogonek;
position = "{1116, 10}";
},
{
name = top;
position = "{620, 774}";
},
{
name = topright;
position = "{1220, 774}";
}
);
layerId = "840BD324-B0A6-42B0-BD23-CB5E8C19394F";
paths = (
{
closed = 1;
nodes = (
"866 706 LINE",
"769 686 LINE SMOOTH",
"763 684 OFFCURVE",
"757 683 OFFCURVE",
"751 683 CURVE SMOOTH",
"722 683 OFFCURVE",
"704 705 OFFCURVE",
"704 726 CURVE SMOOTH",
"704 743 OFFCURVE",
"716 760 OFFCURVE",
"742 765 CURVE SMOOTH",
"916 800 LINE SMOOTH",
"920 801 OFFCURVE",
"924 802 OFFCURVE",
"928 802 CURVE SMOOTH",
"948 802 OFFCURVE",
"962 787 OFFCURVE",
"962 768 CURVE SMOOTH",
"962 85 LINE",
"1110 96 LINE",
"1116 96 LINE SMOOTH",
"1144 96 OFFCURVE",
"1156 79 OFFCURVE",
"1156 61 CURVE SMOOTH",
"1156 42 OFFCURVE",
"1143 22 OFFCURVE",
"1118 17 CURVE",
"932 -3 LINE",
"925 -3 LINE SMOOTH",
"899 -3 OFFCURVE",
"883 13 OFFCURVE",
"878 47 CURVE SMOOTH",
"866 134 LINE"
);
},
{
closed = 1;
nodes = (
"812 40 OFFCURVE",
"719 -17 OFFCURVE",
"571 -17 CURVE SMOOTH",
"387 -17 OFFCURVE",
"270 91 OFFCURVE",
"270 272 CURVE SMOOTH",
"270 706 LINE",
"172 686 LINE SMOOTH",
"166 685 OFFCURVE",
"160 684 OFFCURVE",
"155 684 CURVE SMOOTH",
"127 684 OFFCURVE",
"109 706 OFFCURVE",
"109 727 CURVE SMOOTH",
"109 744 OFFCURVE",
"120 760 OFFCURVE",
"145 765 CURVE SMOOTH",
"320 800 LINE SMOOTH",
"324 801 OFFCURVE",
"328 802 OFFCURVE",
"332 802 CURVE SMOOTH",
"352 802 OFFCURVE",
"366 787 OFFCURVE",
"366 768 CURVE SMOOTH",
"366 269 LINE SMOOTH",
"366 148 OFFCURVE",
"438 65 OFFCURVE",
"572 65 CURVE SMOOTH",
"710 65 OFFCURVE",
"812 138 OFFCURVE",
"866 226 CURVE",
"873 109 LINE"
);
}
);
width = 1240;
}
);
unicode = 0075;
},
{
glyphname = v;
lastChange = "2017-06-03 23:49:11 +0000";
layers = (
{
anchors = (
{
name = bottom;
position = "{620, 0}";
},
{
name = top;
position = "{620, 774}";
}
);
layerId = "840BD324-B0A6-42B0-BD23-CB5E8C19394F";
paths = (
{
closed = 1;
nodes = (
"491 774 LINE SMOOTH",
"524 774 OFFCURVE",
"535 753 OFFCURVE",
"535 730 CURVE SMOOTH",
"535 710 OFFCURVE",
"524 692 OFFCURVE",
"492 692 CURVE SMOOTH",
"383 692 LINE",
"647 92 LINE",
"891 692 LINE",
"806 692 LINE SMOOTH",
"773 692 OFFCURVE",
"762 710 OFFCURVE",
"762 730 CURVE SMOOTH",
"762 753 OFFCURVE",
"774 774 OFFCURVE",
"807 774 CURVE SMOOTH",
"1071 774 LINE SMOOTH",
"1109 774 OFFCURVE",
"1123 756 OFFCURVE",
"1123 733 CURVE SMOOTH",
"1123 711 OFFCURVE",
"1110 692 OFFCURVE",
"1075 692 CURVE SMOOTH",
"986 692 LINE",
"719 54 LINE SMOOTH",
"693 -8 OFFCURVE",
"674 -14 OFFCURVE",
"647 -14 CURVE SMOOTH",
"620 -14 OFFCURVE",
"598 -8 OFFCURVE",
"567 59 CURVE SMOOTH",
"273 692 LINE",
"172 692 LINE SMOOTH",
"138 692 OFFCURVE",
"125 711 OFFCURVE",
"125 733 CURVE SMOOTH",
"125 756 OFFCURVE",
"138 774 OFFCURVE",
"176 774 CURVE SMOOTH"
);
}
);
width = 1240;
}
);
unicode = 0076;
},
{
glyphname = w;
lastChange = "2017-06-03 23:49:10 +0000";
layers = (
{
anchors = (
{
name = bottom;
position = "{620, 0}";
},
{
name = top;
position = "{620, 774}";
}
);
layerId = "840BD324-B0A6-42B0-BD23-CB5E8C19394F";
paths = (
{
closed = 1;
nodes = (
"755 774 LINE SMOOTH",
"788 774 OFFCURVE",
"808 753 OFFCURVE",
"808 732 CURVE SMOOTH",
"808 712 OFFCURVE",
"788 692 OFFCURVE",
"756 692 CURVE SMOOTH",
"657 692 LINE",
"869 92 LINE",
"1038 692 LINE",
"983 692 LINE SMOOTH",
"950 692 OFFCURVE",
"929 713 OFFCURVE",
"929 733 CURVE SMOOTH",
"929 754 OFFCURVE",
"951 774 OFFCURVE",
"984 774 CURVE SMOOTH",
"1184 774 LINE SMOOTH",
"1222 774 OFFCURVE",
"1240 754 OFFCURVE",
"1240 733 CURVE SMOOTH",
"1240 713 OFFCURVE",
"1223 692 OFFCURVE",
"1188 692 CURVE SMOOTH",
"1130 692 LINE",
"938 54 LINE SMOOTH",
"919 -8 OFFCURVE",
"893 -14 OFFCURVE",
"866 -14 CURVE SMOOTH",
"839 -14 OFFCURVE",
"811 -8 OFFCURVE",
"786 59 CURVE SMOOTH",
"651 433 LINE",
"507 54 LINE SMOOTH",
"484 -8 OFFCURVE",
"462 -14 OFFCURVE",
"435 -14 CURVE SMOOTH",
"408 -14 OFFCURVE",
"378 -9 OFFCURVE",
"355 59 CURVE SMOOTH",
"146 692 LINE",
"68 692 LINE SMOOTH",
"41 692 OFFCURVE",
"26 713 OFFCURVE",
"26 733 CURVE SMOOTH",
"26 754 OFFCURVE",
"41 774 OFFCURVE",
"72 774 CURVE SMOOTH",
"307 774 LINE SMOOTH",
"340 774 OFFCURVE",
"356 753 OFFCURVE",
"356 732 CURVE SMOOTH",
"356 712 OFFCURVE",
"340 692 OFFCURVE",
"308 692 CURVE SMOOTH",
"245 692 LINE",
"435 92 LINE",
"607 555 LINE",
"558 692 LINE",
"517 692 LINE SMOOTH",
"483 692 OFFCURVE",
"465 713 OFFCURVE",
"465 733 CURVE SMOOTH",
"465 754 OFFCURVE",
"483 774 OFFCURVE",
"521 774 CURVE SMOOTH"
);
}
);
width = 1240;
}
);
unicode = 0077;
},
{
glyphname = x;
lastChange = "2017-06-03 23:49:09 +0000";
layers = (
{
anchors = (
{
name = bottom;
position = "{620, 0}";
},
{
name = top;
position = "{620, 774}";
}
);
layerId = "840BD324-B0A6-42B0-BD23-CB5E8C19394F";
paths = (
{
closed = 1;
nodes = (
"292 692 LINE",
"226 692 LINE SMOOTH",
"188 692 OFFCURVE",
"170 713 OFFCURVE",
"170 734 CURVE SMOOTH",
"170 754 OFFCURVE",
"187 774 OFFCURVE",
"222 774 CURVE SMOOTH",
"459 774 LINE SMOOTH",
"491 774 OFFCURVE",
"507 754 OFFCURVE",
"507 734 CURVE SMOOTH",
"507 713 OFFCURVE",
"490 692 OFFCURVE",
"457 692 CURVE SMOOTH",
"403 692 LINE",
"607 469 LINE",
"805 692 LINE",
"750 692 LINE SMOOTH",
"712 692 OFFCURVE",
"694 713 OFFCURVE",
"694 734 CURVE SMOOTH",
"694 754 OFFCURVE",
"711 774 OFFCURVE",
"746 774 CURVE SMOOTH",
"1003 774 LINE SMOOTH",
"1036 774 OFFCURVE",
"1052 754 OFFCURVE",
"1052 734 CURVE SMOOTH",
"1052 713 OFFCURVE",
"1035 692 OFFCURVE",
"1001 692 CURVE SMOOTH",
"923 692 LINE",
"666 403 LINE",
"554 406 LINE"
);
},
{
closed = 1;
nodes = (
"964 82 LINE",
"1035 82 LINE SMOOTH",
"1068 82 OFFCURVE",
"1084 62 OFFCURVE",
"1084 42 CURVE SMOOTH",
"1084 21 OFFCURVE",
"1067 0 OFFCURVE",
"1033 0 CURVE SMOOTH",
"772 0 LINE SMOOTH",
"734 0 OFFCURVE",
"716 21 OFFCURVE",
"716 42 CURVE SMOOTH",
"716 62 OFFCURVE",
"733 82 OFFCURVE",
"767 82 CURVE SMOOTH",
"852 82 LINE",
"612 340 LINE",
"391 82 LINE",
"460 82 LINE SMOOTH",
"492 82 OFFCURVE",
"508 62 OFFCURVE",
"508 42 CURVE SMOOTH",
"508 21 OFFCURVE",
"491 0 OFFCURVE",
"458 0 CURVE SMOOTH",
"212 0 LINE SMOOTH",
"174 0 OFFCURVE",
"156 21 OFFCURVE",
"156 42 CURVE SMOOTH",
"156 62 OFFCURVE",
"173 82 OFFCURVE",
"208 82 CURVE SMOOTH",
"281 82 LINE",
"554 406 LINE",
"666 403 LINE"
);
}
);
width = 1240;
}
);
unicode = 0078;
},
{
glyphname = y;
lastChange = "2017-06-07 01:15:39 +0000";
layers = (
{
layerId = "840BD324-B0A6-42B0-BD23-CB5E8C19394F";
paths = (
{
closed = 1;
nodes = (
"506 -200 OFFCURVE",
"542 -145 OFFCURVE",
"566 -83 CURVE SMOOTH",
"597 -2 LINE",
"284 692 LINE",
"191 692 LINE SMOOTH",
"157 692 OFFCURVE",
"140 712 OFFCURVE",
"140 732 CURVE SMOOTH",
"140 753 OFFCURVE",
"158 774 OFFCURVE",
"196 774 CURVE SMOOTH",
"488 774 LINE SMOOTH",
"522 774 OFFCURVE",
"539 753 OFFCURVE",
"539 732 CURVE SMOOTH",
"539 712 OFFCURVE",
"523 692 OFFCURVE",
"490 692 CURVE SMOOTH",
"386 692 LINE",
"645 91 LINE",
"871 692 LINE",
"782 692 LINE SMOOTH",
"749 692 OFFCURVE",
"733 712 OFFCURVE",
"733 732 CURVE SMOOTH",
"733 753 OFFCURVE",
"750 774 OFFCURVE",
"783 774 CURVE SMOOTH",
"1048 774 LINE SMOOTH",
"1076 774 OFFCURVE",
"1095 754 OFFCURVE",
"1095 733 CURVE SMOOTH",
"1095 713 OFFCURVE",
"1077 692 OFFCURVE",
"1052 692 CURVE SMOOTH",
"973 692 LINE",
"663 -83 LINE SMOOTH",
"627 -173 OFFCURVE",
"586 -252 OFFCURVE",
"528 -302 CURVE SMOOTH",
"481 -344 OFFCURVE",
"432 -356 OFFCURVE",
"375 -357 CURVE SMOOTH",
"330 -358 OFFCURVE",
"295 -338 OFFCURVE",
"295 -296 CURVE SMOOTH",
"295 -249 OFFCURVE",
"349 -245 OFFCURVE",
"472 -230 CURVE"
);
}
);
width = 1240;
}
);
unicode = 0079;
},
{
glyphname = z;
lastChange = "2017-06-07 01:13:55 +0000";
layers = (
{
anchors = (
{
name = bottom;
position = "{620, 0}";
},
{
name = top;
position = "{620, 774}";
}
);
layerId = "840BD324-B0A6-42B0-BD23-CB5E8C19394F";
paths = (
{
closed = 1;
nodes = (
"896 772 LINE SMOOTH",
"942 772 OFFCURVE",
"957 750 OFFCURVE",
"957 727 CURVE SMOOTH",
"957 710 OFFCURVE",
"949 692 OFFCURVE",
"939 682 CURVE SMOOTH",
"387 84 LINE",
"892 84 LINE",
"913 319 LINE SMOOTH",
"915 343 OFFCURVE",
"936 357 OFFCURVE",
"957 357 CURVE SMOOTH",
"978 357 OFFCURVE",
"999 344 OFFCURVE",
"998 315 CURVE SMOOTH",
"988 46 LINE SMOOTH",
"987 21 OFFCURVE",
"961 0 OFFCURVE",
"937 0 CURVE SMOOTH",
"334 0 LINE SMOOTH",
"296 0 OFFCURVE",
"278 24 OFFCURVE",
"278 59 CURVE SMOOTH",
"278 81 OFFCURVE",
"284 97 OFFCURVE",
"295 109 CURVE SMOOTH",
"829 690 LINE",
"378 690 LINE",
"360 495 LINE SMOOTH",
"357 465 OFFCURVE",
"339 450 OFFCURVE",
"318 450 CURVE SMOOTH",
"296 450 OFFCURVE",
"272 467 OFFCURVE",
"273 500 CURVE SMOOTH",
"283 726 LINE SMOOTH",
"284 750 OFFCURVE",
"305 772 OFFCURVE",
"329 772 CURVE SMOOTH"
);
}
);
width = 1240;
}
);
unicode = 007A;
},
{
glyphname = a.ss02;
lastChange = "2017-06-03 23:48:48 +0000";
layers = (
{
anchors = (
{
name = bottom;
position = "{620, 0}";
},
{
name = ogonek;
position = "{1116, 10}";
},
{
name = top;
position = "{620, 774}";
}
);
layerId = "840BD324-B0A6-42B0-BD23-CB5E8C19394F";
paths = (
{
closed = 1;
nodes = (
"814 401 LINE",
"525 373 OFFCURVE",
"350 364 OFFCURVE",
"350 210 CURVE SMOOTH",
"350 120 OFFCURVE",
"417 72 OFFCURVE",
"502 72 CURVE SMOOTH",
"621 72 OFFCURVE",
"742 128 OFFCURVE",
"814 204 CURVE"
);
},
{
closed = 1;
nodes = (
"611 731 CURVE SMOOTH",
"527 731 OFFCURVE",
"461 718 OFFCURVE",
"390 686 CURVE",
"385 593 OFFCURVE",
"372 531 OFFCURVE",
"324 531 CURVE SMOOTH",
"283 531 OFFCURVE",
"264 563 OFFCURVE",
"264 603 CURVE SMOOTH",
"264 725 OFFCURVE",
"405 813 OFFCURVE",
"612 813 CURVE SMOOTH",
"849 813 OFFCURVE",
"910 674 OFFCURVE",
"910 444 CURVE SMOOTH",
"910 162 LINE SMOOTH",
"910 93 OFFCURVE",
"945 72 OFFCURVE",
"973 72 CURVE SMOOTH",
"1007 72 OFFCURVE",
"1024 92 OFFCURVE",
"1034 102 CURVE SMOOTH",
"1048 115 OFFCURVE",
"1057 133 OFFCURVE",
"1078 133 CURVE SMOOTH",
"1097 133 OFFCURVE",
"1114 112 OFFCURVE",
"1114 91 CURVE SMOOTH",
"1114 74 OFFCURVE",
"1103 54 OFFCURVE",
"1088 40 CURVE SMOOTH",
"1060 14 OFFCURVE",
"1035 -7 OFFCURVE",
"965 -7 CURVE SMOOTH",
"898 -7 OFFCURVE",
"846 16 OFFCURVE",
"821 113 CURVE",
"760 44 OFFCURVE",
"637 -16 OFFCURVE",
"491 -16 CURVE SMOOTH",
"340 -16 OFFCURVE",
"253 74 OFFCURVE",
"253 210 CURVE SMOOTH",
"253 455 OFFCURVE",
"547 464 OFFCURVE",
"814 484 CURVE",
"814 653 OFFCURVE",
"756 731 OFFCURVE"
);
}
);
width = 1240;
}
);
},
{
glyphname = fi;
lastChange = "2017-06-01 14:32:16 +0000";
layers = (
{
layerId = "840BD324-B0A6-42B0-BD23-CB5E8C19394F";
paths = (
{
closed = 1;
nodes = (
"960 1171 CURVE SMOOTH",
"1006 1171 OFFCURVE",
"1042 1134 OFFCURVE",
"1042 1088 CURVE SMOOTH",
"1042 1042 OFFCURVE",
"1006 1006 OFFCURVE",
"960 1006 CURVE SMOOTH",
"914 1006 OFFCURVE",
"877 1042 OFFCURVE",
"877 1088 CURVE SMOOTH",
"877 1134 OFFCURVE",
"914 1171 OFFCURVE"
);
},
{
closed = 1;
nodes = (
"762 0 LINE SMOOTH",
"731 0 OFFCURVE",
"716 22 OFFCURVE",
"716 43 CURVE SMOOTH",
"716 63 OFFCURVE",
"730 82 OFFCURVE",
"758 82 CURVE SMOOTH",
"924 82 LINE",
"924 684 LINE",
"341 684 LINE",
"342 82 LINE",
"564 82 LINE SMOOTH",
"590 82 OFFCURVE",
"603 61 OFFCURVE",
"603 41 CURVE SMOOTH",
"603 20 OFFCURVE",
"590 0 OFFCURVE",
"563 0 CURVE SMOOTH",
"141 0 LINE SMOOTH",
"110 0 OFFCURVE",
"95 21 OFFCURVE",
"95 42 CURVE SMOOTH",
"95 62 OFFCURVE",
"109 82 OFFCURVE",
"137 82 CURVE SMOOTH",
"245 82 LINE",
"245 684 LINE",
"153 684 LINE SMOOTH",
"122 684 OFFCURVE",
"107 705 OFFCURVE",
"107 726 CURVE SMOOTH",
"107 746 OFFCURVE",
"121 766 OFFCURVE",
"149 766 CURVE SMOOTH",
"245 766 LINE",
"245 838 LINE SMOOTH",
"245 1079 OFFCURVE",
"370 1188 OFFCURVE",
"644 1188 CURVE SMOOTH",
"674 1188 OFFCURVE",
"701 1169 OFFCURVE",
"701 1137 CURVE SMOOTH",
"701 1020 LINE SMOOTH",
"701 982 OFFCURVE",
"676 964 OFFCURVE",
"652 964 CURVE SMOOTH",
"628 964 OFFCURVE",
"605 981 OFFCURVE",
"605 1016 CURVE SMOOTH",
"605 1109 LINE",
"372 1093 OFFCURVE",
"342 1018 OFFCURVE",
"342 832 CURVE SMOOTH",
"342 766 LINE",
"973 766 LINE SMOOTH",
"999 766 OFFCURVE",
"1020 762 OFFCURVE",
"1020 735 CURVE SMOOTH",
"1020 82 LINE",
"1156 82 LINE SMOOTH",
"1183 82 OFFCURVE",
"1196 61 OFFCURVE",
"1196 41 CURVE SMOOTH",
"1196 20 OFFCURVE",
"1182 0 OFFCURVE",
"1155 0 CURVE SMOOTH"
);
}
);
width = 1240;
}
);
unicode = FB01;
},
{
glyphname = fl;
lastChange = "2017-06-01 14:32:19 +0000";
layers = (
{
layerId = "840BD324-B0A6-42B0-BD23-CB5E8C19394F";
paths = (
{
closed = 1;
nodes = (
"1017 1140 CURVE SMOOTH",
"1017 82 LINE",
"1120 82 LINE SMOOTH",
"1146 82 OFFCURVE",
"1159 61 OFFCURVE",
"1159 41 CURVE SMOOTH",
"1159 20 OFFCURVE",
"1146 0 OFFCURVE",
"1119 0 CURVE SMOOTH",
"796 0 LINE SMOOTH",
"765 0 OFFCURVE",
"750 21 OFFCURVE",
"750 42 CURVE SMOOTH",
"750 62 OFFCURVE",
"764 82 OFFCURVE",
"792 82 CURVE SMOOTH",
"921 82 LINE",
"921 1093 LINE",
"677 1093 LINE SMOOTH",
"443 1093 OFFCURVE",
"378 1018 OFFCURVE",
"378 832 CURVE SMOOTH",
"378 766 LINE",
"527 766 LINE SMOOTH",
"554 766 OFFCURVE",
"567 745 OFFCURVE",
"567 725 CURVE SMOOTH",
"567 704 OFFCURVE",
"553 684 OFFCURVE",
"526 684 CURVE SMOOTH",
"377 684 LINE",
"378 82 LINE",
"580 82 LINE SMOOTH",
"606 82 OFFCURVE",
"619 61 OFFCURVE",
"619 41 CURVE SMOOTH",
"619 20 OFFCURVE",
"606 0 OFFCURVE",
"579 0 CURVE SMOOTH",
"164 0 LINE SMOOTH",
"133 0 OFFCURVE",
"118 21 OFFCURVE",
"118 42 CURVE SMOOTH",
"118 62 OFFCURVE",
"132 82 OFFCURVE",
"160 82 CURVE SMOOTH",
"281 82 LINE",
"281 684 LINE",
"189 684 LINE SMOOTH",
"158 684 OFFCURVE",
"143 705 OFFCURVE",
"143 726 CURVE SMOOTH",
"143 746 OFFCURVE",
"157 766 OFFCURVE",
"185 766 CURVE SMOOTH",
"281 766 LINE",
"281 838 LINE SMOOTH",
"281 1077 OFFCURVE",
"404 1172 OFFCURVE",
"675 1172 CURVE SMOOTH",
"970 1172 LINE SMOOTH",
"996 1172 OFFCURVE",
"1017 1167 OFFCURVE"
);
}
);
width = 1240;
}
);
unicode = FB02;
},
{
glyphname = ordfeminine;
lastChange = "2017-06-03 16:59:24 +0000";
layers = (
{
layerId = "840BD324-B0A6-42B0-BD23-CB5E8C19394F";
paths = (
{
closed = 1;
nodes = (
"727 896 LINE",
"535 867 OFFCURVE",
"434 855 OFFCURVE",
"434 768 CURVE SMOOTH",
"434 717 OFFCURVE",
"470 685 OFFCURVE",
"527 685 CURVE SMOOTH",
"606 685 OFFCURVE",
"680 723 OFFCURVE",
"727 774 CURVE"
);
},
{
closed = 1;
nodes = (
"896 701 LINE",
"900 701 LINE SMOOTH",
"919 701 OFFCURVE",
"926.605 679.985 OFFCURVE",
"926.605 667.913 CURVE SMOOTH",
"926.605 655.169 OFFCURVE",
"917.959 641.755 OFFCURVE",
"901.331 638.402 CURVE",
"771 625 LINE",
"766 625 LINE SMOOTH",
"749 625 OFFCURVE",
"737 636 OFFCURVE",
"735 659 CURVE SMOOTH",
"732 703 LINE",
"796 736 LINE",
"796 694 LINE"
);
},
{
closed = 1;
nodes = (
"457.71 1150.146 OFFCURVE",
"499.611 1172.279 OFFCURVE",
"600.041 1172.279 CURVE SMOOTH",
"757.67 1172.279 OFFCURVE",
"796 1079 OFFCURVE",
"796 925 CURVE SMOOTH",
"796 736 LINE",
"796 699 OFFCURVE",
"749 638 OFFCURVE",
"742 703 CURVE",
"691 657 OFFCURVE",
"616.669 616.269 OFFCURVE",
"519.564 616.269 CURVE SMOOTH",
"419.134 616.269 OFFCURVE",
"361 677 OFFCURVE",
"361.27 767.847 CURVE SMOOTH",
"361 922 OFFCURVE",
"550 938 OFFCURVE",
"727 962 CURVE",
"727 1065 OFFCURVE",
"686 1107 OFFCURVE",
"599 1107 CURVE SMOOTH",
"544 1107 OFFCURVE",
"506 1100 OFFCURVE",
"438 1067 CURVE",
"438 1011 LINE SMOOTH",
"438 988 OFFCURVE",
"420 976 OFFCURVE",
"405 976 CURVE SMOOTH",
"389 976 OFFCURVE",
"368.586 988.507 OFFCURVE",
"368.586 1013.994 CURVE SMOOTH",
"368.586 1086.43 LINE SMOOTH",
"368.586 1107.221 OFFCURVE",
"386.544 1117.282 OFFCURVE",
"412.483 1129.354 CURVE SMOOTH"
);
}
);
width = 1240;
}
);
unicode = 00AA;
},
{
glyphname = ordmasculine;
lastChange = "2017-06-03 16:59:24 +0000";
layers = (
{
layerId = "840BD324-B0A6-42B0-BD23-CB5E8C19394F";
paths = (
{
closed = 1;
nodes = (
"620 1172 CURVE SMOOTH",
"791 1172 OFFCURVE",
"907 1064 OFFCURVE",
"907 891 CURVE SMOOTH",
"907 720 OFFCURVE",
"791 610 OFFCURVE",
"620 610 CURVE SMOOTH",
"449 610 OFFCURVE",
"333 720 OFFCURVE",
"333 891 CURVE SMOOTH",
"333 1064 OFFCURVE",
"449 1172 OFFCURVE"
);
},
{
closed = 1;
nodes = (
"621 677 CURVE SMOOTH",
"750 677 OFFCURVE",
"831 766 OFFCURVE",
"831 892 CURVE SMOOTH",
"831 1016 OFFCURVE",
"750 1106 OFFCURVE",
"621 1106 CURVE SMOOTH",
"491 1106 OFFCURVE",
"410 1016 OFFCURVE",
"410 892 CURVE SMOOTH",
"410 766 OFFCURVE",
"491 677 OFFCURVE"
);
}
);
width = 1240;
}
);
unicode = 00BA;
},
{
glyphname = mu;
lastChange = "2016-08-10 13:30:31 +0000";
layers = (
{
components = (
{
name = u;
}
);
layerId = "840BD324-B0A6-42B0-BD23-CB5E8C19394F";
paths = (
{
closed = 1;
nodes = (
"270 -256 CURVE SMOOTH",
"270 285 LINE",
"306 405 LINE",
"322 188 LINE",
"333 90 OFFCURVE",
"374 -196 OFFCURVE",
"385 -257 CURVE SMOOTH",
"386 -265 OFFCURVE",
"387 -272 OFFCURVE",
"387 -278 CURVE SMOOTH",
"387 -325 OFFCURVE",
"355 -343 OFFCURVE",
"327 -343 CURVE SMOOTH",
"291 -343 OFFCURVE",
"270 -310 OFFCURVE"
);
}
);
width = 1240;
}
);
unicode = 03BC;
},
{
glyphname = zero;
lastChange = "2017-06-07 01:20:32 +0000";
layers = (
{
layerId = "840BD324-B0A6-42B0-BD23-CB5E8C19394F";
paths = (
{
closed = 1;
nodes = (
"619 1187 CURVE SMOOTH",
"885 1187 OFFCURVE",
"1018 885 OFFCURVE",
"1018 584 CURVE SMOOTH",
"1018 284 OFFCURVE",
"884 -16 OFFCURVE",
"619 -16 CURVE SMOOTH",
"352 -16 OFFCURVE",
"222 284 OFFCURVE",
"222 584 CURVE SMOOTH",
"222 885 OFFCURVE",
"355 1187 OFFCURVE"
);
},
{
closed = 1;
nodes = (
"619 69 CURVE SMOOTH",
"825 69 OFFCURVE",
"922 325 OFFCURVE",
"922 583 CURVE SMOOTH",
"922 842 OFFCURVE",
"822 1101 OFFCURVE",
"619 1101 CURVE SMOOTH",
"414 1101 OFFCURVE",
"318 842 OFFCURVE",
"318 583 CURVE SMOOTH",
"318 325 OFFCURVE",
"415 69 OFFCURVE"
);
},
{
closed = 1;
nodes = (
"362 178 CURVE SMOOTH",
"797 1040 LINE SMOOTH",
"804 1054 OFFCURVE",
"819 1061 OFFCURVE",
"834 1061 CURVE SMOOTH",
"857 1061 OFFCURVE",
"880 1046 OFFCURVE",
"880 1022 CURVE SMOOTH",
"880 1016 OFFCURVE",
"878 1009 OFFCURVE",
"874 1001 CURVE SMOOTH",
"442 143 LINE SMOOTH",
"434 126 OFFCURVE",
"419 119 OFFCURVE",
"405 119 CURVE SMOOTH",
"382 119 OFFCURVE",
"358 137 OFFCURVE",
"358 161 CURVE SMOOTH",
"358 167 OFFCURVE",
"359 172 OFFCURVE"
);
}
);
width = 1240;
}
);
unicode = 0030;
},
{
glyphname = one;
lastChange = "2017-06-08 01:51:15 +0000";
layers = (
{
layerId = "840BD324-B0A6-42B0-BD23-CB5E8C19394F";
paths = (
{
closed = 1;
nodes = (
"745 1130 CURVE SMOOTH",
"745 82 LINE",
"1085 82 LINE SMOOTH",
"1111 82 OFFCURVE",
"1124 61 OFFCURVE",
"1124 41 CURVE SMOOTH",
"1124 20 OFFCURVE",
"1111 0 OFFCURVE",
"1084 0 CURVE SMOOTH",
"284 0 LINE SMOOTH",
"253 0 OFFCURVE",
"238 21 OFFCURVE",
"238 42 CURVE SMOOTH",
"238 62 OFFCURVE",
"252 82 OFFCURVE",
"280 82 CURVE SMOOTH",
"649 82 LINE",
"649 1069 LINE",
"314 917 LINE SMOOTH",
"308 914 OFFCURVE",
"302 913 OFFCURVE",
"297 913 CURVE SMOOTH",
"273 913 OFFCURVE",
"256 936 OFFCURVE",
"256 958 CURVE SMOOTH",
"256 972 OFFCURVE",
"263 986 OFFCURVE",
"280 993 CURVE SMOOTH",
"684 1173 LINE SMOOTH",
"690 1176 OFFCURVE",
"697 1177 OFFCURVE",
"704 1177 CURVE SMOOTH",
"724 1177 OFFCURVE",
"745 1164 OFFCURVE"
);
}
);
width = 1240;
}
);
unicode = 0031;
},
{
glyphname = two;
lastChange = "2017-06-08 01:51:43 +0000";
layers = (
{
layerId = "840BD324-B0A6-42B0-BD23-CB5E8C19394F";
paths = (
{
closed = 1;
nodes = (
"615 1187 CURVE SMOOTH",
"771 1187 OFFCURVE",
"938 1101 OFFCURVE",
"938 904 CURVE SMOOTH",
"938 631 OFFCURVE",
"464 426 OFFCURVE",
"360 82 CURVE",
"866 82 LINE",
"888 264 LINE SMOOTH",
"891 292 OFFCURVE",
"916 309 OFFCURVE",
"940 309 CURVE SMOOTH",
"963 309 OFFCURVE",
"987 294 OFFCURVE",
"984 258 CURVE SMOOTH",
"969 50 LINE SMOOTH",
"967 19 OFFCURVE",
"946 0 OFFCURVE",
"915 0 CURVE SMOOTH",
"702 0 OFFCURVE",
"491 0 OFFCURVE",
"298 0 CURVE",
"273 0 OFFCURVE",
"265 22 OFFCURVE",
"265 37 CURVE SMOOTH",
"265 390 OFFCURVE",
"842 661 OFFCURVE",
"842 897 CURVE SMOOTH",
"842 1056 OFFCURVE",
"718 1101 OFFCURVE",
"600 1101 CURVE SMOOTH",
"533 1101 OFFCURVE",
"437 1070 OFFCURVE",
"393 1026 CURVE",
"378 913 OFFCURVE",
"375 838 OFFCURVE",
"327 838 CURVE SMOOTH",
"286 838 OFFCURVE",
"267 873 OFFCURVE",
"267 918 CURVE SMOOTH",
"267 1098 OFFCURVE",
"408 1187 OFFCURVE"
);
}
);
width = 1240;
}
);
unicode = 0032;
},
{
glyphname = three;
lastChange = "2017-06-08 01:52:21 +0000";
layers = (
{
layerId = "840BD324-B0A6-42B0-BD23-CB5E8C19394F";
paths = (
{
closed = 1;
nodes = (
"533 1105 OFFCURVE",
"468 1095 OFFCURVE",
"397 1060 CURVE",
"382 958 OFFCURVE",
"379 878 OFFCURVE",
"331 878 CURVE SMOOTH",
"290 878 OFFCURVE",
"271 913 OFFCURVE",
"271 958 CURVE SMOOTH",
"271 1098 OFFCURVE",
"417 1187 OFFCURVE",
"615 1187 CURVE SMOOTH",
"755 1187 OFFCURVE",
"883 1104 OFFCURVE",
"883 949 CURVE SMOOTH",
"883 799 OFFCURVE",
"745 700 OFFCURVE",
"659 670 CURVE",
"785 667 OFFCURVE",
"950 544 OFFCURVE",
"950 330 CURVE SMOOTH",
"950 139 OFFCURVE",
"771 -17 OFFCURVE",
"544 -17 CURVE SMOOTH",
"408 -17 OFFCURVE",
"263 46 OFFCURVE",
"263 108 CURVE SMOOTH",
"263 129 OFFCURVE",
"278 151 OFFCURVE",
"299 151 CURVE SMOOTH",
"330 151 OFFCURVE",
"359 124 OFFCURVE",
"376 113 CURVE SMOOTH",
"412 92 OFFCURVE",
"435 69 OFFCURVE",
"547 69 CURVE SMOOTH",
"736 69 OFFCURVE",
"854 195 OFFCURVE",
"854 336 CURVE SMOOTH",
"854 507 OFFCURVE",
"705 593 OFFCURVE",
"602 609 CURVE SMOOTH",
"558 616 OFFCURVE",
"537 633 OFFCURVE",
"537 656 CURVE SMOOTH",
"537 683 OFFCURVE",
"552 696 OFFCURVE",
"574 707 CURVE SMOOTH",
"680 761 OFFCURVE",
"787 834 OFFCURVE",
"787 949 CURVE SMOOTH",
"787 1032 OFFCURVE",
"711 1105 OFFCURVE",
"600 1105 CURVE SMOOTH"
);
}
);
width = 1240;
}
);
unicode = 0033;
},
{
glyphname = four;
lastChange = "2017-06-08 01:21:25 +0000";
layers = (
{
layerId = "840BD324-B0A6-42B0-BD23-CB5E8C19394F";
paths = (
{
closed = 1;
nodes = (
"420 0 LINE SMOOTH",
"394 0 OFFCURVE",
"379 19 OFFCURVE",
"379 36 CURVE SMOOTH",
"379 52 OFFCURVE",
"393 75 OFFCURVE",
"419 75 CURVE SMOOTH",
"716 75 LINE",
"716 363 LINE",
"261 363 LINE SMOOTH",
"226 363 OFFCURVE",
"207 392 OFFCURVE",
"207 415 CURVE SMOOTH",
"207 424 OFFCURVE",
"210 434 OFFCURVE",
"217 443 CURVE SMOOTH",
"728 1167 LINE SMOOTH",
"731 1171 OFFCURVE",
"747 1179 OFFCURVE",
"764 1179 CURVE SMOOTH",
"783 1179 OFFCURVE",
"803 1168 OFFCURVE",
"803 1125 CURVE SMOOTH",
"803 445 LINE",
"1005 445 LINE SMOOTH",
"1038 445 OFFCURVE",
"1056 423 OFFCURVE",
"1056 404 CURVE SMOOTH",
"1056 386 OFFCURVE",
"1038 363 OFFCURVE",
"1003 363 CURVE SMOOTH",
"803 363 LINE",
"803 75 LINE",
"961 75 LINE SMOOTH",
"993 75 OFFCURVE",
"1005 52 OFFCURVE",
"1005 36 CURVE SMOOTH",
"1005 19 OFFCURVE",
"992 0 OFFCURVE",
"960 0 CURVE SMOOTH"
);
},
{
closed = 1;
nodes = (
"716 1015 LINE",
"322 445 LINE",
"716 445 LINE"
);
}
);
width = 1240;
}
);
unicode = 0034;
},
{
glyphname = five;
lastChange = "2017-06-08 01:53:19 +0000";
layers = (
{
layerId = "840BD324-B0A6-42B0-BD23-CB5E8C19394F";
paths = (
{
closed = 1;
nodes = (
"609 -17 CURVE SMOOTH",
"517 -17 OFFCURVE",
"434 10 OFFCURVE",
"370 54 CURVE SMOOTH",
"350 68 OFFCURVE",
"338 86 OFFCURVE",
"338 100 CURVE SMOOTH",
"338 130 OFFCURVE",
"355 148 OFFCURVE",
"378 148 CURVE SMOOTH",
"391 148 OFFCURVE",
"409 136 OFFCURVE",
"417 130 CURVE SMOOTH",
"484 81 OFFCURVE",
"555 65 OFFCURVE",
"622 65 CURVE SMOOTH",
"749 65 OFFCURVE",
"915 170 OFFCURVE",
"915 381 CURVE SMOOTH",
"915 579 OFFCURVE",
"798 681 OFFCURVE",
"658 681 CURVE SMOOTH",
"555 681 OFFCURVE",
"466 633 OFFCURVE",
"402 560 CURVE SMOOTH",
"387 543 OFFCURVE",
"370 535 OFFCURVE",
"355 535 CURVE SMOOTH",
"337 535 OFFCURVE",
"322 546 OFFCURVE",
"324 569 CURVE SMOOTH",
"378 1087 LINE SMOOTH",
"387 1170 OFFCURVE",
"448 1171 OFFCURVE",
"494 1171 CURVE SMOOTH",
"887 1171 LINE SMOOTH",
"921 1171 OFFCURVE",
"954 1159 OFFCURVE",
"954 1131 CURVE SMOOTH",
"954 1107 OFFCURVE",
"936 1089 OFFCURVE",
"887 1089 CURVE SMOOTH",
"468 1090 OFFCURVE",
"468 1090 OFFCURVE",
"468 1090 CURVE",
"422 682 LINE",
"481 734 OFFCURVE",
"577 765 OFFCURVE",
"667 765 CURVE SMOOTH",
"861 765 OFFCURVE",
"1011 600 OFFCURVE",
"1011 396 CURVE SMOOTH",
"1011 143 OFFCURVE",
"828 -17 OFFCURVE"
);
}
);
width = 1240;
}
);
unicode = 0035;
},
{
glyphname = six;
lastChange = "2017-06-08 01:21:34 +0000";
layers = (
{
layerId = "840BD324-B0A6-42B0-BD23-CB5E8C19394F";
paths = (
{
closed = 1;
nodes = (
"648 71 CURVE SMOOTH",
"831 71 OFFCURVE",
"931 205 OFFCURVE",
"931 360 CURVE SMOOTH",
"931 516 OFFCURVE",
"845 665 OFFCURVE",
"671 665 CURVE SMOOTH",
"472 665 OFFCURVE",
"353 525 OFFCURVE",
"353 370 CURVE SMOOTH",
"353 213 OFFCURVE",
"457 71 OFFCURVE"
);
},
{
closed = 1;
nodes = (
"1027 363 CURVE SMOOTH",
"1027 145 OFFCURVE",
"874 -17 OFFCURVE",
"648 -17 CURVE SMOOTH",
"401 -17 OFFCURVE",
"257 160 OFFCURVE",
"257 469 CURVE SMOOTH",
"257 806 OFFCURVE",
"450 1072 OFFCURVE",
"709 1242 CURVE SMOOTH",
"719 1248 OFFCURVE",
"730 1258 OFFCURVE",
"748 1258 CURVE SMOOTH",
"770 1258 OFFCURVE",
"791 1243 OFFCURVE",
"791 1220 CURVE SMOOTH",
"791 1203 OFFCURVE",
"781 1191 OFFCURVE",
"770 1184 CURVE SMOOTH",
"549 1039 OFFCURVE",
"375 813 OFFCURVE",
"351 594 CURVE",
"428 697 OFFCURVE",
"549 753 OFFCURVE",
"668 753 CURVE SMOOTH",
"883 753 OFFCURVE",
"1027 589 OFFCURVE"
);
}
);
width = 1240;
}
);
unicode = 0036;
},
{
glyphname = seven;
lastChange = "2017-06-08 01:54:16 +0000";
layers = (
{
layerId = "840BD324-B0A6-42B0-BD23-CB5E8C19394F";
paths = (
{
closed = 1;
nodes = (
"579 47 CURVE SMOOTH",
"579 475 OFFCURVE",
"723 796 OFFCURVE",
"874 1085 CURVE",
"380 1085 LINE",
"380 916 LINE SMOOTH",
"380 881 OFFCURVE",
"355 863 OFFCURVE",
"331 863 CURVE SMOOTH",
"307 863 OFFCURVE",
"284 880 OFFCURVE",
"284 916 CURVE SMOOTH",
"284 1117 LINE SMOOTH",
"284 1151 OFFCURVE",
"307 1171 OFFCURVE",
"340 1171 CURVE SMOOTH",
"938 1171 LINE SMOOTH",
"963 1171 OFFCURVE",
"981 1141 OFFCURVE",
"981 1111 CURVE SMOOTH",
"981 1101 OFFCURVE",
"979 1090 OFFCURVE",
"974 1081 CURVE SMOOTH",
"799 766 OFFCURVE",
"675 474 OFFCURVE",
"675 46 CURVE SMOOTH",
"675 10 OFFCURVE",
"652 -7 OFFCURVE",
"629 -7 CURVE SMOOTH",
"604 -7 OFFCURVE",
"579 12 OFFCURVE"
);
}
);
width = 1240;
}
);
unicode = 0037;
},
{
glyphname = eight;
lastChange = "2017-06-08 01:49:35 +0000";
layers = (
{
layerId = "840BD324-B0A6-42B0-BD23-CB5E8C19394F";
paths = (
{
closed = 1;
nodes = (
"637 1101 CURVE SMOOTH",
"511 1101 OFFCURVE",
"412 1037 OFFCURVE",
"412 895 CURVE SMOOTH",
"412 760 OFFCURVE",
"507 670 OFFCURVE",
"637 634 CURVE",
"759 670 OFFCURVE",
"858 764 OFFCURVE",
"858 895 CURVE SMOOTH",
"858 1040 OFFCURVE",
"754 1101 OFFCURVE"
);
},
{
closed = 1;
nodes = (
"637 69 CURVE SMOOTH",
"759 69 OFFCURVE",
"906 111 OFFCURVE",
"906 294 CURVE SMOOTH",
"906 442 OFFCURVE",
"755 535 OFFCURVE",
"637 555 CURVE",
"495 535 OFFCURVE",
"386 449 OFFCURVE",
"386 294 CURVE SMOOTH",
"386 119 OFFCURVE",
"543 69 OFFCURVE"
);
},
{
closed = 1;
nodes = (
"637 1187 CURVE SMOOTH",
"804 1187 OFFCURVE",
"950 1093 OFFCURVE",
"950 895 CURVE SMOOTH",
"950 716 OFFCURVE",
"818 642 OFFCURVE",
"747 599 CURVE",
"862 569 OFFCURVE",
"1002 476 OFFCURVE",
"1002 294 CURVE SMOOTH",
"1002 68 OFFCURVE",
"833 -17 OFFCURVE",
"637 -17 CURVE SMOOTH",
"481 -17 OFFCURVE",
"290 63 OFFCURVE",
"290 294 CURVE SMOOTH",
"290 485 OFFCURVE",
"420 569 OFFCURVE",
"532 599 CURVE",
"473 622 OFFCURVE",
"320 706 OFFCURVE",
"320 895 CURVE SMOOTH",
"320 1073 OFFCURVE",
"465 1187 OFFCURVE"
);
}
);
width = 1240;
}
);
unicode = 0038;
},
{
glyphname = nine;
lastChange = "2017-06-08 01:55:23 +0000";
layers = (
{
layerId = "840BD324-B0A6-42B0-BD23-CB5E8C19394F";
paths = (
{
closed = 1;
nodes = (
"629 1101 CURVE SMOOTH",
"456 1101 OFFCURVE",
"346 967 OFFCURVE",
"346 812 CURVE SMOOTH",
"346 656 OFFCURVE",
"432 507 OFFCURVE",
"606 507 CURVE SMOOTH",
"805 507 OFFCURVE",
"924 647 OFFCURVE",
"924 802 CURVE SMOOTH",
"924 959 OFFCURVE",
"820 1101 OFFCURVE"
);
},
{
closed = 1;
nodes = (
"250 809 CURVE SMOOTH",
"250 1037 OFFCURVE",
"413 1187 OFFCURVE",
"629 1187 CURVE SMOOTH",
"876 1187 OFFCURVE",
"1022 1024 OFFCURVE",
"1022 702 CURVE SMOOTH",
"1022 342 OFFCURVE",
"786 95 OFFCURVE",
"605 -53 CURVE SMOOTH",
"596 -60 OFFCURVE",
"581 -69 OFFCURVE",
"561 -69 CURVE SMOOTH",
"530 -69 OFFCURVE",
"512 -52 OFFCURVE",
"512 -28 CURVE SMOOTH",
"512 -13 OFFCURVE",
"519 -1 OFFCURVE",
"529 6 CURVE SMOOTH",
"700 131 OFFCURVE",
"899 346 OFFCURVE",
"933 598 CURVE",
"897 521 OFFCURVE",
"778 421 OFFCURVE",
"609 421 CURVE SMOOTH",
"394 421 OFFCURVE",
"250 583 OFFCURVE"
);
}
);
width = 1240;
}
);
unicode = 0039;
},
{
glyphname = onesuperior;
lastChange = "2017-06-01 14:35:37 +0000";
layers = (
{
layerId = "840BD324-B0A6-42B0-BD23-CB5E8C19394F";
paths = (
{
closed = 1;
nodes = (
"658 1140 CURVE SMOOTH",
"658 455 LINE",
"764 455 LINE SMOOTH",
"783 455 OFFCURVE",
"792 439 OFFCURVE",
"792 425 CURVE SMOOTH",
"792 410 OFFCURVE",
"782 396 OFFCURVE",
"763 396 CURVE SMOOTH",
"468 396 LINE SMOOTH",
"446 396 OFFCURVE",
"434 411 OFFCURVE",
"434 426 CURVE SMOOTH",
"434 440 OFFCURVE",
"445 455 OFFCURVE",
"465 455 CURVE SMOOTH",
"589 455 LINE",
"589 1096 LINE",
"465 1041 LINE SMOOTH",
"461 1039 OFFCURVE",
"457 1038 OFFCURVE",
"453 1038 CURVE SMOOTH",
"436 1038 OFFCURVE",
"424 1054 OFFCURVE",
"424 1070 CURVE SMOOTH",
"424 1080 OFFCURVE",
"429 1090 OFFCURVE",
"441 1095 CURVE SMOOTH",
"614 1171 LINE SMOOTH",
"618 1173 OFFCURVE",
"623 1174 OFFCURVE",
"628 1174 CURVE SMOOTH",
"643 1174 OFFCURVE",
"658 1165 OFFCURVE"
);
}
);
width = 1240;
}
);
unicode = 00B9;
},
{
glyphname = twosuperior;
lastChange = "2017-06-01 14:35:44 +0000";
layers = (
{
layerId = "840BD324-B0A6-42B0-BD23-CB5E8C19394F";
paths = (
{
closed = 1;
nodes = (
"821 1007 CURVE SMOOTH",
"821 802 OFFCURVE",
"538 724 OFFCURVE",
"491 520 CURVE",
"772 520 LINE",
"779 624 LINE SMOOTH",
"780 646 OFFCURVE",
"795 659 OFFCURVE",
"810 659 CURVE SMOOTH",
"824 659 OFFCURVE",
"837 648 OFFCURVE",
"837 619 CURVE SMOOTH",
"837 495 LINE SMOOTH",
"837 470 OFFCURVE",
"824 455 OFFCURVE",
"805 455 CURVE SMOOTH",
"423 455 LINE",
"421 464 OFFCURVE",
"419 472 OFFCURVE",
"419 484 CURVE SMOOTH",
"419 723 OFFCURVE",
"750 840 OFFCURVE",
"750 1001 CURVE SMOOTH",
"750 1088 OFFCURVE",
"688 1133 OFFCURVE",
"609 1133 CURVE SMOOTH",
"571 1133 OFFCURVE",
"529 1123 OFFCURVE",
"489 1101 CURVE",
"480 1005 OFFCURVE",
"479 962 OFFCURVE",
"450 962 CURVE SMOOTH",
"425 962 OFFCURVE",
"414 989 OFFCURVE",
"414 1025 CURVE SMOOTH",
"414 1134 OFFCURVE",
"508 1187 OFFCURVE",
"606 1187 CURVE SMOOTH",
"711 1187 OFFCURVE",
"821 1126 OFFCURVE"
);
}
);
width = 1240;
}
);
unicode = 00B2;
},
{
glyphname = threesuperior;
lastChange = "2017-06-01 14:35:49 +0000";
layers = (
{
layerId = "840BD324-B0A6-42B0-BD23-CB5E8C19394F";
paths = (
{
closed = 1;
nodes = (
"564 790 CURVE SMOOTH",
"547 790 OFFCURVE",
"536 800 OFFCURVE",
"536 818 CURVE SMOOTH",
"536 828 OFFCURVE",
"543 839 OFFCURVE",
"558 848 CURVE SMOOTH",
"665 914 OFFCURVE",
"753 951 OFFCURVE",
"753 1032 CURVE SMOOTH",
"753 1079 OFFCURVE",
"719 1124 OFFCURVE",
"638 1124 CURVE SMOOTH",
"489 1124 OFFCURVE",
"532 1059 OFFCURVE",
"460 1059 CURVE SMOOTH",
"440 1059 OFFCURVE",
"430 1072 OFFCURVE",
"430 1084 CURVE SMOOTH",
"430 1152 OFFCURVE",
"571 1187 OFFCURVE",
"640 1187 CURVE SMOOTH",
"742 1187 OFFCURVE",
"823 1131 OFFCURVE",
"823 1032 CURVE SMOOTH",
"823 931 OFFCURVE",
"712 871 OFFCURVE",
"659 845 CURVE",
"794 840 OFFCURVE",
"868 753 OFFCURVE",
"868 633 CURVE SMOOTH",
"868 484 OFFCURVE",
"746 378 OFFCURVE",
"592 378 CURVE SMOOTH",
"501 378 OFFCURVE",
"400 420 OFFCURVE",
"400 465 CURVE SMOOTH",
"400 474 OFFCURVE",
"412 490 OFFCURVE",
"429 490 CURVE SMOOTH",
"490 490 OFFCURVE",
"481 442 OFFCURVE",
"594 442 CURVE SMOOTH",
"720 442 OFFCURVE",
"798 525 OFFCURVE",
"798 637 CURVE SMOOTH",
"798 736 OFFCURVE",
"733 796 OFFCURVE",
"631 796 CURVE SMOOTH",
"612 796 OFFCURVE",
"573 790 OFFCURVE"
);
}
);
width = 1240;
}
);
unicode = 00B3;
},
{
glyphname = fraction;
lastChange = "2016-08-10 13:30:31 +0000";
layers = (
{
layerId = "840BD324-B0A6-42B0-BD23-CB5E8C19394F";
paths = (
{
closed = 1;
nodes = (
"247 -178 CURVE SMOOTH",
"914 1152 LINE SMOOTH",
"921 1166 OFFCURVE",
"936 1173 OFFCURVE",
"951 1173 CURVE SMOOTH",
"974 1173 OFFCURVE",
"997 1158 OFFCURVE",
"997 1134 CURVE SMOOTH",
"997 1128 OFFCURVE",
"995 1121 OFFCURVE",
"991 1113 CURVE SMOOTH",
"327 -213 LINE SMOOTH",
"318 -230 OFFCURVE",
"304 -237 OFFCURVE",
"290 -237 CURVE SMOOTH",
"267 -237 OFFCURVE",
"243 -219 OFFCURVE",
"243 -195 CURVE SMOOTH",
"243 -189 OFFCURVE",
"244 -184 OFFCURVE"
);
}
);
width = 1240;
}
);
unicode = 2044;
},
{
glyphname = onehalf;
lastChange = "2016-08-10 13:30:31 +0000";
layers = (
{
layerId = "840BD324-B0A6-42B0-BD23-CB5E8C19394F";
paths = (
{
closed = 1;
nodes = (
"1167 552 CURVE SMOOTH",
"1167 347 OFFCURVE",
"884 269 OFFCURVE",
"837 65 CURVE",
"1118 65 LINE",
"1125 169 LINE SMOOTH",
"1126 191 OFFCURVE",
"1141 204 OFFCURVE",
"1156 204 CURVE SMOOTH",
"1170 204 OFFCURVE",
"1183 193 OFFCURVE",
"1183 164 CURVE SMOOTH",
"1183 40 LINE SMOOTH",
"1183 15 OFFCURVE",
"1170 0 OFFCURVE",
"1151 0 CURVE SMOOTH",
"769 0 LINE",
"767 9 OFFCURVE",
"765 17 OFFCURVE",
"765 29 CURVE SMOOTH",
"765 268 OFFCURVE",
"1096 385 OFFCURVE",
"1096 546 CURVE SMOOTH",
"1096 633 OFFCURVE",
"1034 679 OFFCURVE",
"955 679 CURVE SMOOTH",
"917 679 OFFCURVE",
"875 668 OFFCURVE",
"835 646 CURVE",
"826 550 OFFCURVE",
"825 507 OFFCURVE",
"796 507 CURVE SMOOTH",
"771 507 OFFCURVE",
"760 534 OFFCURVE",
"760 570 CURVE SMOOTH",
"760 679 OFFCURVE",
"854 732 OFFCURVE",
"952 732 CURVE SMOOTH",
"1057 732 OFFCURVE",
"1167 671 OFFCURVE"
);
},
{
closed = 1;
nodes = (
"269 1085 CURVE SMOOTH",
"269 399 LINE",
"375 399 LINE SMOOTH",
"394 399 OFFCURVE",
"403 384 OFFCURVE",
"403 370 CURVE SMOOTH",
"403 355 OFFCURVE",
"393 340 OFFCURVE",
"374 340 CURVE SMOOTH",
"78 340 LINE SMOOTH",
"56 340 OFFCURVE",
"45 356 OFFCURVE",
"45 371 CURVE SMOOTH",
"45 385 OFFCURVE",
"55 399 OFFCURVE",
"75 399 CURVE SMOOTH",
"199 399 LINE",
"199 1041 LINE",
"76 985 LINE SMOOTH",
"72 983 OFFCURVE",
"68 982 OFFCURVE",
"64 982 CURVE SMOOTH",
"47 982 OFFCURVE",
"34 999 OFFCURVE",
"34 1015 CURVE SMOOTH",
"34 1025 OFFCURVE",
"39 1035 OFFCURVE",
"51 1040 CURVE SMOOTH",
"225 1116 LINE SMOOTH",
"229 1118 OFFCURVE",
"234 1119 OFFCURVE",
"239 1119 CURVE SMOOTH",
"254 1119 OFFCURVE",
"269 1110 OFFCURVE"
);
},
{
closed = 1;
nodes = (
"295 79 CURVE SMOOTH",
"907 1099 LINE SMOOTH",
"913 1110 OFFCURVE",
"923 1115 OFFCURVE",
"934 1115 CURVE SMOOTH",
"951 1115 OFFCURVE",
"969 1104 OFFCURVE",
"969 1086 CURVE SMOOTH",
"969 1081 OFFCURVE",
"968 1076 OFFCURVE",
"965 1070 CURVE SMOOTH",
"355 52 LINE SMOOTH",
"347 39 OFFCURVE",
"338 34 OFFCURVE",
"327 34 CURVE SMOOTH",
"309 34 OFFCURVE",
"292 47 OFFCURVE",
"292 65 CURVE SMOOTH",
"292 69 OFFCURVE",
"292 74 OFFCURVE"
);
}
);
width = 1240;
}
);
unicode = 00BD;
},
{
glyphname = onequarter;
lastChange = "2016-08-10 13:30:31 +0000";
layers = (
{
layerId = "840BD324-B0A6-42B0-BD23-CB5E8C19394F";
paths = (
{
closed = 1;
nodes = (
"269 1085 CURVE SMOOTH",
"269 399 LINE",
"375 399 LINE SMOOTH",
"394 399 OFFCURVE",
"403 384 OFFCURVE",
"403 370 CURVE SMOOTH",
"403 355 OFFCURVE",
"393 340 OFFCURVE",
"374 340 CURVE SMOOTH",
"78 340 LINE SMOOTH",
"56 340 OFFCURVE",
"45 356 OFFCURVE",
"45 371 CURVE SMOOTH",
"45 385 OFFCURVE",
"55 399 OFFCURVE",
"75 399 CURVE SMOOTH",
"199 399 LINE",
"199 1041 LINE",
"76 985 LINE SMOOTH",
"72 983 OFFCURVE",
"68 982 OFFCURVE",
"64 982 CURVE SMOOTH",
"47 982 OFFCURVE",
"34 999 OFFCURVE",
"34 1015 CURVE SMOOTH",
"34 1025 OFFCURVE",
"39 1035 OFFCURVE",
"51 1040 CURVE SMOOTH",
"225 1116 LINE SMOOTH",
"229 1118 OFFCURVE",
"234 1119 OFFCURVE",
"239 1119 CURVE SMOOTH",
"254 1119 OFFCURVE",
"269 1110 OFFCURVE"
);
},
{
closed = 1;
nodes = (
"786 1 LINE SMOOTH",
"768 1 OFFCURVE",
"759 16 OFFCURVE",
"759 32 CURVE SMOOTH",
"759 47 OFFCURVE",
"768 63 OFFCURVE",
"785 63 CURVE SMOOTH",
"961 63 LINE",
"961 245 LINE",
"690 245 LINE SMOOTH",
"675 245 OFFCURVE",
"660 261 OFFCURVE",
"660 279 CURVE SMOOTH",
"660 286 OFFCURVE",
"663 293 OFFCURVE",
"668 301 CURVE SMOOTH",
"977 794 LINE SMOOTH",
"979 798 OFFCURVE",
"992 804 OFFCURVE",
"1005 804 CURVE SMOOTH",
"1020 804 OFFCURVE",
"1036 795 OFFCURVE",
"1036 762 CURVE SMOOTH",
"1036 301 LINE",
"1155 301 LINE SMOOTH",
"1173 301 OFFCURVE",
"1182 287 OFFCURVE",
"1182 273 CURVE SMOOTH",
"1182 259 OFFCURVE",
"1172 245 OFFCURVE",
"1153 245 CURVE SMOOTH",
"1036 245 LINE",
"1036 63 LINE",
"1160 63 LINE SMOOTH",
"1179 63 OFFCURVE",
"1188 48 OFFCURVE",
"1188 33 CURVE SMOOTH",
"1188 17 OFFCURVE",
"1178 1 OFFCURVE",
"1159 1 CURVE SMOOTH"
);
},
{
closed = 1;
nodes = (
"961 667 LINE",
"743 301 LINE",
"961 301 LINE"
);
},
{
closed = 1;
nodes = (
"322 79 CURVE SMOOTH",
"934 1099 LINE SMOOTH",
"940 1110 OFFCURVE",
"950 1115 OFFCURVE",
"961 1115 CURVE SMOOTH",
"978 1115 OFFCURVE",
"996 1104 OFFCURVE",
"996 1086 CURVE SMOOTH",
"996 1081 OFFCURVE",
"995 1076 OFFCURVE",
"992 1070 CURVE SMOOTH",
"382 52 LINE SMOOTH",
"374 39 OFFCURVE",
"365 34 OFFCURVE",
"354 34 CURVE SMOOTH",
"336 34 OFFCURVE",
"319 47 OFFCURVE",
"319 65 CURVE SMOOTH",
"319 69 OFFCURVE",
"319 74 OFFCURVE"
);
}
);
width = 1240;
}
);
unicode = 00BC;
},
{
glyphname = threequarters;
lastChange = "2016-08-10 13:30:31 +0000";
layers = (
{
layerId = "840BD324-B0A6-42B0-BD23-CB5E8C19394F";
paths = (
{
closed = 1;
nodes = (
"810 1 LINE SMOOTH",
"792 1 OFFCURVE",
"783 16 OFFCURVE",
"783 32 CURVE SMOOTH",
"783 47 OFFCURVE",
"792 63 OFFCURVE",
"809 63 CURVE SMOOTH",
"985 63 LINE",
"985 245 LINE",
"714 245 LINE SMOOTH",
"699 245 OFFCURVE",
"684 261 OFFCURVE",
"684 279 CURVE SMOOTH",
"684 286 OFFCURVE",
"687 293 OFFCURVE",
"692 301 CURVE SMOOTH",
"1001 794 LINE SMOOTH",
"1003 798 OFFCURVE",
"1016 804 OFFCURVE",
"1029 804 CURVE SMOOTH",
"1044 804 OFFCURVE",
"1060 795 OFFCURVE",
"1060 762 CURVE SMOOTH",
"1060 301 LINE",
"1179 301 LINE SMOOTH",
"1197 301 OFFCURVE",
"1206 287 OFFCURVE",
"1206 273 CURVE SMOOTH",
"1206 259 OFFCURVE",
"1196 245 OFFCURVE",
"1177 245 CURVE SMOOTH",
"1060 245 LINE",
"1060 63 LINE",
"1184 63 LINE SMOOTH",
"1203 63 OFFCURVE",
"1212 48 OFFCURVE",
"1212 33 CURVE SMOOTH",
"1212 17 OFFCURVE",
"1202 1 OFFCURVE",
"1183 1 CURVE SMOOTH"
);
},
{
closed = 1;
nodes = (
"985 667 LINE",
"767 301 LINE",
"985 301 LINE"
);
},
{
closed = 1;
nodes = (
"341 79 CURVE SMOOTH",
"953 1099 LINE SMOOTH",
"959 1110 OFFCURVE",
"969 1115 OFFCURVE",
"980 1115 CURVE SMOOTH",
"997 1115 OFFCURVE",
"1015 1104 OFFCURVE",
"1015 1086 CURVE SMOOTH",
"1015 1081 OFFCURVE",
"1014 1076 OFFCURVE",
"1011 1070 CURVE SMOOTH",
"401 52 LINE SMOOTH",
"393 39 OFFCURVE",
"384 34 OFFCURVE",
"373 34 CURVE SMOOTH",
"355 34 OFFCURVE",
"338 47 OFFCURVE",
"338 65 CURVE SMOOTH",
"338 69 OFFCURVE",
"338 74 OFFCURVE"
);
},
{
closed = 1;
nodes = (
"180 725 CURVE SMOOTH",
"163 725 OFFCURVE",
"152 735 OFFCURVE",
"152 753 CURVE SMOOTH",
"152 763 OFFCURVE",
"159 774 OFFCURVE",
"174 783 CURVE SMOOTH",
"281 849 OFFCURVE",
"368 886 OFFCURVE",
"368 967 CURVE SMOOTH",
"368 1014 OFFCURVE",
"335 1059 OFFCURVE",
"254 1059 CURVE SMOOTH",
"105 1059 OFFCURVE",
"149 994 OFFCURVE",
"76 994 CURVE SMOOTH",
"56 994 OFFCURVE",
"46 1007 OFFCURVE",
"46 1019 CURVE SMOOTH",
"46 1087 OFFCURVE",
"187 1122 OFFCURVE",
"256 1122 CURVE SMOOTH",
"358 1122 OFFCURVE",
"439 1066 OFFCURVE",
"439 967 CURVE SMOOTH",
"439 866 OFFCURVE",
"328 806 OFFCURVE",
"275 780 CURVE",
"410 775 OFFCURVE",
"484 688 OFFCURVE",
"484 568 CURVE SMOOTH",
"484 419 OFFCURVE",
"362 313 OFFCURVE",
"208 313 CURVE SMOOTH",
"117 313 OFFCURVE",
"16 355 OFFCURVE",
"16 400 CURVE SMOOTH",
"16 409 OFFCURVE",
"28 425 OFFCURVE",
"45 425 CURVE SMOOTH",
"106 425 OFFCURVE",
"97 377 OFFCURVE",
"210 377 CURVE SMOOTH",
"336 377 OFFCURVE",
"413 460 OFFCURVE",
"413 572 CURVE SMOOTH",
"413 671 OFFCURVE",
"349 731 OFFCURVE",
"247 731 CURVE SMOOTH",
"228 731 OFFCURVE",
"189 725 OFFCURVE"
);
}
);
width = 1240;
}
);
unicode = 00BE;
},
{
glyphname = backslash;
lastChange = "2016-08-10 13:30:31 +0000";
layers = (
{
layerId = "840BD324-B0A6-42B0-BD23-CB5E8C19394F";
paths = (
{
closed = 1;
nodes = (
"991 -178 LINE SMOOTH",
"994 -184 OFFCURVE",
"995 -189 OFFCURVE",
"995 -195 CURVE SMOOTH",
"995 -219 OFFCURVE",
"972 -237 OFFCURVE",
"949 -237 CURVE SMOOTH",
"935 -237 OFFCURVE",
"920 -230 OFFCURVE",
"911 -213 CURVE SMOOTH",
"247 1113 LINE SMOOTH",
"243 1121 OFFCURVE",
"242 1128 OFFCURVE",
"242 1134 CURVE SMOOTH",
"242 1158 OFFCURVE",
"265 1173 OFFCURVE",
"288 1173 CURVE SMOOTH",
"303 1173 OFFCURVE",
"317 1166 OFFCURVE",
"324 1152 CURVE SMOOTH"
);
}
);
width = 1240;
}
);
unicode = 005C;
},
{
glyphname = periodcentered;
lastChange = "2016-08-10 13:30:31 +0000";
layers = (
{
layerId = "840BD324-B0A6-42B0-BD23-CB5E8C19394F";
paths = (
{
closed = 1;
nodes = (
"699 680 CURVE SMOOTH",
"745 680 OFFCURVE",
"781 643 OFFCURVE",
"781 597 CURVE SMOOTH",
"781 551 OFFCURVE",
"745 515 OFFCURVE",
"699 515 CURVE SMOOTH",
"653 515 OFFCURVE",
"616 551 OFFCURVE",
"616 597 CURVE SMOOTH",
"616 643 OFFCURVE",
"653 680 OFFCURVE"
);
}
);
width = 1240;
}
);
unicode = 00B7;
},
{
glyphname = bullet;
lastChange = "2017-06-03 14:48:16 +0000";
layers = (
{
layerId = "840BD324-B0A6-42B0-BD23-CB5E8C19394F";
paths = (
{
closed = 1;
nodes = (
"620 197 CURVE SMOOTH",
"482 197 OFFCURVE",
"378 301 OFFCURVE",
"378 439 CURVE SMOOTH",
"378 577 OFFCURVE",
"482 681 OFFCURVE",
"620 681 CURVE SMOOTH",
"756 681 OFFCURVE",
"862 572 OFFCURVE",
"862 439 CURVE SMOOTH",
"862 305 OFFCURVE",
"756 197 OFFCURVE"
);
}
);
width = 1240;
}
);
unicode = 2022;
},
{
glyphname = colon;
lastChange = "2016-08-10 13:30:31 +0000";
layers = (
{
layerId = "840BD324-B0A6-42B0-BD23-CB5E8C19394F";
paths = (
{
closed = 1;
nodes = (
"644 600 CURVE SMOOTH",
"583 600 OFFCURVE",
"539 644 OFFCURVE",
"539 705 CURVE SMOOTH",
"539 766 OFFCURVE",
"584 811 OFFCURVE",
"644 811 CURVE SMOOTH",
"704 811 OFFCURVE",
"750 765 OFFCURVE",
"750 705 CURVE SMOOTH",
"750 644 OFFCURVE",
"704 600 OFFCURVE"
);
},
{
closed = 1;
nodes = (
"644 -16 CURVE SMOOTH",
"583 -16 OFFCURVE",
"539 28 OFFCURVE",
"539 89 CURVE SMOOTH",
"539 150 OFFCURVE",
"584 195 OFFCURVE",
"644 195 CURVE SMOOTH",
"704 195 OFFCURVE",
"750 149 OFFCURVE",
"750 89 CURVE SMOOTH",
"750 28 OFFCURVE",
"704 -16 OFFCURVE"
);
}
);
width = 1240;
}
);
unicode = 003A;
},
{
glyphname = comma;
lastChange = "2017-06-03 13:38:49 +0000";
layers = (
{
layerId = "840BD324-B0A6-42B0-BD23-CB5E8C19394F";
paths = (
{
closed = 1;
nodes = (
"616 180 CURVE SMOOTH",
"676 180 OFFCURVE",
"728 139 OFFCURVE",
"728 59 CURVE SMOOTH",
"728 -57 OFFCURVE",
"625 -167 OFFCURVE",
"543 -208 CURVE SMOOTH",
"540 -210 OFFCURVE",
"536 -210 OFFCURVE",
"533 -210 CURVE SMOOTH",
"519 -210 OFFCURVE",
"505 -197 OFFCURVE",
"505 -183 CURVE SMOOTH",
"505 -176 OFFCURVE",
"509 -168 OFFCURVE",
"517 -162 CURVE SMOOTH",
"560 -131 OFFCURVE",
"626 -70 OFFCURVE",
"626 -8 CURVE",
"567 -8 OFFCURVE",
"518 20 OFFCURVE",
"518 85 CURVE SMOOTH",
"518 149 OFFCURVE",
"569 180 OFFCURVE"
);
}
);
width = 1240;
}
);
unicode = 002C;
},
{
glyphname = exclam;
lastChange = "2017-06-03 13:42:57 +0000";
layers = (
{
components = (
{
name = period;
transform = "{1, 0, 0, 1, 1, 0}";
}
);
layerId = "840BD324-B0A6-42B0-BD23-CB5E8C19394F";
paths = (
{
closed = 1;
nodes = (
"658 1187 OFFCURVE",
"686 1170 OFFCURVE",
"686 1103 CURVE",
"656 380 LINE",
"656 353 OFFCURVE",
"638 344 OFFCURVE",
"622 344 CURVE SMOOTH",
"606 344 OFFCURVE",
"588 354 OFFCURVE",
"588 380 CURVE",
"556 1103 LINE",
"556 1170 OFFCURVE",
"584 1187 OFFCURVE",
"622 1187 CURVE SMOOTH"
);
}
);
width = 1240;
}
);
unicode = 0021;
},
{
glyphname = numbersign;
lastChange = "2017-06-03 14:54:38 +0000";
layers = (
{
layerId = "840BD324-B0A6-42B0-BD23-CB5E8C19394F";
paths = (
{
closed = 1;
nodes = (
"587 1282 LINE",
"592 1300 OFFCURVE",
"610 1308 OFFCURVE",
"627 1308 CURVE SMOOTH",
"647 1308 OFFCURVE",
"668 1296 OFFCURVE",
"668 1277 CURVE SMOOTH",
"668 1275 OFFCURVE",
"667 1270 OFFCURVE",
"666 1266 CURVE",
"321 -94 LINE",
"316 -114 OFFCURVE",
"296 -123 OFFCURVE",
"278 -123 CURVE SMOOTH",
"259 -123 OFFCURVE",
"241 -112 OFFCURVE",
"241 -94 CURVE SMOOTH",
"241 -91 OFFCURVE",
"242 -86 OFFCURVE",
"243 -82 CURVE"
);
},
{
closed = 1;
nodes = (
"953 440 LINE",
"984 440 OFFCURVE",
"994 419 OFFCURVE",
"994 398 CURVE SMOOTH",
"994 376 OFFCURVE",
"984 355 OFFCURVE",
"953 355 CURVE",
"244 355 LINE",
"214 355 OFFCURVE",
"203 376 OFFCURVE",
"203 398 CURVE SMOOTH",
"203 419 OFFCURVE",
"214 440 OFFCURVE",
"244 440 CURVE"
);
},
{
closed = 1;
nodes = (
"924 1282 LINE",
"929 1300 OFFCURVE",
"947 1308 OFFCURVE",
"964 1308 CURVE SMOOTH",
"984 1308 OFFCURVE",
"1005 1296 OFFCURVE",
"1005 1277 CURVE SMOOTH",
"1005 1275 OFFCURVE",
"1004 1269 OFFCURVE",
"1002 1262 CURVE",
"658 -94 LINE",
"653 -114 OFFCURVE",
"633 -123 OFFCURVE",
"615 -123 CURVE SMOOTH",
"596 -123 OFFCURVE",
"578 -112 OFFCURVE",
"578 -94 CURVE SMOOTH",
"578 -91 OFFCURVE",
"579 -86 OFFCURVE",
"580 -82 CURVE"
);
},
{
closed = 1;
nodes = (
"996 804 LINE",
"1027 804 OFFCURVE",
"1037 782 OFFCURVE",
"1037 761 CURVE SMOOTH",
"1037 740 OFFCURVE",
"1027 719 OFFCURVE",
"997 719 CURVE",
"286 719 LINE",
"256 719 OFFCURVE",
"245 740 OFFCURVE",
"245 762 CURVE SMOOTH",
"245 783 OFFCURVE",
"256 804 OFFCURVE",
"286 804 CURVE"
);
}
);
width = 1240;
}
);
unicode = 0023;
},
{
glyphname = period;
lastChange = "2017-06-03 13:38:49 +0000";
layers = (
{
layerId = "840BD324-B0A6-42B0-BD23-CB5E8C19394F";
paths = (
{
closed = 1;
nodes = (
"620 -16 CURVE SMOOTH",
"559 -16 OFFCURVE",
"514 28 OFFCURVE",
"514 89 CURVE SMOOTH",
"514 150 OFFCURVE",
"560 195 OFFCURVE",
"620 195 CURVE SMOOTH",
"680 195 OFFCURVE",
"726 149 OFFCURVE",
"726 89 CURVE SMOOTH",
"726 28 OFFCURVE",
"680 -16 OFFCURVE"
);
}
);
width = 1240;
}
);
unicode = 002E;
},
{
glyphname = question;
lastChange = "2017-06-03 13:55:21 +0000";
layers = (
{
layerId = "840BD324-B0A6-42B0-BD23-CB5E8C19394F";
paths = (
{
closed = 1;
nodes = (
"650 37 OFFCURVE",
"606 -9 OFFCURVE",
"549 -9 CURVE SMOOTH",
"492 -9 OFFCURVE",
"447 36 OFFCURVE",
"447 93 CURVE SMOOTH",
"447 150 OFFCURVE",
"492 194 OFFCURVE",
"549 194 CURVE SMOOTH",
"606 194 OFFCURVE",
"650 151 OFFCURVE",
"650 94 CURVE SMOOTH"
);
},
{
closed = 1;
nodes = (
"443 1188 OFFCURVE",
"573 1188 CURVE SMOOTH",
"764 1188 OFFCURVE",
"905 1092 OFFCURVE",
"905 906 CURVE SMOOTH",
"905 644 OFFCURVE",
"590 571 OFFCURVE",
"590 394 CURVE SMOOTH",
"590 360 OFFCURVE",
"576 338 OFFCURVE",
"543 338 CURVE SMOOTH",
"505 338 OFFCURVE",
"494 363 OFFCURVE",
"494 393 CURVE SMOOTH",
"494 615 OFFCURVE",
"767 655 OFFCURVE",
"801 874 CURVE SMOOTH",
"803 887 OFFCURVE",
"804 900 OFFCURVE",
"804 912 CURVE SMOOTH",
"804 1030 OFFCURVE",
"704 1111 OFFCURVE",
"570 1111 CURVE SMOOTH",
"466 1111 OFFCURVE",
"407 1060 OFFCURVE",
"396 1053 CURVE",
"396 943 LINE SMOOTH",
"396 908 OFFCURVE",
"372 891 OFFCURVE",
"349 891 CURVE SMOOTH",
"324 891 OFFCURVE",
"300 909 OFFCURVE",
"300 947 CURVE SMOOTH",
"300 1055 LINE SMOOTH",
"300 1114 OFFCURVE"
);
}
);
width = 1240;
}
);
unicode = 003F;
},
{
glyphname = quotedbl;
lastChange = "2016-08-10 13:30:31 +0000";
layers = (
{
layerId = "840BD324-B0A6-42B0-BD23-CB5E8C19394F";
paths = (
{
closed = 1;
nodes = (
"535 721 LINE SMOOTH",
"534 707 OFFCURVE",
"523 701 OFFCURVE",
"511 701 CURVE SMOOTH",
"499 701 OFFCURVE",
"487 707 OFFCURVE",
"486 721 CURVE SMOOTH",
"454 1117 LINE SMOOTH",
"451 1154 OFFCURVE",
"481 1172 OFFCURVE",
"511 1172 CURVE SMOOTH",
"540 1172 OFFCURVE",
"569 1155 OFFCURVE",
"569 1122 CURVE SMOOTH",
"569 1116 LINE SMOOTH"
);
},
{
closed = 1;
nodes = (
"752 721 LINE SMOOTH",
"751 707 OFFCURVE",
"740 701 OFFCURVE",
"728 701 CURVE SMOOTH",
"716 701 OFFCURVE",
"704 707 OFFCURVE",
"703 721 CURVE SMOOTH",
"671 1117 LINE SMOOTH",
"668 1154 OFFCURVE",
"698 1172 OFFCURVE",
"728 1172 CURVE SMOOTH",
"757 1172 OFFCURVE",
"786 1155 OFFCURVE",
"786 1122 CURVE SMOOTH",
"786 1116 LINE SMOOTH"
);
}
);
width = 1240;
}
);
unicode = 0022;
},
{
glyphname = quotesingle;
lastChange = "2016-08-10 13:30:31 +0000";
layers = (
{
layerId = "840BD324-B0A6-42B0-BD23-CB5E8C19394F";
paths = (
{
closed = 1;
nodes = (
"644 721 LINE SMOOTH",
"643 707 OFFCURVE",
"632 701 OFFCURVE",
"620 701 CURVE SMOOTH",
"608 701 OFFCURVE",
"596 707 OFFCURVE",
"595 721 CURVE SMOOTH",
"563 1117 LINE SMOOTH",
"560 1154 OFFCURVE",
"590 1172 OFFCURVE",
"620 1172 CURVE SMOOTH",
"649 1172 OFFCURVE",
"678 1155 OFFCURVE",
"678 1122 CURVE SMOOTH",
"678 1116 LINE SMOOTH"
);
}
);
width = 1240;
}
);
unicode = 0027;
},
{
glyphname = slash;
lastChange = "2016-08-10 13:30:31 +0000";
layers = (
{
layerId = "840BD324-B0A6-42B0-BD23-CB5E8C19394F";
paths = (
{
closed = 1;
nodes = (
"247 -178 CURVE SMOOTH",
"914 1152 LINE SMOOTH",
"921 1166 OFFCURVE",
"936 1173 OFFCURVE",
"951 1173 CURVE SMOOTH",
"974 1173 OFFCURVE",
"997 1158 OFFCURVE",
"997 1134 CURVE SMOOTH",
"997 1128 OFFCURVE",
"995 1121 OFFCURVE",
"991 1113 CURVE SMOOTH",
"327 -213 LINE SMOOTH",
"318 -230 OFFCURVE",
"304 -237 OFFCURVE",
"290 -237 CURVE SMOOTH",
"267 -237 OFFCURVE",
"243 -219 OFFCURVE",
"243 -195 CURVE SMOOTH",
"243 -189 OFFCURVE",
"244 -184 OFFCURVE"
);
}
);
width = 1240;
}
);
unicode = 002F;
},
{
glyphname = underscore;
lastChange = "2016-08-10 13:30:31 +0000";
layers = (
{
layerId = "840BD324-B0A6-42B0-BD23-CB5E8C19394F";
paths = (
{
closed = 1;
nodes = (
"1000 91 LINE SMOOTH",
"1030 91 OFFCURVE",
"1045 68 OFFCURVE",
"1045 46 CURVE SMOOTH",
"1045 23 OFFCURVE",
"1030 0 OFFCURVE",
"1000 0 CURVE SMOOTH",
"241 0 LINE SMOOTH",
"211 0 OFFCURVE",
"196 23 OFFCURVE",
"196 46 CURVE SMOOTH",
"196 68 OFFCURVE",
"211 91 OFFCURVE",
"241 91 CURVE SMOOTH"
);
}
);
width = 1240;
}
);
unicode = 005F;
},
{
glyphname = question.ss02;
lastChange = "2017-06-03 13:51:51 +0000";
layers = (
{
layerId = "840BD324-B0A6-42B0-BD23-CB5E8C19394F";
paths = (
{
closed = 1;
nodes = (
"549 -9 CURVE SMOOTH",
"492 -9 OFFCURVE",
"447 36 OFFCURVE",
"447 93 CURVE SMOOTH",
"447 150 OFFCURVE",
"492 194 OFFCURVE",
"549 194 CURVE SMOOTH",
"606 194 OFFCURVE",
"650 151 OFFCURVE",
"650 94 CURVE SMOOTH",
"650 37 OFFCURVE",
"606 -9 OFFCURVE"
);
},
{
closed = 1;
nodes = (
"905 906 CURVE SMOOTH",
"905 644 OFFCURVE",
"590 571 OFFCURVE",
"590 394 CURVE SMOOTH",
"590 360 OFFCURVE",
"576 338 OFFCURVE",
"543 338 CURVE SMOOTH",
"505 338 OFFCURVE",
"494 363 OFFCURVE",
"494 393 CURVE SMOOTH",
"494 615 OFFCURVE",
"769 655 OFFCURVE",
"803 874 CURVE SMOOTH",
"805 887 OFFCURVE",
"806 900 OFFCURVE",
"806 912 CURVE SMOOTH",
"806 1030 OFFCURVE",
"704 1111 OFFCURVE",
"570 1111 CURVE SMOOTH",
"526 1111 OFFCURVE",
"476 1107 OFFCURVE",
"421 1062 CURVE",
"415 1000 OFFCURVE",
"416 891 OFFCURVE",
"349 891 CURVE SMOOTH",
"313 891 OFFCURVE",
"300 928 OFFCURVE",
"300 971 CURVE SMOOTH",
"300 1106 OFFCURVE",
"411 1188 OFFCURVE",
"573 1188 CURVE SMOOTH",
"764 1188 OFFCURVE",
"905 1092 OFFCURVE"
);
}
);
width = 1240;
}
);
},
{
glyphname = braceleft;
lastChange = "2017-06-03 14:46:42 +0000";
layers = (
{
layerId = "840BD324-B0A6-42B0-BD23-CB5E8C19394F";
paths = (
{
closed = 1;
nodes = (
"658 256 OFFCURVE",
"598 133 OFFCURVE",
"598 35 CURVE SMOOTH",
"598 -73 OFFCURVE",
"664 -143 OFFCURVE",
"851 -143 CURVE SMOOTH",
"880 -143 OFFCURVE",
"899 -164 OFFCURVE",
"899 -185 CURVE SMOOTH",
"899 -206 OFFCURVE",
"880 -227 OFFCURVE",
"851 -227 CURVE SMOOTH",
"559 -227 OFFCURVE",
"503 -106 OFFCURVE",
"503 39 CURVE SMOOTH",
"503 182 OFFCURVE",
"565 270 OFFCURVE",
"565 356 CURVE SMOOTH",
"565 416 OFFCURVE",
"540 459 OFFCURVE",
"468 463 CURVE SMOOTH",
"419 466 OFFCURVE",
"395 486 OFFCURVE",
"395 517 CURVE SMOOTH",
"395 545 OFFCURVE",
"422 568 OFFCURVE",
"468 571 CURVE SMOOTH",
"540 576 OFFCURVE",
"565 628 OFFCURVE",
"565 688 CURVE SMOOTH",
"565 774 OFFCURVE",
"503 862 OFFCURVE",
"503 1005 CURVE SMOOTH",
"503 1150 OFFCURVE",
"559 1270 OFFCURVE",
"851 1270 CURVE SMOOTH",
"880 1270 OFFCURVE",
"899 1249 OFFCURVE",
"899 1228 CURVE SMOOTH",
"899 1207 OFFCURVE",
"880 1186 OFFCURVE",
"851 1186 CURVE SMOOTH",
"664 1186 OFFCURVE",
"598 1116 OFFCURVE",
"598 1008 CURVE SMOOTH",
"598 910 OFFCURVE",
"658 787 OFFCURVE",
"658 688 CURVE SMOOTH",
"658 617 OFFCURVE",
"627 547 OFFCURVE",
"549 517 CURVE",
"627 490 OFFCURVE",
"658 426 OFFCURVE",
"658 355 CURVE SMOOTH"
);
}
);
width = 1240;
}
);
unicode = 007B;
},
{
glyphname = braceright;
lastChange = "2017-06-03 14:44:49 +0000";
layers = (
{
layerId = "840BD324-B0A6-42B0-BD23-CB5E8C19394F";
paths = (
{
closed = 1;
nodes = (
"614 355 CURVE SMOOTH",
"614 426 OFFCURVE",
"645 490 OFFCURVE",
"723 517 CURVE",
"645 547 OFFCURVE",
"614 617 OFFCURVE",
"614 688 CURVE SMOOTH",
"614 787 OFFCURVE",
"674 910 OFFCURVE",
"674 1008 CURVE SMOOTH",
"674 1116 OFFCURVE",
"608 1186 OFFCURVE",
"421 1186 CURVE SMOOTH",
"392 1186 OFFCURVE",
"373 1207 OFFCURVE",
"373 1228 CURVE SMOOTH",
"373 1249 OFFCURVE",
"392 1270 OFFCURVE",
"421 1270 CURVE SMOOTH",
"713 1270 OFFCURVE",
"769 1150 OFFCURVE",
"769 1005 CURVE SMOOTH",
"769 862 OFFCURVE",
"707 774 OFFCURVE",
"707 688 CURVE SMOOTH",
"707 628 OFFCURVE",
"732 576 OFFCURVE",
"804 571 CURVE SMOOTH",
"850 568 OFFCURVE",
"877 545 OFFCURVE",
"877 517 CURVE SMOOTH",
"877 486 OFFCURVE",
"853 466 OFFCURVE",
"804 463 CURVE SMOOTH",
"732 459 OFFCURVE",
"707 416 OFFCURVE",
"707 356 CURVE SMOOTH",
"707 270 OFFCURVE",
"769 182 OFFCURVE",
"769 39 CURVE SMOOTH",
"769 -106 OFFCURVE",
"713 -227 OFFCURVE",
"421 -227 CURVE SMOOTH",
"392 -227 OFFCURVE",
"373 -206 OFFCURVE",
"373 -185 CURVE SMOOTH",
"373 -164 OFFCURVE",
"392 -143 OFFCURVE",
"421 -143 CURVE SMOOTH",
"608 -143 OFFCURVE",
"674 -73 OFFCURVE",
"674 35 CURVE SMOOTH",
"674 133 OFFCURVE",
"614 256 OFFCURVE"
);
}
);
width = 1240;
}
);
unicode = 007D;
},
{
glyphname = bracketleft;
lastChange = "2016-08-10 13:30:31 +0000";
layers = (
{
layerId = "840BD324-B0A6-42B0-BD23-CB5E8C19394F";
paths = (
{
closed = 1;
nodes = (
"802 1331 LINE SMOOTH",
"821 1331 OFFCURVE",
"830 1310 OFFCURVE",
"830 1289 CURVE SMOOTH",
"830 1268 OFFCURVE",
"821 1247 OFFCURVE",
"802 1247 CURVE SMOOTH",
"611 1247 LINE",
"611 -64 LINE",
"802 -64 LINE SMOOTH",
"821 -64 OFFCURVE",
"830 -85 OFFCURVE",
"830 -106 CURVE SMOOTH",
"830 -127 OFFCURVE",
"821 -148 OFFCURVE",
"802 -148 CURVE SMOOTH",
"570 -148 LINE SMOOTH",
"534 -148 OFFCURVE",
"515 -125 OFFCURVE",
"515 -90 CURVE SMOOTH",
"515 1270 LINE SMOOTH",
"515 1308 OFFCURVE",
"532 1331 OFFCURVE",
"570 1331 CURVE SMOOTH"
);
}
);
width = 1240;
}
);
unicode = 005B;
},
{
glyphname = bracketright;
lastChange = "2016-08-10 13:30:31 +0000";
layers = (
{
layerId = "840BD324-B0A6-42B0-BD23-CB5E8C19394F";
paths = (
{
closed = 1;
nodes = (
"452 -148 LINE SMOOTH",
"433 -148 OFFCURVE",
"424 -127 OFFCURVE",
"424 -106 CURVE SMOOTH",
"424 -85 OFFCURVE",
"433 -64 OFFCURVE",
"452 -64 CURVE SMOOTH",
"643 -64 LINE",
"643 1247 LINE",
"452 1247 LINE SMOOTH",
"433 1247 OFFCURVE",
"424 1268 OFFCURVE",
"424 1289 CURVE SMOOTH",
"424 1310 OFFCURVE",
"433 1331 OFFCURVE",
"452 1331 CURVE SMOOTH",
"684 1331 LINE SMOOTH",
"720 1331 OFFCURVE",
"739 1308 OFFCURVE",
"739 1273 CURVE SMOOTH",
"739 -87 LINE SMOOTH",
"739 -125 OFFCURVE",
"722 -148 OFFCURVE",
"684 -148 CURVE SMOOTH"
);
}
);
width = 1240;
}
);
unicode = 005D;
},
{
glyphname = parenleft;
lastChange = "2016-08-10 13:30:31 +0000";
layers = (
{
layerId = "840BD324-B0A6-42B0-BD23-CB5E8C19394F";
paths = (
{
closed = 1;
nodes = (
"484 570 CURVE SMOOTH",
"484 853 OFFCURVE",
"549 1079 OFFCURVE",
"692 1267 CURVE SMOOTH",
"701 1279 OFFCURVE",
"712 1284 OFFCURVE",
"723 1284 CURVE SMOOTH",
"747 1284 OFFCURVE",
"770 1259 OFFCURVE",
"770 1238 CURVE SMOOTH",
"770 1232 OFFCURVE",
"768 1227 OFFCURVE",
"764 1222 CURVE SMOOTH",
"638 1074 OFFCURVE",
"578 826 OFFCURVE",
"578 570 CURVE SMOOTH",
"578 314 OFFCURVE",
"638 66 OFFCURVE",
"764 -82 CURVE SMOOTH",
"768 -87 OFFCURVE",
"770 -92 OFFCURVE",
"770 -98 CURVE SMOOTH",
"770 -119 OFFCURVE",
"747 -144 OFFCURVE",
"723 -144 CURVE SMOOTH",
"712 -144 OFFCURVE",
"701 -139 OFFCURVE",
"692 -127 CURVE SMOOTH",
"549 61 OFFCURVE",
"484 287 OFFCURVE"
);
}
);
width = 1240;
}
);
unicode = 0028;
},
{
glyphname = parenright;
lastChange = "2016-08-10 13:30:31 +0000";
layers = (
{
layerId = "840BD324-B0A6-42B0-BD23-CB5E8C19394F";
paths = (
{
closed = 1;
nodes = (
"770 570 CURVE SMOOTH",
"770 287 OFFCURVE",
"705 61 OFFCURVE",
"562 -127 CURVE SMOOTH",
"553 -139 OFFCURVE",
"542 -144 OFFCURVE",
"531 -144 CURVE SMOOTH",
"507 -144 OFFCURVE",
"484 -119 OFFCURVE",
"484 -98 CURVE SMOOTH",
"484 -92 OFFCURVE",
"486 -87 OFFCURVE",
"490 -82 CURVE SMOOTH",
"616 66 OFFCURVE",
"676 314 OFFCURVE",
"676 570 CURVE SMOOTH",
"676 826 OFFCURVE",
"616 1074 OFFCURVE",
"490 1222 CURVE SMOOTH",
"486 1227 OFFCURVE",
"484 1232 OFFCURVE",
"484 1238 CURVE SMOOTH",
"484 1259 OFFCURVE",
"507 1284 OFFCURVE",
"531 1284 CURVE SMOOTH",
"542 1284 OFFCURVE",
"553 1279 OFFCURVE",
"562 1267 CURVE SMOOTH",
"705 1079 OFFCURVE",
"770 853 OFFCURVE"
);
}
);
width = 1240;
}
);
unicode = 0029;
},
{
glyphname = emdash;
lastChange = "2016-08-10 13:30:31 +0000";
layers = (
{
layerId = "840BD324-B0A6-42B0-BD23-CB5E8C19394F";
paths = (
{
closed = 1;
nodes = (
"1042 533 LINE SMOOTH",
"1072 533 OFFCURVE",
"1087 512 OFFCURVE",
"1087 490 CURVE SMOOTH",
"1087 469 OFFCURVE",
"1072 447 OFFCURVE",
"1042 447 CURVE SMOOTH",
"199 447 LINE SMOOTH",
"169 447 OFFCURVE",
"154 469 OFFCURVE",
"154 490 CURVE SMOOTH",
"154 512 OFFCURVE",
"169 533 OFFCURVE",
"199 533 CURVE SMOOTH"
);
}
);
width = 1240;
}
);
unicode = 2014;
},
{
glyphname = endash;
lastChange = "2016-08-10 13:30:31 +0000";
layers = (
{
layerId = "840BD324-B0A6-42B0-BD23-CB5E8C19394F";
paths = (
{
closed = 1;
nodes = (
"958 503 LINE SMOOTH",
"988 503 OFFCURVE",
"1003 482 OFFCURVE",
"1003 460 CURVE SMOOTH",
"1003 439 OFFCURVE",
"988 417 OFFCURVE",
"958 417 CURVE SMOOTH",
"283 417 LINE SMOOTH",
"253 417 OFFCURVE",
"238 439 OFFCURVE",
"238 460 CURVE SMOOTH",
"238 482 OFFCURVE",
"253 503 OFFCURVE",
"283 503 CURVE SMOOTH"
);
}
);
width = 1240;
}
);
unicode = 2013;
},
{
glyphname = hyphen;
lastChange = "2017-06-03 16:04:02 +0000";
layers = (
{
layerId = "840BD324-B0A6-42B0-BD23-CB5E8C19394F";
paths = (
{
closed = 1;
nodes = (
"379 510 CURVE SMOOTH",
"886 510 LINE SMOOTH",
"930 510 OFFCURVE",
"942 483 OFFCURVE",
"942 462 CURVE SMOOTH",
"942 442 OFFCURVE",
"931 418 OFFCURVE",
"886 418 CURVE SMOOTH",
"379 418 LINE SMOOTH",
"334 418 OFFCURVE",
"322 442 OFFCURVE",
"322 462 CURVE SMOOTH",
"322 483 OFFCURVE",
"334 510 OFFCURVE"
);
}
);
width = 1240;
}
);
unicode = 002D;
},
{
glyphname = softhyphen;
lastChange = "2017-06-03 17:02:19 +0000";
layers = (
{
layerId = "840BD324-B0A6-42B0-BD23-CB5E8C19394F";
paths = (
{
closed = 1;
nodes = (
"895 533 LINE SMOOTH",
"925 533 OFFCURVE",
"940 512 OFFCURVE",
"940 490 CURVE SMOOTH",
"940 469 OFFCURVE",
"925 447 OFFCURVE",
"895 447 CURVE SMOOTH",
"345 447 LINE SMOOTH",
"315 447 OFFCURVE",
"300 469 OFFCURVE",
"300 490 CURVE SMOOTH",
"300 512 OFFCURVE",
"315 533 OFFCURVE",
"345 533 CURVE SMOOTH"
);
}
);
width = 1240;
}
);
unicode = 00AD;
},
{
glyphname = guillemetleft;
lastChange = "2017-06-01 14:36:52 +0000";
layers = (
{
layerId = "840BD324-B0A6-42B0-BD23-CB5E8C19394F";
paths = (
{
closed = 1;
nodes = (
"554 216 CURVE SMOOTH",
"210 475 LINE SMOOTH",
"185 494 OFFCURVE",
"172 512 OFFCURVE",
"172 530 CURVE SMOOTH",
"172 548 OFFCURVE",
"185 567 OFFCURVE",
"210 586 CURVE SMOOTH",
"544 841 LINE SMOOTH",
"554 848 OFFCURVE",
"564 852 OFFCURVE",
"574 852 CURVE SMOOTH",
"596 852 OFFCURVE",
"614 836 OFFCURVE",
"614 816 CURVE SMOOTH",
"614 804 OFFCURVE",
"607 790 OFFCURVE",
"590 777 CURVE SMOOTH",
"269 531 LINE",
"599 287 LINE SMOOTH",
"621 271 OFFCURVE",
"630 253 OFFCURVE",
"630 238 CURVE SMOOTH",
"630 218 OFFCURVE",
"614 202 OFFCURVE",
"592 202 CURVE SMOOTH",
"581 202 OFFCURVE",
"567 206 OFFCURVE"
);
},
{
closed = 1;
nodes = (
"918 216 CURVE SMOOTH",
"574 475 LINE SMOOTH",
"549 494 OFFCURVE",
"536 512 OFFCURVE",
"536 530 CURVE SMOOTH",
"536 548 OFFCURVE",
"549 567 OFFCURVE",
"574 586 CURVE SMOOTH",
"908 841 LINE SMOOTH",
"918 848 OFFCURVE",
"928 852 OFFCURVE",
"938 852 CURVE SMOOTH",
"960 852 OFFCURVE",
"978 836 OFFCURVE",
"978 816 CURVE SMOOTH",
"978 804 OFFCURVE",
"971 790 OFFCURVE",
"954 777 CURVE SMOOTH",
"633 531 LINE",
"963 287 LINE SMOOTH",
"985 271 OFFCURVE",
"994 253 OFFCURVE",
"994 238 CURVE SMOOTH",
"994 218 OFFCURVE",
"978 202 OFFCURVE",
"956 202 CURVE SMOOTH",
"945 202 OFFCURVE",
"931 206 OFFCURVE"
);
}
);
width = 1240;
}
);
unicode = 00AB;
},
{
glyphname = guillemetright;
lastChange = "2017-06-01 14:36:56 +0000";
layers = (
{
layerId = "840BD324-B0A6-42B0-BD23-CB5E8C19394F";
paths = (
{
closed = 1;
nodes = (
"634 831 CURVE SMOOTH",
"978 572 LINE SMOOTH",
"1003 553 OFFCURVE",
"1016 535 OFFCURVE",
"1016 517 CURVE SMOOTH",
"1016 499 OFFCURVE",
"1003 480 OFFCURVE",
"978 461 CURVE SMOOTH",
"644 206 LINE SMOOTH",
"634 199 OFFCURVE",
"624 195 OFFCURVE",
"614 195 CURVE SMOOTH",
"592 195 OFFCURVE",
"574 211 OFFCURVE",
"574 231 CURVE SMOOTH",
"574 243 OFFCURVE",
"581 257 OFFCURVE",
"598 270 CURVE SMOOTH",
"919 516 LINE",
"589 760 LINE SMOOTH",
"567 776 OFFCURVE",
"558 794 OFFCURVE",
"558 809 CURVE SMOOTH",
"558 829 OFFCURVE",
"574 845 OFFCURVE",
"596 845 CURVE SMOOTH",
"607 845 OFFCURVE",
"621 841 OFFCURVE"
);
},
{
closed = 1;
nodes = (
"270 831 CURVE SMOOTH",
"614 572 LINE SMOOTH",
"639 553 OFFCURVE",
"652 535 OFFCURVE",
"652 517 CURVE SMOOTH",
"652 499 OFFCURVE",
"639 480 OFFCURVE",
"614 461 CURVE SMOOTH",
"280 206 LINE SMOOTH",
"270 199 OFFCURVE",
"260 195 OFFCURVE",
"250 195 CURVE SMOOTH",
"228 195 OFFCURVE",
"210 211 OFFCURVE",
"210 231 CURVE SMOOTH",
"210 243 OFFCURVE",
"217 257 OFFCURVE",
"234 270 CURVE SMOOTH",
"555 516 LINE",
"225 760 LINE SMOOTH",
"203 776 OFFCURVE",
"194 794 OFFCURVE",
"194 809 CURVE SMOOTH",
"194 829 OFFCURVE",
"210 845 OFFCURVE",
"232 845 CURVE SMOOTH",
"243 845 OFFCURVE",
"257 841 OFFCURVE"
);
}
);
width = 1240;
}
);
unicode = 00BB;
},
{
glyphname = guilsinglleft;
lastChange = "2016-08-10 13:30:31 +0000";
layers = (
{
layerId = "840BD324-B0A6-42B0-BD23-CB5E8C19394F";
paths = (
{
closed = 1;
nodes = (
"854 216 CURVE SMOOTH",
"250 475 LINE SMOOTH",
"222 487 OFFCURVE",
"207 508 OFFCURVE",
"207 530 CURVE SMOOTH",
"207 551 OFFCURVE",
"221 573 OFFCURVE",
"250 585 CURVE SMOOTH",
"844 841 LINE SMOOTH",
"851 844 OFFCURVE",
"858 845 OFFCURVE",
"864 845 CURVE SMOOTH",
"888 845 OFFCURVE",
"907 826 OFFCURVE",
"907 805 CURVE SMOOTH",
"907 790 OFFCURVE",
"898 775 OFFCURVE",
"874 765 CURVE SMOOTH",
"326 531 LINE",
"883 297 LINE SMOOTH",
"912 284 OFFCURVE",
"925 265 OFFCURVE",
"925 248 CURVE SMOOTH",
"925 228 OFFCURVE",
"908 210 OFFCURVE",
"882 210 CURVE SMOOTH",
"873 210 OFFCURVE",
"864 212 OFFCURVE"
);
}
);
width = 1240;
}
);
unicode = 2039;
},
{
glyphname = guilsinglright;
lastChange = "2016-08-10 13:30:31 +0000";
layers = (
{
layerId = "840BD324-B0A6-42B0-BD23-CB5E8C19394F";
paths = (
{
closed = 1;
nodes = (
"345 834 CURVE SMOOTH",
"949 575 LINE SMOOTH",
"977 563 OFFCURVE",
"992 542 OFFCURVE",
"992 520 CURVE SMOOTH",
"992 499 OFFCURVE",
"978 477 OFFCURVE",
"949 465 CURVE SMOOTH",
"355 209 LINE SMOOTH",
"348 206 OFFCURVE",
"341 205 OFFCURVE",
"335 205 CURVE SMOOTH",
"311 205 OFFCURVE",
"292 224 OFFCURVE",
"292 245 CURVE SMOOTH",
"292 260 OFFCURVE",
"301 275 OFFCURVE",
"325 285 CURVE SMOOTH",
"873 519 LINE",
"316 753 LINE SMOOTH",
"287 766 OFFCURVE",
"274 785 OFFCURVE",
"274 802 CURVE SMOOTH",
"274 822 OFFCURVE",
"291 840 OFFCURVE",
"317 840 CURVE SMOOTH",
"326 840 OFFCURVE",
"335 838 OFFCURVE"
);
}
);
width = 1240;
}
);
unicode = 203A;
},
{
glyphname = quotedblbase;
lastChange = "2016-08-10 13:30:31 +0000";
layers = (
{
layerId = "840BD324-B0A6-42B0-BD23-CB5E8C19394F";
paths = (
{
closed = 1;
nodes = (
"535 -214 LINE SMOOTH",
"534 -228 OFFCURVE",
"522 -234 OFFCURVE",
"510 -234 CURVE SMOOTH",
"498 -234 OFFCURVE",
"487 -228 OFFCURVE",
"486 -214 CURVE SMOOTH",
"454 182 LINE SMOOTH",
"451 219 OFFCURVE",
"481 237 OFFCURVE",
"511 237 CURVE SMOOTH",
"540 237 OFFCURVE",
"569 220 OFFCURVE",
"569 187 CURVE SMOOTH",
"569 181 LINE SMOOTH"
);
},
{
closed = 1;
nodes = (
"752 -214 LINE SMOOTH",
"751 -228 OFFCURVE",
"740 -234 OFFCURVE",
"728 -234 CURVE SMOOTH",
"716 -234 OFFCURVE",
"704 -228 OFFCURVE",
"703 -214 CURVE SMOOTH",
"671 182 LINE SMOOTH",
"668 219 OFFCURVE",
"698 237 OFFCURVE",
"728 237 CURVE SMOOTH",
"757 237 OFFCURVE",
"786 220 OFFCURVE",
"786 187 CURVE SMOOTH",
"786 181 LINE SMOOTH"
);
}
);
width = 1240;
}
);
unicode = 201E;
},
{
glyphname = quotedblleft;
lastChange = "2016-08-10 13:30:31 +0000";
layers = (
{
layerId = "840BD324-B0A6-42B0-BD23-CB5E8C19394F";
paths = (
{
closed = 1;
nodes = (
"745 774 CURVE SMOOTH",
"685 774 OFFCURVE",
"633 815 OFFCURVE",
"633 895 CURVE SMOOTH",
"633 1011 OFFCURVE",
"736 1144 OFFCURVE",
"818 1185 CURVE SMOOTH",
"821 1187 OFFCURVE",
"825 1187 OFFCURVE",
"828 1187 CURVE SMOOTH",
"842 1187 OFFCURVE",
"856 1174 OFFCURVE",
"856 1160 CURVE SMOOTH",
"856 1153 OFFCURVE",
"852 1145 OFFCURVE",
"844 1139 CURVE SMOOTH",
"801 1108 OFFCURVE",
"735 1024 OFFCURVE",
"735 962 CURVE",
"794 962 OFFCURVE",
"843 934 OFFCURVE",
"843 869 CURVE SMOOTH",
"843 805 OFFCURVE",
"792 774 OFFCURVE"
);
},
{
closed = 1;
nodes = (
"449 774 CURVE SMOOTH",
"389 774 OFFCURVE",
"337 815 OFFCURVE",
"337 895 CURVE SMOOTH",
"337 1011 OFFCURVE",
"440 1144 OFFCURVE",
"522 1185 CURVE SMOOTH",
"525 1187 OFFCURVE",
"529 1187 OFFCURVE",
"532 1187 CURVE SMOOTH",
"546 1187 OFFCURVE",
"560 1174 OFFCURVE",
"560 1160 CURVE SMOOTH",
"560 1153 OFFCURVE",
"556 1145 OFFCURVE",
"548 1139 CURVE SMOOTH",
"505 1108 OFFCURVE",
"439 1024 OFFCURVE",
"439 962 CURVE",
"498 962 OFFCURVE",
"547 934 OFFCURVE",
"547 869 CURVE SMOOTH",
"547 805 OFFCURVE",
"496 774 OFFCURVE"
);
}
);
width = 1240;
}
);
unicode = 201C;
},
{
glyphname = quotedblright;
lastChange = "2016-08-10 13:30:31 +0000";
layers = (
{
layerId = "840BD324-B0A6-42B0-BD23-CB5E8C19394F";
paths = (
{
closed = 1;
nodes = (
"465 1187 CURVE SMOOTH",
"525 1187 OFFCURVE",
"577 1146 OFFCURVE",
"577 1066 CURVE SMOOTH",
"577 950 OFFCURVE",
"474 817 OFFCURVE",
"392 776 CURVE SMOOTH",
"389 774 OFFCURVE",
"385 774 OFFCURVE",
"382 774 CURVE SMOOTH",
"368 774 OFFCURVE",
"354 787 OFFCURVE",
"354 801 CURVE SMOOTH",
"354 808 OFFCURVE",
"358 816 OFFCURVE",
"366 822 CURVE SMOOTH",
"409 853 OFFCURVE",
"475 937 OFFCURVE",
"475 999 CURVE",
"416 999 OFFCURVE",
"367 1027 OFFCURVE",
"367 1092 CURVE SMOOTH",
"367 1156 OFFCURVE",
"418 1187 OFFCURVE"
);
},
{
closed = 1;
nodes = (
"761 1187 CURVE SMOOTH",
"821 1187 OFFCURVE",
"873 1146 OFFCURVE",
"873 1066 CURVE SMOOTH",
"873 950 OFFCURVE",
"770 817 OFFCURVE",
"688 776 CURVE SMOOTH",
"685 774 OFFCURVE",
"681 774 OFFCURVE",
"678 774 CURVE SMOOTH",
"664 774 OFFCURVE",
"650 787 OFFCURVE",
"650 801 CURVE SMOOTH",
"650 808 OFFCURVE",
"654 816 OFFCURVE",
"662 822 CURVE SMOOTH",
"705 853 OFFCURVE",
"771 937 OFFCURVE",
"771 999 CURVE",
"712 999 OFFCURVE",
"663 1027 OFFCURVE",
"663 1092 CURVE SMOOTH",
"663 1156 OFFCURVE",
"714 1187 OFFCURVE"
);
}
);
width = 1240;
}
);
unicode = 201D;
},
{
glyphname = quoteleft;
lastChange = "2016-08-10 13:30:31 +0000";
layers = (
{
layerId = "840BD324-B0A6-42B0-BD23-CB5E8C19394F";
paths = (
{
closed = 1;
nodes = (
"633 774 CURVE SMOOTH",
"573 774 OFFCURVE",
"521 815 OFFCURVE",
"521 895 CURVE SMOOTH",
"521 1011 OFFCURVE",
"624 1144 OFFCURVE",
"706 1185 CURVE SMOOTH",
"709 1187 OFFCURVE",
"713 1187 OFFCURVE",
"716 1187 CURVE SMOOTH",
"730 1187 OFFCURVE",
"744 1174 OFFCURVE",
"744 1160 CURVE SMOOTH",
"744 1153 OFFCURVE",
"740 1145 OFFCURVE",
"732 1139 CURVE SMOOTH",
"689 1108 OFFCURVE",
"623 1024 OFFCURVE",
"623 962 CURVE",
"682 962 OFFCURVE",
"731 934 OFFCURVE",
"731 869 CURVE SMOOTH",
"731 805 OFFCURVE",
"680 774 OFFCURVE"
);
}
);
width = 1240;
}
);
unicode = 2018;
},
{
glyphname = quoteright;
lastChange = "2016-08-10 13:30:31 +0000";
layers = (
{
layerId = "840BD324-B0A6-42B0-BD23-CB5E8C19394F";
paths = (
{
closed = 1;
nodes = (
"649 1187 CURVE SMOOTH",
"709 1187 OFFCURVE",
"761 1146 OFFCURVE",
"761 1066 CURVE SMOOTH",
"761 950 OFFCURVE",
"658 817 OFFCURVE",
"576 776 CURVE SMOOTH",
"573 774 OFFCURVE",
"569 774 OFFCURVE",
"566 774 CURVE SMOOTH",
"552 774 OFFCURVE",
"538 787 OFFCURVE",
"538 801 CURVE SMOOTH",
"538 808 OFFCURVE",
"542 816 OFFCURVE",
"550 822 CURVE SMOOTH",
"593 853 OFFCURVE",
"659 937 OFFCURVE",
"659 999 CURVE",
"600 999 OFFCURVE",
"551 1027 OFFCURVE",
"551 1092 CURVE SMOOTH",
"551 1156 OFFCURVE",
"602 1187 OFFCURVE"
);
}
);
width = 1240;
}
);
unicode = 2019;
},
{
glyphname = quotesinglbase;
lastChange = "2016-08-10 13:30:31 +0000";
layers = (
{
layerId = "840BD324-B0A6-42B0-BD23-CB5E8C19394F";
paths = (
{
closed = 1;
nodes = (
"616 180 CURVE SMOOTH",
"676 180 OFFCURVE",
"728 139 OFFCURVE",
"728 59 CURVE SMOOTH",
"728 -57 OFFCURVE",
"625 -167 OFFCURVE",
"543 -208 CURVE SMOOTH",
"540 -210 OFFCURVE",
"536 -210 OFFCURVE",
"533 -210 CURVE SMOOTH",
"519 -210 OFFCURVE",
"505 -197 OFFCURVE",
"505 -183 CURVE SMOOTH",
"505 -176 OFFCURVE",
"509 -168 OFFCURVE",
"517 -162 CURVE SMOOTH",
"560 -131 OFFCURVE",
"626 -70 OFFCURVE",
"626 -8 CURVE",
"567 -8 OFFCURVE",
"518 20 OFFCURVE",
"518 85 CURVE SMOOTH",
"518 149 OFFCURVE",
"569 180 OFFCURVE"
);
}
);
width = 1240;
}
);
unicode = 201A;
},
{
glyphname = .notdef;
lastChange = "2016-08-10 13:30:31 +0000";
layers = (
{
layerId = "840BD324-B0A6-42B0-BD23-CB5E8C19394F";
paths = (
{
closed = 1;
nodes = (
"204 102 LINE",
"820 102 LINE",
"820 990 LINE",
"204 990 LINE"
);
},
{
closed = 1;
nodes = (
"102 0 LINE",
"102 1092 LINE",
"922 1092 LINE",
"922 0 LINE"
);
}
);
width = 1240;
}
);
},
{
glyphname = cent;
lastChange = "2017-06-06 23:51:13 +0000";
layers = (
{
components = (
{
name = c;
}
);
layerId = "840BD324-B0A6-42B0-BD23-CB5E8C19394F";
paths = (
{
closed = 1;
nodes = (
"466 -205 OFFCURVE",
"483 -192 OFFCURVE",
"490 -166 CURVE SMOOTH",
"543 23 LINE",
"485 51 LINE",
"430 -146 LINE SMOOTH",
"422 -174 OFFCURVE",
"424 -192 OFFCURVE",
"446 -199 CURVE SMOOTH"
);
},
{
closed = 1;
nodes = (
"797 932 LINE SMOOTH",
"805 960 OFFCURVE",
"799 976 OFFCURVE",
"777 983 CURVE SMOOTH",
"754 990 OFFCURVE",
"744 978 OFFCURVE",
"737 953 CURVE SMOOTH",
"688 778 LINE",
"749 760 LINE"
);
}
);
width = 1240;
}
);
unicode = 00A2;
},
{
glyphname = currency;
lastChange = "2016-08-10 13:30:31 +0000";
layers = (
{
layerId = "840BD324-B0A6-42B0-BD23-CB5E8C19394F";
paths = (
{
closed = 1;
nodes = (
"616 368 CURVE SMOOTH",
"738 368 OFFCURVE",
"801 453 OFFCURVE",
"801 560 CURVE SMOOTH",
"801 667 OFFCURVE",
"740 756 OFFCURVE",
"615 756 CURVE SMOOTH",
"490 756 OFFCURVE",
"430 667 OFFCURVE",
"430 560 CURVE SMOOTH",
"430 455 OFFCURVE",
"496 368 OFFCURVE"
);
},
{
closed = 1;
nodes = (
"459 358 CURVE",
"371 271 LINE SMOOTH",
"340 240 OFFCURVE",
"296 282 OFFCURVE",
"328 314 CURVE SMOOTH",
"414 400 LINE",
"378 444 OFFCURVE",
"361 501 OFFCURVE",
"361 558 CURVE SMOOTH",
"361 615 OFFCURVE",
"379 672 OFFCURVE",
"414 717 CURVE",
"328 803 LINE SMOOTH",
"296 835 OFFCURVE",
"341 876 OFFCURVE",
"372 845 CURVE SMOOTH",
"457 760 LINE",
"498 791 OFFCURVE",
"551 811 OFFCURVE",
"616 811 CURVE SMOOTH",
"682 811 OFFCURVE",
"734 792 OFFCURVE",
"774 760 CURVE",
"858 843 LINE SMOOTH",
"890 875 OFFCURVE",
"933 831 OFFCURVE",
"901 799 CURVE SMOOTH",
"817 715 LINE",
"848 671 OFFCURVE",
"863 617 OFFCURVE",
"863 563 CURVE SMOOTH",
"863 507 OFFCURVE",
"845 450 OFFCURVE",
"810 405 CURVE",
"900 315 LINE SMOOTH",
"931 284 OFFCURVE",
"890 240 OFFCURVE",
"857 273 CURVE SMOOTH",
"768 362 LINE",
"728 332 OFFCURVE",
"675 313 OFFCURVE",
"611 313 CURVE SMOOTH",
"549 313 OFFCURVE",
"498 330 OFFCURVE"
);
}
);
width = 1240;
}
);
unicode = 00A4;
},
{
glyphname = dollar;
lastChange = "2017-06-07 00:01:11 +0000";
layers = (
{
components = (
{
name = S;
}
);
layerId = "840BD324-B0A6-42B0-BD23-CB5E8C19394F";
paths = (
{
closed = 1;
nodes = (
"667 1128 LINE",
"600 1129 LINE",
"600 41 LINE",
"667 22 LINE"
);
},
{
closed = 1;
nodes = (
"650 -167 OFFCURVE",
"667 -158 OFFCURVE",
"667 -141 CURVE SMOOTH",
"667 22 LINE",
"600 41 LINE",
"600 -141 LINE SMOOTH",
"600 -158 OFFCURVE",
"617 -167 OFFCURVE",
"634 -167 CURVE SMOOTH"
);
},
{
closed = 1;
nodes = (
"667 1315 LINE SMOOTH",
"667 1334 OFFCURVE",
"650 1344 OFFCURVE",
"634 1344 CURVE SMOOTH",
"617 1344 OFFCURVE",
"600 1334 OFFCURVE",
"600 1315 CURVE SMOOTH",
"600 1129 LINE",
"667 1128 LINE"
);
}
);
width = 1240;
}
);
unicode = 0024;
},
{
glyphname = euro;
lastChange = "2017-06-03 17:02:47 +0000";
layers = (
{
components = (
{
name = C;
}
);
layerId = "840BD324-B0A6-42B0-BD23-CB5E8C19394F";
paths = (
{
closed = 1;
nodes = (
"77 661 LINE",
"37 661 OFFCURVE",
"20 675 OFFCURVE",
"20 700 CURVE SMOOTH",
"20 726 OFFCURVE",
"37 739 OFFCURVE",
"77 739 CURVE",
"469 739 LINE",
"509 739 OFFCURVE",
"524 726 OFFCURVE",
"524 700 CURVE SMOOTH",
"524 675 OFFCURVE",
"509 661 OFFCURVE",
"469 661 CURVE"
);
},
{
closed = 1;
nodes = (
"77 429 LINE",
"37 429 OFFCURVE",
"20 441 OFFCURVE",
"20 466 CURVE SMOOTH",
"20 491 OFFCURVE",
"37 505 OFFCURVE",
"77 505 CURVE",
"469 505 LINE",
"509 505 OFFCURVE",
"524 491 OFFCURVE",
"524 466 CURVE SMOOTH",
"524 441 OFFCURVE",
"509 429 OFFCURVE",
"469 429 CURVE"
);
}
);
width = 1240;
}
);
unicode = 20AC;
},
{
glyphname = florin;
lastChange = "2016-08-10 13:30:31 +0000";
layers = (
{
layerId = "840BD324-B0A6-42B0-BD23-CB5E8C19394F";
paths = (
{
closed = 1;
nodes = (
"623 48 LINE SMOOTH",
"602 -193 OFFCURVE",
"422 -211 OFFCURVE",
"296 -211 CURVE SMOOTH",
"270 -211 OFFCURVE",
"262 -198 OFFCURVE",
"262 -174 CURVE SMOOTH",
"262 -170 OFFCURVE",
"263 -166 OFFCURVE",
"263 -161 CURVE SMOOTH",
"273 -43 LINE SMOOTH",
"275 -23 OFFCURVE",
"298 -13 OFFCURVE",
"318 -13 CURVE SMOOTH",
"337 -13 OFFCURVE",
"353 -21 OFFCURVE",
"353 -36 CURVE SMOOTH",
"353 -39 LINE",
"345 -137 LINE",
"430 -137 OFFCURVE",
"514 -103 OFFCURVE",
"527 46 CURVE SMOOTH",
"581 690 LINE",
"436 690 LINE SMOOTH",
"413 690 OFFCURVE",
"403 709 OFFCURVE",
"403 729 CURVE SMOOTH",
"403 734 LINE",
"405 754 OFFCURVE",
"417 774 OFFCURVE",
"439 774 CURVE SMOOTH",
"588 774 LINE",
"594 838 LINE",
"614 1079 OFFCURVE",
"743 1188 OFFCURVE",
"988 1188 CURVE SMOOTH",
"1016 1188 OFFCURVE",
"1041 1171 OFFCURVE",
"1041 1142 CURVE SMOOTH",
"1041 1137 LINE",
"1031 1020 LINE SMOOTH",
"1029 1000 OFFCURVE",
"1005 990 OFFCURVE",
"981 990 CURVE SMOOTH",
"961 990 OFFCURVE",
"941 998 OFFCURVE",
"941 1014 CURVE SMOOTH",
"941 1016 LINE",
"949 1118 LINE",
"803 1105 OFFCURVE",
"709 1062 OFFCURVE",
"690 841 CURVE SMOOTH",
"684 774 LINE",
"854 774 LINE SMOOTH",
"874 774 OFFCURVE",
"883 757 OFFCURVE",
"883 739 CURVE SMOOTH",
"883 734 LINE",
"881 712 OFFCURVE",
"868 690 OFFCURVE",
"846 690 CURVE SMOOTH",
"677 690 LINE"
);
}
);
width = 1240;
}
);
unicode = 0192;
},
{
glyphname = sterling;
lastChange = "2017-06-03 15:13:45 +0000";
layers = (
{
layerId = "840BD324-B0A6-42B0-BD23-CB5E8C19394F";
paths = (
{
closed = 1;
nodes = (
"329 81 OFFCURVE",
"358 48 OFFCURVE",
"404 48 CURVE SMOOTH",
"439 48 OFFCURVE",
"483 67 OFFCURVE",
"531 116 CURVE",
"474 171 OFFCURVE",
"429 191 OFFCURVE",
"396 191 CURVE SMOOTH",
"354 191 OFFCURVE",
"331 159 OFFCURVE",
"329 128 CURVE",
"329 122 LINE SMOOTH"
);
},
{
closed = 1;
nodes = (
"732 695 LINE",
"768 695 OFFCURVE",
"781 676 OFFCURVE",
"781 657 CURVE SMOOTH",
"781 638 OFFCURVE",
"767 618 OFFCURVE",
"731 618 CURVE",
"312 618 LINE",
"276 618 OFFCURVE",
"262 638 OFFCURVE",
"262 658 CURVE SMOOTH",
"262 677 OFFCURVE",
"274 695 OFFCURVE",
"310 695 CURVE"
);
},
{
closed = 1;
nodes = (
"458 681 OFFCURVE",
"674 470 OFFCURVE",
"674 263 CURVE SMOOTH",
"674 218 OFFCURVE",
"666 172 OFFCURVE",
"644 128 CURVE",
"720 67 OFFCURVE",
"784 53 OFFCURVE",
"872 53 CURVE SMOOTH",
"898 53 OFFCURVE",
"934 139 OFFCURVE",
"995 139 CURVE SMOOTH",
"1022 139 OFFCURVE",
"1047 110 OFFCURVE",
"1047 82 CURVE SMOOTH",
"1047 -10 OFFCURVE",
"941 -17 OFFCURVE",
"848 -17 CURVE SMOOTH",
"735 -17 OFFCURVE",
"678 12 OFFCURVE",
"587 72 CURVE",
"523 11 OFFCURVE",
"454 -16 OFFCURVE",
"395 -16 CURVE SMOOTH",
"313 -16 OFFCURVE",
"250 39 OFFCURVE",
"250 130 CURVE SMOOTH",
"250 199 OFFCURVE",
"310 251 OFFCURVE",
"390 251 CURVE SMOOTH",
"446 251 OFFCURVE",
"512 225 OFFCURVE",
"574 161 CURVE",
"582 176 OFFCURVE",
"586 199 OFFCURVE",
"586 229 CURVE SMOOTH",
"586 425 OFFCURVE",
"353 635 OFFCURVE",
"353 921 CURVE SMOOTH",
"353 1079 OFFCURVE",
"491 1184 OFFCURVE",
"649 1184 CURVE SMOOTH",
"767 1184 OFFCURVE",
"855 1171 OFFCURVE",
"911 1104 CURVE SMOOTH",
"926 1086 OFFCURVE",
"933 1079 OFFCURVE",
"933 1053 CURVE SMOOTH",
"933 1007 OFFCURVE",
"893 977 OFFCURVE",
"849 977 CURVE SMOOTH",
"798 977 OFFCURVE",
"800 1121 OFFCURVE",
"651 1121 CURVE SMOOTH",
"558 1121 OFFCURVE",
"458 1062 OFFCURVE",
"458 923 CURVE SMOOTH"
);
}
);
width = 1240;
}
);
unicode = 00A3;
},
{
glyphname = yen;
lastChange = "2016-08-10 13:30:31 +0000";
layers = (
{
layerId = "840BD324-B0A6-42B0-BD23-CB5E8C19394F";
paths = (
{
closed = 1;
nodes = (
"956 578 LINE SMOOTH",
"989 578 OFFCURVE",
"995 560 OFFCURVE",
"995 542 CURVE SMOOTH",
"995 524 OFFCURVE",
"989 506 OFFCURVE",
"956 506 CURVE SMOOTH",
"689 506 LINE",
"689 369 LINE",
"956 369 LINE SMOOTH",
"989 369 OFFCURVE",
"995 351 OFFCURVE",
"995 333 CURVE SMOOTH",
"995 315 OFFCURVE",
"989 297 OFFCURVE",
"956 297 CURVE SMOOTH",
"689 297 LINE",
"689 86 LINE",
"921 86 LINE SMOOTH",
"953 86 OFFCURVE",
"969 65 OFFCURVE",
"969 44 CURVE SMOOTH",
"969 22 OFFCURVE",
"952 0 OFFCURVE",
"919 0 CURVE SMOOTH",
"334 0 LINE SMOOTH",
"300 0 OFFCURVE",
"282 22 OFFCURVE",
"282 44 CURVE SMOOTH",
"282 65 OFFCURVE",
"299 86 OFFCURVE",
"332 86 CURVE SMOOTH",
"593 86 LINE",
"593 297 LINE",
"318 297 LINE SMOOTH",
"285 297 OFFCURVE",
"279 315 OFFCURVE",
"279 333 CURVE SMOOTH",
"279 351 OFFCURVE",
"285 369 OFFCURVE",
"318 369 CURVE SMOOTH",
"593 369 LINE",
"593 506 LINE",
"318 506 LINE SMOOTH",
"285 506 OFFCURVE",
"279 524 OFFCURVE",
"279 542 CURVE SMOOTH",
"279 560 OFFCURVE",
"285 578 OFFCURVE",
"318 578 CURVE SMOOTH",
"578 578 LINE",
"258 1095 LINE",
"174 1095 LINE SMOOTH",
"141 1095 OFFCURVE",
"124 1114 OFFCURVE",
"124 1133 CURVE SMOOTH",
"124 1152 OFFCURVE",
"142 1171 OFFCURVE",
"175 1171 CURVE SMOOTH",
"505 1171 LINE SMOOTH",
"539 1171 OFFCURVE",
"556 1152 OFFCURVE",
"556 1133 CURVE SMOOTH",
"556 1114 OFFCURVE",
"539 1095 OFFCURVE",
"506 1095 CURVE SMOOTH",
"370 1095 LINE",
"646 633 LINE",
"914 1095 LINE",
"803 1095 LINE SMOOTH",
"770 1095 OFFCURVE",
"753 1114 OFFCURVE",
"753 1133 CURVE SMOOTH",
"753 1152 OFFCURVE",
"771 1171 OFFCURVE",
"804 1171 CURVE SMOOTH",
"1065 1171 LINE SMOOTH",
"1099 1171 OFFCURVE",
"1116 1151 OFFCURVE",
"1116 1132 CURVE SMOOTH",
"1116 1113 OFFCURVE",
"1100 1095 OFFCURVE",
"1067 1095 CURVE SMOOTH",
"1012 1095 LINE",
"707 578 LINE"
);
}
);
width = 1240;
}
);
unicode = 00A5;
},
{
glyphname = dollar.ss01;
lastChange = "2017-06-03 16:13:11 +0000";
layers = (
{
components = (
{
name = S;
}
);
layerId = "840BD324-B0A6-42B0-BD23-CB5E8C19394F";
paths = (
{
closed = 1;
nodes = (
"594 41 LINE",
"594 -121 LINE SMOOTH",
"594 -158 OFFCURVE",
"617 -167 OFFCURVE",
"634 -167 CURVE SMOOTH",
"650 -167 OFFCURVE",
"672 -158 OFFCURVE",
"672 -121 CURVE SMOOTH",
"672 22 LINE"
);
},
{
closed = 1;
nodes = (
"673 1128 LINE",
"673 1295 LINE SMOOTH",
"673 1334 OFFCURVE",
"650 1344 OFFCURVE",
"634 1344 CURVE SMOOTH",
"617 1344 OFFCURVE",
"594 1334 OFFCURVE",
"594 1295 CURVE SMOOTH",
"594 1129 LINE"
);
}
);
width = 1240;
}
);
},
